SplineFontDB: 3.0
FontName: mwg_mathsymb
FullName: mwg_mathsymb
FamilyName: mwg_mathsymb
Weight: Regular-
Copyright: Copyright (C) 2012, Koichi Murase, 1994, 1995, Basil K. Malyshev. All Rights Reserved.\nBaKoMa Fonts Collection, Level-C.
Version: 1.0.10/2012-11-24
ItalicAngle: 0
UnderlinePosition: -136
UnderlineWidth: 20
Ascent: 819
Descent: 205
LayerCount: 2
Layer: 0 0 "+gMyXYgAA"  1
Layer: 1 0 "+Uk2XYgAA"  0
NeedsXUIDChange: 1
UniqueID: 4702302
FSType: 0
OS2Version: 1
OS2_WeightWidthSlopeOnly: 0
OS2_UseTypoMetrics: 0
CreationTime: 878738956
ModificationTime: 1353804324
PfmFamily: 17
TTFWeight: 400
TTFWidth: 5
LineGap: 92
VLineGap: 0
OS2TypoAscent: 0
OS2TypoAOffset: 1
OS2TypoDescent: 0
OS2TypoDOffset: 1
OS2TypoLinegap: 92
OS2WinAscent: 819
OS2WinAOffset: 1
OS2WinDescent: 205
OS2WinDOffset: 1
HheadAscent: 0
HheadAOffset: 1
HheadDescent: 0
HheadDOffset: 1
OS2Vendor: 'PfEd'
MarkAttachClasses: 1
DEI: 91125
GaspTable: 3 8 2 17 1 65535 3
Encoding: Custom
UnicodeInterp: none
NameList: Adobe Glyph List
DisplaySize: -36
AntiAlias: 1
FitToEm: 1
WinInfo: 8613 33 16
BeginPrivate: 7
BlueValues 39 [-14 0 317 329 539 553 659 674 711 718]
OtherBlues 11 [-206 -199]
StdHW 4 [44]
StdVW 4 [44]
StemSnapV 10 [33 44 88]
BlueScale 9 0.0687917
StemSnapH 10 [33 44 61]
EndPrivate
BeginChars: 65550 489

StartChar: blackdiamond
Encoding: 9830 9830 1
Width: 799
VWidth: 1000
Flags: W
LayerCount: 2
Fore
SplineSet
742 282 m 0
 742 273 741 272 719 251 c 0
 595 138 496 1 420 -149 c 0
 416 -158 409 -163 400 -163 c 0
 386 -163 384 -157 371 -133 c 0
 320 -33 225 120 77 255 c 0
 58 272 57 273 57 282 c 0
 57 291 58 292 80 313 c 0
 204 426 303 563 379 713 c 0
 386 726 396 727 400 727 c 0
 413 727 416 721 428 697 c 0
 505 546 607 416 722 309 c 0
 740 293 742 291 742 282 c 0
EndSplineSet
Validated: 1
EndChar

StartChar: angle
Encoding: 8736 8736 2
Width: 759
Flags: W
HStem: 0 44<130 699.974> 691 20G<676 684.5>
LayerCount: 2
Fore
SplineSet
79 0 m 1
 68 2 58 11 58 23 c 0
 58 28 61 33 65 38 c 2
 664 705 l 2
 667 709 673 711 679 711 c 0
 690 711 700 700 700 689 c 0
 700 683 698 678 694 674 c 2
 130 44 l 1
 681 44 l 1
 691 42 700 34 700 23 c 0
 700 11 691 2 681 0 c 1
 79 0 l 1
EndSplineSet
Validated: 1
EndChar

StartChar: proportional
Encoding: 8733 8733 3
Width: 799
VWidth: 1000
Flags: W
HStem: -11 45<644.585 741> -11 32<167.616 297.108> 397 45<157.885 296.415> 410 32<643.892 739.569>
VStem: 57 25<137.878 289.928>
LayerCount: 2
Fore
SplineSet
741 36 m 1x98
 741 -7 l 1
 732 -9 716 -11 704 -11 c 0x98
 579 -11 509 94 466 158 c 1
 409 53 329 -11 235 -11 c 0
 121 -11 57 104 57 215 c 0
 57 333 126 442 237 442 c 0x68
 362 442 432 337 475 273 c 1
 532 378 612 442 706 442 c 0
 718 442 734 441 738 438 c 1
 741 437 741 419 741 407 c 1
 727 410 715 410 713 410 c 0
 592 410 521 283 500 235 c 1
 590 100 634 34 717 34 c 0
 720 34 734 34 741 36 c 1x98
441 196 m 1
 351 331 307 397 224 397 c 0
 135 397 82 306 82 215 c 0
 82 124 131 21 228 21 c 0x68
 349 21 420 148 441 196 c 1
EndSplineSet
Validated: 1
EndChar

StartChar: anticlockwise
Encoding: 8634 8634 4
Width: 818
Flags: W
HStem: -96 33<313.763 504.151> 543 30<245.965 279.948> 574 33<392.026 431.625>
VStem: 58 33<160.678 354.05> 522 35<418 469.932> 726 33<160.678 352.509>
LayerCount: 2
Fore
SplineSet
409 -96 m 0
 215 -96 58 62 58 256 c 0
 58 388 135 514 255 571 c 0
 257 572 260 573 263 573 c 0
 272 573 280 566 280 557 c 0
 280 552 276 546 271 543 c 0
 161 491 91 377 91 256 c 0
 91 81 234 -63 409 -63 c 0
 584 -63 726 81 726 256 c 0
 726 392 636 517 506 559 c 1
 501 542 l 1
 530 502 549 457 557 408 c 1
 522 418 l 1
 512 478 479 534 432 573 c 1
 424 574 416 574 408 574 c 0
 399 574 392 583 392 591 c 0
 392 601 401 607 411 607 c 0
 433 607 454 605 474 601 c 1
 521 614 565 641 597 677 c 1
 632 668 l 1
 600 635 565 607 523 588 c 1
 663 540 759 403 759 256 c 0
 759 62 603 -96 409 -96 c 0
EndSplineSet
Validated: 1
EndChar

StartChar: harpoonupright
Encoding: 8638 8638 5
Width: 438
Flags: W
HStem: -199 21G<212.5 225> 691 20G<197 236>
VStem: 197 44<-198.993 614> 197 22<691.18 711>
LayerCount: 2
Fore
SplineSet
197 -177 m 2xe0
 197 711 l 1
 219 711 l 1xd0
 253 639 315 583 389 553 c 1
 389 517 l 1
 332 534 281 568 241 614 c 1
 241 -177 l 2xe0
 241 -189 231 -199 219 -199 c 0xd0
 206 -199 197 -189 197 -177 c 2xe0
EndSplineSet
Validated: 1
EndChar

StartChar: curlyright
Encoding: 8620 8620 6
Width: 1051
Flags: W
HStem: 233 45<142.482 354 398 903> 547 45<125.306 300.974>
VStem: 37 44<336.15 501.007> 354 44<-44.9934 233 278 481.731>
LayerCount: 2
Fore
SplineSet
354 -25 m 1
 354 233 l 1
 339 233 324 233 310 233 c 0
 174 233 37 239 37 413 c 0
 37 533 97 592 217 592 c 0
 398 592 398 418 398 278 c 1
 903 278 l 1
 858 319 823 370 800 426 c 1
 836 426 l 1
 866 352 921 291 993 256 c 1
 921 220 866 159 836 85 c 1
 800 85 l 1
 823 141 858 192 903 233 c 1
 398 233 l 1
 398 -25 l 1
 395 -36 388 -45 376 -45 c 0
 364 -45 356 -36 354 -25 c 1
81 413 m 0
 81 278 199 278 310 278 c 0
 323 278 339 278 354 278 c 1
 353 344 353 400 344 446 c 0
 330 520 291 547 217 547 c 0
 122 547 81 508 81 413 c 0
EndSplineSet
Validated: 1
EndChar

StartChar: eqgreater
Encoding: 8925 8925 7
Width: 799
VWidth: 1000
Flags: W
HStem: -154 43<86.0087 104> 404 45<86.0488 106> 609 43<86.0153 711.985>
LayerCount: 2
Fore
SplineSet
692 171 m 2
 702 166 712 161 712 148 c 0
 712 134 703 130 693 125 c 2
 126 -147 l 2
 113 -154 111 -154 107 -154 c 0
 98 -154 86 -147 86 -132 c 0
 86 -120 94 -116 104 -111 c 2
 641 148 l 1
 106 404 l 2
 90 412 86 418 86 428 c 0
 86 437 93 449 108 449 c 0
 111 449 113 449 124 443 c 2
 692 171 l 2
677 652 m 2
 691 652 712 652 712 631 c 0
 712 609 692 609 677 609 c 2
 121 609 l 2
 106 609 86 609 86 631 c 0
 86 652 107 652 121 652 c 2
 677 652 l 2
EndSplineSet
Validated: 1
EndChar

StartChar: geq
Encoding: 8805 8805 8
Width: 799
VWidth: 1000
Flags: W
HStem: -154 43<86.0153 711.985> 49 45<86.0488 106> 609 43<86.0087 104>
LayerCount: 2
Fore
SplineSet
692 327 m 2
 124 55 l 2
 113 49 111 49 108 49 c 0
 93 49 86 61 86 70 c 0
 86 80 90 86 106 94 c 2
 641 350 l 1
 104 609 l 2
 94 614 86 618 86 630 c 0
 86 645 98 652 107 652 c 0
 111 652 113 652 126 645 c 2
 693 373 l 2
 703 368 712 364 712 350 c 0
 712 337 702 332 692 327 c 2
677 -154 m 2
 121 -154 l 2
 107 -154 86 -154 86 -133 c 0
 86 -111 106 -111 121 -111 c 2
 677 -111 l 2
 692 -111 712 -111 712 -133 c 0
 712 -154 691 -154 677 -154 c 2
EndSplineSet
Validated: 1
EndChar

StartChar: rightarrow
Encoding: 8594 8594 9
Width: 1027
VWidth: 1000
Flags: W
HStem: 229 43<57.0146 880>
VStem: 771 31<388.998 429.983>
LayerCount: 2
Fore
SplineSet
880 229 m 1
 92 229 l 6
 76 229 57 229 57 251 c 0
 57 272 77 272 92 272 c 2
 880 272 l 1
 801 330 771 408 771 417 c 0
 771 426 779 430 786 430 c 0
 796 430 800 424 802 419 c 0
 819 381 851 311 955 265 c 0
 965 261 970 259 970 250 c 0
 970 245 967 241 961 238 c 0
 932 226 852 192 807 93 c 0
 798 75 797 71 786 71 c 0
 779 71 771 75 771 84 c 0
 771 93 801 171 880 229 c 1
EndSplineSet
Validated: 1
EndChar

StartChar: check
Encoding: 10003 10003 10
Width: 876
Flags: W
HStem: 699 20G<736 782>
LayerCount: 2
Fore
SplineSet
247 -27 m 2
 89 230 l 2
 88 230 88 231 88 232 c 0
 88 257 147 284 169 287 c 1
 174 287 l 1
 176 285 179 285 180 283 c 2
 283 116 l 1
 326 243 391 361 474 465 c 0
 526 531 697 709 775 719 c 1
 780 719 l 1
 784 717 787 716 787 711 c 0
 787 704 779 695 775 691 c 0
 750 669 724 652 699 632 c 0
 675 613 653 591 631 569 c 0
 575 513 525 451 483 383 c 0
 413 272 365 150 339 23 c 1
 332 -6 284 -28 258 -31 c 1
 253 -31 l 1
 250 -30 248 -29 247 -27 c 2
EndSplineSet
Validated: 1
EndChar

StartChar: downfall
Encoding: 8910 8910 11
Width: 806
Flags: W
HStem: 548 44<88.0087 180.33 625.67 717.991>
VStem: 381 44<-22.9927 203.509>
LayerCount: 2
Fore
SplineSet
381 -3 m 1
 381 186 351 523 108 548 c 0
 97 550 88 558 88 570 c 0
 88 583 100 592 112 592 c 1
 292 574 370 409 403 250 c 1
 435 409 514 574 694 592 c 1
 706 592 718 583 718 570 c 0
 718 558 709 550 698 548 c 0
 455 523 425 186 425 -3 c 1
 423 -13 414 -23 403 -23 c 0
 391 -23 383 -13 381 -3 c 1
EndSplineSet
Validated: 1
EndChar

StartChar: dotplus
Encoding: 8724 8724 12
Width: 818
Flags: W
HStem: 233 45<58.0073 387 431 758.993> 691 111<366.23 453.153>
VStem: 354 111<702.847 789.77> 387 44<-102.974 233 278 613.974>
LayerCount: 2
Fore
SplineSet
387 -83 m 1xd0
 387 233 l 1
 79 233 l 1
 68 235 58 244 58 256 c 0
 58 267 68 276 79 278 c 1
 387 278 l 1
 387 594 l 1
 389 605 398 614 410 614 c 0
 421 614 429 605 431 594 c 1
 431 278 l 1
 739 278 l 1
 749 276 759 267 759 256 c 0
 759 244 749 235 739 233 c 1
 431 233 l 1
 431 -83 l 1
 429 -94 421 -103 410 -103 c 0
 398 -103 389 -94 387 -83 c 1xd0
410 691 m 0
 379 691 354 716 354 746 c 0
 354 776 380 802 410 802 c 0
 440 802 465 776 465 746 c 0xe0
 465 716 439 691 410 691 c 0
EndSplineSet
Validated: 1
EndChar

StartChar: harpoonrightleft
Encoding: 8652 8652 13
Width: 1051
Flags: W
HStem: 130 44<155 992.993> 152 22<58 77.8199> 338 44<58.0291 897> 338 21<976.44 993>
LayerCount: 2
Fore
SplineSet
216 -19 m 1x80
 186 56 130 117 58 152 c 1
 58 174 l 1x40
 972 174 l 2x80
 984 174 993 164 993 152 c 0x40
 993 140 984 130 972 130 c 2
 155 130 l 1
 201 90 235 38 252 -19 c 1
 216 -19 l 1x80
58 359 m 0x10
 58 371 68 382 81 382 c 2
 897 382 l 1x20
 851 421 817 473 800 530 c 1
 836 530 l 1
 866 455 921 394 993 359 c 1
 993 338 l 1x10
 81 338 l 2x20
 68 338 58 347 58 359 c 0x10
EndSplineSet
Validated: 1
EndChar

StartChar: harpoonupleft
Encoding: 8639 8639 14
Width: 438
Flags: W
HStem: -199 21G<213.5 226> 691 20G<202.5 242>
VStem: 198 44<-198.993 614> 220 22<691.18 711>
LayerCount: 2
Fore
SplineSet
198 -177 m 2xe0
 198 614 l 1xe0
 158 568 106 534 49 517 c 1
 49 553 l 1
 123 583 185 639 220 711 c 1
 242 711 l 1xd0
 242 -177 l 2xe0
 242 -189 232 -199 220 -199 c 0xd0
 207 -199 198 -189 198 -177 c 2xe0
EndSplineSet
Validated: 1
EndChar

StartChar: followsorequal
Encoding: -1 8829 15
Width: 799
VWidth: 1000
Flags: MW
HStem: -246 60<502 612.5 502 624.5> -63 60<186 296> 429 43<599.5 693 599.5 693>
VStem: 57 30<-220 -212 -212 -180 -220 -163> 711 30<-69 -37 -37 -29>
LayerCount: 2
Fore
SplineSet
72 -246 m 0
 61 -246 58 -228 57 -220 c 1
 57 -212 l 2
 57 -114 120 -3 228 -3 c 0
 371 -3 434 -186 570 -186 c 0
 655 -186 711 -109 711 -29 c 1
 712 -20 715 -3 726 -3 c 0
 737 -3 740 -20 741 -29 c 1
 741 -37 l 2
 741 -135 679 -246 570 -246 c 0
 427 -246 364 -63 228 -63 c 0
 144 -63 87 -140 87 -220 c 1
 86 -228 83 -246 72 -246 c 0
108 149 m 0
 94 149 86 160 86 173 c 1
 104 350 262 421 417 451 c 1
 262 480 104 551 86 729 c 1
 86 741 94 752 108 752 c 0
 119 752 127 743 129 733 c 0
 154 487 506 472 693 472 c 1
 703 470 712 462 712 451 c 0
 712 439 703 431 693 429 c 1
 505 429 154 414 129 169 c 0
 127 158 119 149 108 149 c 0
EndSplineSet
Validated: 1
EndChar

StartChar: squareimage
Encoding: 8847 8847 16
Width: 818
Flags: W
HStem: -53 44<132 729.974> 520 44<132 729.974>
VStem: 88 44<-9 520>
LayerCount: 2
Fore
SplineSet
88 -34 m 1
 88 545 l 2
 88 555 99 562 109 564 c 1
 710 564 l 1
 721 562 730 554 730 543 c 0
 730 531 721 522 710 520 c 1
 132 520 l 1
 132 -9 l 1
 710 -9 l 1
 721 -11 730 -20 730 -32 c 0
 730 -43 721 -51 710 -53 c 1
 109 -53 l 2
 98 -53 90 -43 88 -34 c 1
EndSplineSet
Validated: 1
EndChar

StartChar: triangle
Encoding: 9651 9651 17
Width: 743
Flags: W
HStem: -23 46<144 599>
LayerCount: 2
Fore
SplineSet
108 -23 m 1
 97 -20 88 -12 88 0 c 0
 88 3 88 6 89 8 c 2
 351 578 l 2
 355 586 363 592 372 592 c 0
 381 592 388 586 392 578 c 2
 654 8 l 2
 655 6 655 3 655 0 c 0
 655 -12 647 -20 636 -23 c 1
 108 -23 l 1
144 23 m 1
 599 23 l 1
 372 517 l 1
 144 23 l 1
EndSplineSet
Validated: 1
EndChar

StartChar: nand
Encoding: 8892 8892 18
Width: 643
Flags: W
HStem: 0 21G<75 84.5 557 567.5> 689 44<58.029 583.971>
VStem: 58 41<0.196648 11> 542 42<0.0391388 14>
LayerCount: 2
Fore
SplineSet
58 23 m 0
 58 27 59 30 61 34 c 2
 303 515 l 2
 306 521 315 525 322 525 c 0
 331 525 338 519 342 512 c 2
 583 31 l 2
 584 28 584 25 584 23 c 0
 584 11 573 0 562 0 c 0
 552 0 545 6 542 14 c 2
 322 455 l 1
 99 11 l 2
 96 4 88 0 81 0 c 0
 69 0 58 11 58 23 c 0
79 689 m 1
 68 691 58 700 58 712 c 0
 58 723 68 731 79 733 c 1
 564 733 l 1
 574 731 584 723 584 712 c 0
 584 700 574 691 564 689 c 1
 79 689 l 1
EndSplineSet
Validated: 1
EndChar

StartChar: multiopenright
Encoding: 8908 8908 19
Width: 818
Flags: W
HStem: 691 20G<733.5 742>
LayerCount: 2
Fore
SplineSet
81 -23 m 0
 69 -23 58 -12 58 -1 c 0
 58 5 61 10 65 15 c 2
 721 705 l 2
 725 709 731 711 736 711 c 0
 748 711 759 700 759 689 c 0
 759 683 757 678 753 674 c 2
 439 344 l 1
 753 15 l 2
 757 10 759 5 759 -1 c 0
 759 -12 748 -23 736 -23 c 0
 731 -23 725 -20 721 -16 c 2
 409 312 l 1
 96 -16 l 2
 92 -20 86 -23 81 -23 c 0
EndSplineSet
Validated: 1
EndChar

StartChar: revasymptequal
Encoding: 8909 8909 20
Width: 818
Flags: W
HStem: 26 44<58.029 758.971> 255 61<157.378 315.982> 423 61<501.018 659.622>
VStem: 58 31<396.622 483.987> 728 31<255.014 343.185>
LayerCount: 2
Fore
SplineSet
79 26 m 1
 68 28 58 35 58 47 c 0
 58 59 68 67 79 70 c 1
 739 70 l 1
 749 67 759 59 759 47 c 0
 759 35 749 28 739 26 c 1
 79 26 l 1
233 255 m 0
 130 255 58 351 58 450 c 2
 58 458 l 1
 59 466 63 484 74 484 c 0
 85 484 88 466 89 458 c 1
 89 380 156 316 233 316 c 0
 369 316 443 484 584 484 c 0
 687 484 759 389 759 290 c 2
 759 282 l 1
 758 274 754 255 743 255 c 0
 732 255 729 274 728 282 c 1
 728 360 661 423 584 423 c 0
 448 423 374 255 233 255 c 0
EndSplineSet
Validated: 1
EndChar

StartChar: forces
Encoding: 8873 8873 21
Width: 759
Flags: W
HStem: 0 21G<75 86.5 283 294.5> 334 44<310 699.993> 691 20G<75 86.5 283 294.5>
VStem: 58 44<0.0261536 710.971> 266 44<0.0261536 334 378 710.971>
LayerCount: 2
Fore
SplineSet
58 20 m 1
 58 691 l 1
 60 701 69 711 81 711 c 0
 92 711 100 701 102 691 c 1
 102 20 l 1
 100 9 92 0 81 0 c 0
 69 0 60 9 58 20 c 1
266 20 m 1
 266 691 l 1
 268 701 277 711 289 711 c 0
 300 711 308 701 310 691 c 1
 310 378 l 1
 681 378 l 1
 691 376 700 367 700 356 c 0
 700 344 691 336 681 334 c 1
 310 334 l 1
 310 20 l 1
 308 9 300 0 289 0 c 0
 277 0 268 9 266 20 c 1
EndSplineSet
Validated: 1
EndChar

StartChar: arrowtailright
Encoding: 8611 8611 22
Width: 1169
Flags: W
HStem: 233 45<201.486 1020>
LayerCount: 2
Fore
SplineSet
76 85 m 1
 99 141 133 192 179 233 c 1
 179 278 l 1
 133 319 99 370 76 426 c 1
 112 426 l 1
 136 366 177 314 230 278 c 1
 1020 278 l 1
 975 319 939 370 916 426 c 1
 952 426 l 1
 982 352 1038 291 1110 256 c 1
 1038 220 982 159 952 85 c 1
 916 85 l 1
 939 141 975 192 1020 233 c 1
 230 233 l 1
 177 197 136 145 112 85 c 1
 76 85 l 1
EndSplineSet
Validated: 1
EndChar

StartChar: leqq
Encoding: 8806 8806 23
Width: 818
Flags: W
HStem: -197 44<88.0073 728.993> 11 44<88.0073 728.993> 175 41<719 728.816> 751 42<716 728.961>
LayerCount: 2
Fore
SplineSet
109 -197 m 1
 98 -195 88 -186 88 -175 c 0
 88 -163 98 -155 109 -153 c 1
 710 -153 l 1
 720 -155 729 -163 729 -175 c 0
 729 -186 720 -195 710 -197 c 1
 109 -197 l 1
109 11 m 1
 98 13 88 22 88 33 c 0
 88 45 98 53 109 55 c 1
 710 55 l 1
 720 53 729 45 729 33 c 0
 729 22 720 13 710 11 c 1
 109 11 l 1
99 465 m 2
 92 468 88 476 88 484 c 0
 88 493 94 501 102 505 c 2
 699 792 l 2
 701 793 705 793 708 793 c 0
 719 793 729 782 729 771 c 0
 729 761 723 754 716 751 c 2
 161 484 l 1
 719 216 l 2
 725 213 729 205 729 198 c 0
 729 186 719 175 708 175 c 0
 705 175 701 175 699 177 c 2
 99 465 l 2
EndSplineSet
Validated: 1
EndChar

StartChar: triangleright
Encoding: 8882 8882 24
Width: 818
Flags: W
VStem: 88 44<4 507>
LayerCount: 2
Fore
SplineSet
88 -34 m 1
 88 545 l 1
 90 555 99 564 111 564 c 0
 113 564 116 564 119 563 c 2
 716 276 l 2
 724 272 730 265 730 256 c 0
 730 248 726 240 719 237 c 2
 119 -52 l 2
 116 -53 113 -53 111 -53 c 0
 99 -53 90 -44 88 -34 c 1
132 4 m 1
 656 256 l 1
 132 507 l 1
 132 4 l 1
EndSplineSet
Validated: 1
EndChar

StartChar: triangleinv
Encoding: 9661 9661 25
Width: 743
Flags: W
HStem: 548 44<144 599>
LayerCount: 2
Fore
SplineSet
351 -8 m 2
 89 561 l 2
 88 563 88 566 88 569 c 0
 88 581 97 589 108 592 c 5
 636 592 l 1
 647 589 655 581 655 569 c 0
 655 566 655 563 654 561 c 2
 392 -8 l 2
 388 -16 381 -23 372 -23 c 0
 363 -23 355 -16 351 -8 c 2
372 52 m 1
 599 548 l 1
 144 548 l 1
 372 52 l 1
EndSplineSet
Validated: 1
EndChar

StartChar: measuredangle
Encoding: 8737 8737 26
Width: 759
Flags: W
HStem: 0 44<129 414 461 699.974>
VStem: 414 45<44 139.828>
LayerCount: 2
Fore
SplineSet
79 0 m 1
 68 2 58 11 58 23 c 0
 58 28 61 33 65 38 c 2
 664 727 l 2
 667 731 673 733 679 733 c 0
 690 733 700 723 700 711 c 0
 700 705 698 699 694 695 c 2
 350 299 l 1
 402 238 459 125 459 44 c 1
 681 44 l 1
 691 42 700 34 700 23 c 0
 700 11 691 2 681 0 c 1
 461 0 l 1
 461 -12 450 -23 438 -23 c 0
 426 -23 419 -13 416 0 c 1
 79 0 l 1
129 44 m 1
 414 44 l 1
 406 125 373 203 321 265 c 1
 129 44 l 1
EndSplineSet
Validated: 1
EndChar

StartChar: superseteq
Encoding: 8839 8839 27
Width: 799
VWidth: 1000
Flags: W
HStem: -154 43<86.0153 689.985> 49 43<86.0153 504.047> 609 43<86.0153 504.423>
VStem: 669 43<250.699 450.206>
LayerCount: 2
Fore
SplineSet
397 609 m 2
 121 609 l 2
 105 609 86 609 86 631 c 0
 86 652 107 652 121 652 c 2
 401 652 l 2
 564 652 712 525 712 350 c 0
 712 179 566 49 401 49 c 2
 121 49 l 2
 105 49 86 49 86 71 c 0
 86 92 107 92 121 92 c 2
 397 92 l 2
 550 92 669 207 669 351 c 0
 669 491 552 609 397 609 c 2
656 -154 m 2
 121 -154 l 2
 105 -154 86 -154 86 -132 c 0
 86 -111 107 -111 121 -111 c 2
 656 -111 l 2
 670 -111 690 -111 690 -133 c 0
 690 -154 669 -154 656 -154 c 2
EndSplineSet
Validated: 1
EndChar

StartChar: therefore
Encoding: 8756 8756 28
Width: 701
Flags: W
HStem: -80 115<43.8481 131.829 567.848 656.422> 374 114<304.997 395.311>
VStem: 31 114<-68.0031 22.3107> 293 115<386.848 474.829> 555 115<-67.1519 21.4221>
LayerCount: 2
Fore
SplineSet
31 -23 m 0
 31 8 56 35 88 35 c 0
 119 35 145 8 145 -23 c 0
 145 -55 119 -80 88 -80 c 0
 56 -80 31 -55 31 -23 c 0
555 -23 m 0
 555 8 580 35 612 35 c 0
 643 35 670 8 670 -23 c 0
 670 -55 643 -80 612 -80 c 0
 580 -80 555 -55 555 -23 c 0
293 431 m 0
 293 462 318 488 350 488 c 0
 381 488 408 462 408 431 c 0
 408 399 381 374 350 374 c 0
 318 374 293 399 293 431 c 0
EndSplineSet
Validated: 1
EndChar

StartChar: rightanglese
Encoding: 9496 9496 29
Width: 525
Flags: W
HStem: -23 45<58.0073 423>
VStem: 423 44<22 385.974>
LayerCount: 2
Fore
SplineSet
79 -23 m 1
 68 -21 58 -12 58 -1 c 0
 58 11 68 20 79 22 c 1
 423 22 l 1
 423 366 l 1
 425 377 433 386 444 386 c 0
 456 386 465 377 467 366 c 1
 467 -3 l 2
 467 -13 456 -21 446 -23 c 1
 79 -23 l 1
EndSplineSet
Validated: 1
EndChar

StartChar: squareplus
Encoding: 8862 8862 30
Width: 818
Flags: W
HStem: 0 44<102 387 431 715> 340 44<102 387 431 715> 679 44<102 387 431 715>
VStem: 58 44<44 340 384 679> 387 44<44 340 384 679> 715 44<44 340 384 679>
LayerCount: 2
Fore
SplineSet
58 20 m 2
 58 703 l 1
 60 712 68 723 79 723 c 2
 739 723 l 1
 748 721 759 713 759 703 c 2
 759 20 l 1
 757 10 749 0 739 0 c 2
 79 0 l 1
 69 2 58 9 58 20 c 2
102 44 m 1
 387 44 l 1
 387 340 l 1
 102 340 l 1
 102 44 l 1
431 44 m 1
 715 44 l 1
 715 340 l 1
 431 340 l 1
 431 44 l 1
102 384 m 1
 387 384 l 1
 387 679 l 1
 102 679 l 1
 102 384 l 1
431 384 m 1
 715 384 l 1
 715 679 l 1
 431 679 l 1
 431 384 l 1
EndSplineSet
Validated: 1
EndChar

StartChar: satisfies
Encoding: 8872 8872 31
Width: 643
Flags: W
HStem: 0 21G<75 86.5> 230 44<102 583.971> 438 44<102 583.971> 691 20G<75 86.5>
VStem: 58 44<0.0261536 230 274 438 482 710.971>
LayerCount: 2
Fore
SplineSet
58 20 m 1
 58 691 l 1
 60 701 69 711 81 711 c 0
 92 711 100 701 102 691 c 1
 102 482 l 1
 564 482 l 1
 574 480 584 472 584 461 c 0
 584 449 574 440 564 438 c 1
 102 438 l 1
 102 274 l 1
 564 274 l 1
 574 272 584 264 584 253 c 0
 584 241 574 232 564 230 c 1
 102 230 l 1
 102 20 l 1
 100 9 92 0 81 0 c 0
 69 0 60 9 58 20 c 1
EndSplineSet
Validated: 1
EndChar

StartChar: arrowparrleftright
Encoding: 8646 8646 32
Width: 1051
Flags: W
HStem: -1 21G<800 851> 147 44<58.0291 903> 489 45<148 992.993>
LayerCount: 2
Fore
SplineSet
81 147 m 2
 68 147 58 158 58 170 c 0
 58 182 68 191 81 191 c 2
 903 191 l 1
 858 232 823 284 800 340 c 1
 836 340 l 1
 866 266 921 205 993 170 c 1
 921 135 866 74 836 -1 c 1
 800 -1 l 1
 823 56 858 107 903 147 c 1
 81 147 l 2
216 340 m 1
 186 415 130 476 58 511 c 1
 130 546 186 607 216 682 c 1
 252 682 l 1
 229 625 193 574 148 534 c 1
 972 534 l 2
 984 534 993 523 993 511 c 0
 993 499 984 489 972 489 c 2
 148 489 l 1
 193 448 229 397 252 340 c 1
 216 340 l 1
EndSplineSet
Validated: 1
EndChar

StartChar: because
Encoding: 8757 8757 33
Width: 701
Flags: W
HStem: -80 115<305.848 394.422> 374 114<42.9969 132.694 566.997 657.311>
VStem: 31 114<385.997 475.694> 293 115<-67.1519 21.4221> 555 115<386.848 474.829>
LayerCount: 2
Fore
SplineSet
293 -23 m 0
 293 8 318 35 350 35 c 0
 381 35 408 8 408 -23 c 0
 408 -55 381 -80 350 -80 c 0
 318 -80 293 -55 293 -23 c 0
31 431 m 0
 31 462 56 488 88 488 c 0
 119 488 145 462 145 431 c 0
 145 399 119 374 88 374 c 0
 56 374 31 399 31 431 c 0
555 431 m 0
 555 462 580 488 612 488 c 0
 643 488 670 462 670 431 c 0
 670 399 643 374 612 374 c 0
 580 374 555 399 555 431 c 0
EndSplineSet
Validated: 1
EndChar

StartChar: lessorgreater
Encoding: 8822 8822 34
Width: 818
Flags: W
HStem: -276 42<44.0073 57> 164 43<760 772.985> 236 42<44.0328 57> 676 42<760 772.967>
LayerCount: 2
Fore
SplineSet
44 -255 m 0
 44 -246 49 -237 57 -234 c 2
 688 1 l 1
 57 236 l 2
 49 239 44 247 44 256 c 0
 44 267 54 278 66 278 c 0
 69 278 72 276 74 276 c 2
 760 22 l 2
 768 18 773 9 773 1 c 0
 773 -8 768 -16 760 -20 c 2
 73 -275 l 2
 71 -276 68 -276 66 -276 c 0
 54 -276 44 -266 44 -255 c 0
57 421 m 2
 49 424 44 432 44 441 c 0
 44 449 49 458 57 462 c 2
 744 717 l 2
 746 718 750 718 752 718 c 0
 764 718 773 707 773 696 c 0
 773 687 768 679 760 676 c 2
 129 441 l 1
 760 207 l 2
 768 203 773 194 773 186 c 0
 773 174 764 164 752 164 c 0
 749 164 745 165 743 166 c 2
 57 421 l 2
EndSplineSet
Validated: 1
EndChar

StartChar: trianglerightequal
Encoding: 8885 8885 35
Width: 818
Flags: W
HStem: -158 44<88.0073 729.993> 649 20G<105 112>
VStem: 88 44<108 610>
LayerCount: 2
Fore
SplineSet
109 -158 m 1
 98 -156 88 -147 88 -136 c 0
 88 -124 98 -116 109 -114 c 1
 710 -114 l 1
 721 -116 730 -124 730 -136 c 0
 730 -147 721 -156 710 -158 c 1
 109 -158 l 1
88 71 m 1
 88 649 l 1
 90 659 99 669 111 669 c 0
 113 669 116 669 119 668 c 2
 716 381 l 2
 724 377 730 369 730 360 c 0
 730 352 726 344 719 341 c 2
 119 52 l 2
 116 51 113 51 111 51 c 0
 99 51 90 61 88 71 c 1
132 108 m 1
 656 359 l 1
 132 610 l 1
 132 108 l 1
EndSplineSet
Validated: 1
EndChar

StartChar: lessequalgreater
Encoding: 8922 8922 36
Width: 796
Flags: W
HStem: 232 44<88.029 707.971>
LayerCount: 2
Fore
SplineSet
88 -193 m 0
 88 -184 93 -176 102 -173 c 2
 625 -38 l 1
 102 97 l 2
 93 99 88 108 88 117 c 0
 88 128 99 139 111 139 c 0
 113 139 116 139 119 138 c 2
 693 -18 l 2
 701 -21 708 -29 708 -38 c 0
 708 -47 701 -57 693 -59 c 2
 117 -214 l 2
 115 -215 113 -215 111 -215 c 0
 99 -215 88 -204 88 -193 c 0
109 232 m 1
 98 234 88 243 88 255 c 0
 88 266 98 274 109 276 c 1
 687 276 l 1
 698 274 708 266 708 255 c 0
 708 243 698 234 687 232 c 1
 109 232 l 1
102 527 m 2
 93 530 88 538 88 547 c 0
 88 556 93 566 102 568 c 2
 679 723 l 2
 681 724 683 724 685 724 c 0
 697 724 708 713 708 702 c 0
 708 693 701 685 693 682 c 2
 171 547 l 1
 693 413 l 2
 702 411 708 401 708 393 c 0
 708 381 697 370 685 370 c 0
 682 370 680 371 677 372 c 2
 102 527 l 2
EndSplineSet
EndChar

StartChar: geomequivalent
Encoding: 8782 8782 37
Width: 818
Flags: W
HStem: -2 44<345.28 472.445> 130 44<58.0073 261.482 555.543 758.993> 338 44<58.029 261.482 555.543 758.971> 469 44<345.28 472.445>
LayerCount: 2
Fore
SplineSet
79 130 m 1
 68 132 58 140 58 152 c 0
 58 164 68 171 79 174 c 1
 280 174 l 2
 291 174 297 163 299 154 c 1
 299 94 348 42 409 42 c 0
 470 42 518 94 518 154 c 0
 518 165 529 171 538 174 c 1
 739 174 l 1
 749 171 759 164 759 152 c 0
 759 140 749 132 739 130 c 1
 560 130 l 1
 549 55 485 -2 409 -2 c 0
 333 -2 268 55 257 130 c 1
 79 130 l 1
79 338 m 1
 68 340 58 347 58 359 c 0
 58 371 68 379 79 382 c 1
 257 382 l 1
 268 456 333 513 409 513 c 0
 485 513 549 456 560 382 c 1
 739 382 l 1
 749 379 759 371 759 359 c 0
 759 347 749 340 739 338 c 1
 538 338 l 2
 527 338 520 348 518 357 c 1
 518 417 470 469 409 469 c 0
 348 469 299 417 299 357 c 0
 299 346 289 340 280 338 c 1
 79 338 l 1
EndSplineSet
Validated: 1
EndChar

StartChar: complement
Encoding: 8705 8705 38
Width: 525
Flags: W
HStem: -23 89<170.543 354.633> 779 88<174.598 354.504>
VStem: 58 88<92.3009 752.666> 379 88<92.3009 281.763 563.237 752.666>
LayerCount: 2
Fore
SplineSet
58 124 m 2
 58 721 l 2
 58 824 173 867 260 867 c 2
 265 867 l 2
 352 867 467 824 467 721 c 2
 467 599 l 1
 464 575 449 560 425 557 c 1
 420 557 l 1
 397 560 382 575 379 599 c 1
 379 716 l 2
 379 767 302 779 263 779 c 0
 226 779 182 772 156 743 c 0
 153 740 150 736 148 732 c 0
 148 730 146 724 146 724 c 2
 146 721 146 719 146 716 c 2
 146 129 l 2
 146 78 223 66 263 66 c 0
 299 66 344 72 370 101 c 0
 373 104 375 109 377 113 c 0
 377 115 379 121 379 121 c 2
 379 124 379 126 379 129 c 2
 379 246 l 1
 382 270 397 285 420 288 c 1
 425 288 l 1
 449 285 464 270 467 246 c 1
 467 124 l 2
 467 21 352 -23 265 -23 c 2
 260 -23 l 2
 173 -23 58 21 58 124 c 2
EndSplineSet
Validated: 1
EndChar

StartChar: square
Encoding: 9633 9633 39
Width: 818
Flags: W
HStem: 0 44<102 715> 679 44<102 715>
VStem: 58 44<44 679> 715 44<44 679>
LayerCount: 2
Fore
SplineSet
58 20 m 1
 58 703 l 2
 58 713 69 721 79 723 c 1
 739 723 l 2
 749 723 757 712 759 703 c 1
 759 20 l 2
 759 9 748 2 739 0 c 1
 79 0 l 2
 68 0 60 10 58 20 c 1
102 44 m 1
 715 44 l 1
 715 679 l 1
 102 679 l 1
 102 44 l 1
EndSplineSet
Validated: 1
EndChar

StartChar: dblarrowheadleft
Encoding: 8606 8606 40
Width: 1051
Flags: W
HStem: 233 45<148 318.984 342 992.993>
LayerCount: 2
Fore
SplineSet
216 85 m 1
 186 159 130 220 58 256 c 1
 130 291 186 352 216 426 c 1
 252 426 l 1
 229 370 193 319 148 278 c 1
 290 278 l 1
 344 314 385 366 410 426 c 1
 445 426 l 1
 422 370 387 319 342 278 c 1
 972 278 l 2
 984 278 993 268 993 256 c 0
 993 243 984 233 972 233 c 2
 342 233 l 1
 387 192 422 141 445 85 c 1
 410 85 l 1
 385 145 344 197 290 233 c 1
 148 233 l 1
 193 192 229 141 252 85 c 1
 216 85 l 1
EndSplineSet
Validated: 1
EndChar

StartChar: northwestarrow
Encoding: 8598 8598 41
Width: 1027
VWidth: 1000
Flags: W
HStem: 640 30<138.428 274.393>
VStem: 81 30<476.532 612.572>
LayerCount: 2
Fore
SplineSet
927 -206 m 2
 107 613 l 1
 109 600 111 585 111 565 c 0
 111 513 91 428 72 428 c 0
 64 428 55 437 55 445 c 0
 55 447 55 449 62 465 c 0
 81 512 81 563 81 566 c 0
 81 569 81 619 62 667 c 0
 59 675 57 678 57 681 c 0
 57 688 63 694 70 694 c 0
 73 694 76 692 84 689 c 0
 132 670 182 670 185 670 c 0
 193 670 240 670 292 691 c 0
 302 696 304 696 306 696 c 0
 314 696 323 687 323 679 c 0
 323 660 237 640 186 640 c 0
 166 640 151 642 138 644 c 1
 957 -176 l 2
 968 -187 970 -189 970 -197 c 0
 970 -210 961 -219 948 -219 c 0
 940 -219 938 -217 927 -206 c 2
EndSplineSet
Validated: 1
EndChar

StartChar: defines
Encoding: 8796 8796 42
Width: 818
Flags: W
HStem: 130 44<58.0073 759.993> 338 44<58.029 759.971> 504 44<243 575>
LayerCount: 2
Fore
SplineSet
79 130 m 1
 68 132 58 140 58 152 c 0
 58 164 68 171 79 174 c 1
 740 174 l 1
 750 171 760 164 760 152 c 0
 760 140 750 132 740 130 c 1
 79 130 l 1
79 338 m 1
 68 340 58 347 58 359 c 0
 58 371 68 379 79 382 c 1
 740 382 l 1
 750 379 760 371 760 359 c 0
 760 347 750 340 740 338 c 1
 79 338 l 1
203 504 m 1
 192 506 182 514 182 525 c 0
 182 529 183 534 185 537 c 2
 390 892 l 2
 394 898 402 902 410 902 c 0
 417 902 424 898 428 892 c 2
 633 537 l 2
 635 534 636 529 636 525 c 0
 636 514 626 506 615 504 c 1
 203 504 l 1
243 548 m 1
 575 548 l 1
 410 837 l 1
 243 548 l 1
EndSplineSet
Validated: 1
EndChar

StartChar: subsetdbl
Encoding: 8912 8912 43
Width: 818
Flags: W
HStem: -53 44<306.691 728.974> 111 44<334.974 728.993> 356 44<334.974 728.974> 520 44<306.691 728.974>
VStem: 88 44<155.847 355.631> 252 44<194.889 316.405>
LayerCount: 2
Fore
SplineSet
88 256 m 0
 88 429 236 564 407 564 c 2
 710 564 l 1
 720 562 729 554 729 543 c 0
 729 531 720 522 710 520 c 1
 411 520 l 2
 263 520 132 408 132 256 c 0
 132 103 263 -9 411 -9 c 2
 710 -9 l 1
 720 -11 729 -20 729 -32 c 0
 729 -43 720 -51 710 -53 c 1
 407 -53 l 2
 236 -53 88 82 88 256 c 0
397 110 m 0
 317 110 252 176 252 256 c 0
 252 335 317 401 397 401 c 0
 399 401 401 401 404 401 c 0
 406 401 409 401 411 400 c 1
 710 400 l 1
 720 398 729 390 729 379 c 0
 729 367 720 358 710 356 c 1
 407 356 l 1
 406 357 403 357 402 357 c 0
 400 357 399 357 397 357 c 0
 342 357 296 310 296 256 c 0
 296 201 342 154 397 154 c 0
 399 154 400 154 402 154 c 0
 403 154 406 155 407 155 c 2
 710 155 l 1
 720 153 729 144 729 133 c 0
 729 121 720 113 710 111 c 1
 411 111 l 2
 409 111 406 110 404 110 c 0
 401 110 399 110 397 110 c 0
EndSplineSet
Validated: 1
EndChar

StartChar: ggreater
Encoding: 8811 8811 44
Width: 1027
VWidth: 1000
Flags: W
LayerCount: 2
Fore
SplineSet
637 227 m 2
 85 -79 l 1
 77 -79 57 -79 57 -58 c 0
 57 -46 62 -43 77 -35 c 2
 591 251 l 1
 75 537 l 2
 63 543 57 547 57 559 c 0
 57 572 69 580 78 580 c 0
 84 580 91 577 96 574 c 2
 640 273 l 2
 649 268 657 262 657 251 c 0
 657 238 651 235 637 227 c 2
950 227 m 2
 398 -79 l 1
 390 -79 370 -79 370 -58 c 0
 370 -46 375 -43 390 -35 c 2
 904 251 l 1
 388 537 l 2
 376 543 370 547 370 559 c 0
 370 572 382 580 391 580 c 0
 397 580 404 577 409 574 c 2
 953 273 l 2
 962 268 970 262 970 251 c 0
 970 238 964 235 950 227 c 2
EndSplineSet
Validated: 1
EndChar

StartChar: circlering
Encoding: 8858 8858 45
Width: 818
Flags: W
HStem: -96 33<313.763 504.151> 111 44<346.503 469.617> 357 44<346.503 469.617> 574 33<313.763 504.151>
VStem: 58 33<160.678 350.874> 263 44<196.349 315.651> 510 44<195.383 316.617> 726 33<160.678 350.874>
LayerCount: 2
Fore
SplineSet
409 -96 m 0
 215 -96 58 62 58 256 c 0
 58 449 215 607 409 607 c 0
 603 607 759 449 759 256 c 0
 759 62 603 -96 409 -96 c 0
409 -63 m 0
 584 -63 726 81 726 256 c 0
 726 430 584 574 409 574 c 0
 234 574 91 430 91 256 c 0
 91 81 234 -63 409 -63 c 0
263 256 m 0
 263 335 330 401 409 401 c 0
 488 401 554 335 554 256 c 0
 554 177 488 111 409 111 c 0
 330 111 263 177 263 256 c 0
307 256 m 0
 307 201 354 155 409 155 c 0
 464 155 510 201 510 256 c 0
 510 311 464 357 409 357 c 0
 354 357 307 311 307 256 c 0
EndSplineSet
Validated: 1
EndChar

StartChar: squaresmallsolid
Encoding: 9642 9642 46
Width: 291
Flags: W
HStem: 0 197<58.0981 231.903>
VStem: 58 174<0.0974083 196.902>
LayerCount: 2
Fore
SplineSet
58 20 m 1
 58 177 l 2
 58 187 69 195 79 197 c 1
 213 197 l 2
 223 197 230 186 232 177 c 1
 232 20 l 2
 232 9 222 2 213 0 c 1
 79 0 l 2
 68 0 60 10 58 20 c 1
EndSplineSet
Validated: 1
EndChar

StartChar: Rightarrow
Encoding: 8658 8658 47
Width: 1027
VWidth: 1000
Flags: W
HStem: 127 43<57.016 692> 331 43<57.016 692>
LayerCount: 2
Fore
SplineSet
721 331 m 2
 90 331 l 2
 77 331 57 331 57 352 c 0
 57 374 79 374 94 374 c 2
 692 374 l 1
 635 432 594 510 594 518 c 0
 594 531 606 531 615 531 c 0
 630 531 631 530 641 513 c 0
 725 358 845 294 959 263 c 0
 961 262 970 260 970 250 c 0
 970 241 960 238 959 238 c 0
 925 229 834 204 752 131 c 0
 716 98 679 59 641 -11 c 0
 631 -29 630 -30 615 -30 c 0
 606 -30 594 -30 594 -17 c 0
 594 -9 635 69 692 127 c 1
 94 127 l 2
 79 127 57 127 57 149 c 0
 57 170 77 170 90 170 c 2
 721 170 l 2
 737 170 739 170 748 178 c 0
 793 212 839 237 873 251 c 1
 814 274 767 309 748 324 c 0
 739 331 737 331 721 331 c 2
EndSplineSet
Validated: 1
EndChar

StartChar: squiggleright
Encoding: 8669 8669 48
Width: 1051
Flags: W
HStem: 233 45<674 903>
LayerCount: 2
Fore
SplineSet
81 233 m 0
 69 233 58 244 58 256 c 0
 58 261 61 267 65 271 c 2
 163 356 l 2
 167 360 172 362 178 362 c 0
 183 362 189 360 194 356 c 2
 373 200 l 1
 552 356 l 2
 557 360 562 362 567 362 c 0
 573 362 579 360 583 356 c 2
 674 278 l 1
 903 278 l 1
 858 319 823 370 800 426 c 1
 836 426 l 1
 866 352 921 291 993 256 c 1
 921 220 866 159 836 85 c 1
 800 85 l 1
 823 141 858 192 903 233 c 1
 664 233 l 2
 657 233 652 238 648 242 c 2
 567 311 l 1
 388 155 l 2
 384 151 379 148 373 148 c 0
 367 148 361 151 357 155 c 2
 178 311 l 1
 96 240 l 2
 91 236 86 233 81 233 c 0
EndSplineSet
Validated: 1
EndChar

StartChar: lessorsimilar
Encoding: 8818 8818 49
Width: 818
Flags: W
HStem: -247 62<503.218 657.052> -69 62<160.382 313.782> 148 41<719 728.816> 724 42<716 728.961>
VStem: 58 31<-246.986 -155.948> 728 31<-97.6809 -7.01308>
LayerCount: 2
Fore
SplineSet
74 -247 m 0
 63 -247 59 -228 58 -220 c 1
 58 -212 l 2
 58 -112 125 -7 233 -7 c 0
 376 -7 446 -185 584 -185 c 0
 666 -185 728 -114 728 -34 c 1
 729 -25 732 -7 743 -7 c 0
 754 -7 758 -25 759 -34 c 1
 759 -42 l 2
 759 -141 693 -247 584 -247 c 0
 441 -247 371 -69 233 -69 c 0
 152 -69 89 -140 89 -220 c 1
 88 -228 85 -247 74 -247 c 0
99 438 m 2
 92 441 88 450 88 458 c 0
 88 467 94 474 102 478 c 2
 699 765 l 2
 701 766 705 766 708 766 c 0
 719 766 729 755 729 744 c 0
 729 734 723 727 716 724 c 2
 161 458 l 1
 719 189 l 2
 725 186 729 178 729 171 c 0
 729 159 719 148 708 148 c 0
 705 148 701 149 699 151 c 2
 99 438 l 2
EndSplineSet
Validated: 1
EndChar

StartChar: equaldotleftright
Encoding: 8786 8786 50
Width: 818
Flags: W
HStem: -114 115<691.997 782.311> 130 44<58.0073 758.993> 338 44<58.029 758.971> 510 115<36.8481 124.829>
VStem: 24 114<521.997 612.311> 680 115<-100.745 -12.1711>
LayerCount: 2
Fore
SplineSet
680 -56 m 0
 680 -25 705 1 737 1 c 0
 768 1 795 -25 795 -56 c 0
 795 -88 768 -114 737 -114 c 0
 705 -114 680 -88 680 -56 c 0
79 130 m 1
 68 132 58 140 58 152 c 0
 58 164 68 171 79 174 c 1
 739 174 l 1
 749 171 759 164 759 152 c 0
 759 140 749 132 739 130 c 1
 79 130 l 1
79 338 m 1
 68 340 58 347 58 359 c 0
 58 371 68 379 79 382 c 1
 739 382 l 1
 749 379 759 371 759 359 c 0
 759 347 749 340 739 338 c 1
 79 338 l 1
24 567 m 0
 24 598 49 625 81 625 c 0
 112 625 138 598 138 567 c 0
 138 535 112 510 81 510 c 0
 49 510 24 535 24 567 c 0
EndSplineSet
Validated: 1
EndChar

StartChar: triangledownsld
Encoding: 9660 9660 51
Width: 743
Flags: W
LayerCount: 2
Fore
SplineSet
351 -8 m 2
 89 561 l 2
 88 563 88 566 88 569 c 0
 88 581 97 589 108 592 c 5
 636 592 l 1
 647 589 655 581 655 569 c 0
 655 566 655 563 654 561 c 2
 392 -8 l 2
 388 -16 381 -23 372 -23 c 0
 363 -23 355 -16 351 -8 c 2
EndSplineSet
Validated: 1
EndChar

StartChar: Yen
Encoding: 165 165 52
Width: 788
Flags: W
HStem: 0 36<246 341.928 447.179 544> 215 33<65.898 350 439 723.102> 423 33<65.898 238 365 487 551 723.102> 664 35<13 107.989 229.752 297 555 602.612 697.564 775>
VStem: 350 89<45.6092 215 248 280>
LayerCount: 2
Fore
SplineSet
78 215 m 2
 73 215 65 222 65 228 c 2
 65 234 l 2
 65 239 73 248 78 248 c 2
 350 248 l 1
 350 280 l 1
 259 423 l 1
 78 423 l 2
 73 423 65 430 65 436 c 2
 65 442 l 2
 65 447 73 456 78 456 c 2
 238 456 l 1
 126 630 l 1
 100 664 55 664 13 664 c 1
 13 699 l 1
 56 699 99 696 143 696 c 0
 194 696 246 699 297 699 c 1
 297 664 l 1
 280 664 228 664 228 640 c 0
 228 637 229 633 231 630 c 2
 343 456 l 1
 509 456 l 1
 602 601 l 2
 607 609 610 618 610 626 c 0
 610 655 578 664 555 664 c 1
 555 699 l 1
 595 699 636 696 677 696 c 0
 711 696 742 699 775 699 c 1
 775 664 l 1
 724 664 674 646 645 601 c 2
 551 456 l 1
 711 456 l 2
 716 456 724 447 724 442 c 2
 724 436 l 2
 724 430 716 423 711 423 c 2
 530 423 l 1
 439 280 l 1
 439 248 l 1
 711 248 l 2
 716 248 724 239 724 234 c 2
 724 228 l 2
 724 222 716 215 711 215 c 2
 439 215 l 1
 439 70 l 2
 439 36 513 36 544 36 c 1
 544 0 l 1
 494 0 444 3 394 3 c 0
 345 3 296 0 246 0 c 1
 246 36 l 1
 277 36 350 36 350 70 c 2
 350 215 l 1
 78 215 l 2
426 326 m 1
 487 423 l 1
 365 423 l 1
 426 326 l 1
EndSplineSet
Validated: 1
EndChar

StartChar: uniondbl
Encoding: 8914 8914 53
Width: 701
Flags: W
HStem: -23 45<230.873 468.685> 141 44<290.469 409.531>
VStem: 58 44<125.42 613.974> 222 44<210.261 613.974> 434 44<210.261 613.974> 598 44<124.852 613.974>
LayerCount: 2
Fore
SplineSet
58 196 m 2
 58 595 l 1
 60 605 69 614 81 614 c 0
 92 614 100 605 102 595 c 1
 102 200 l 2
 102 73 244 22 350 22 c 0
 455 22 598 73 598 199 c 2
 598 595 l 1
 600 605 609 614 621 614 c 0
 632 614 640 605 642 595 c 1
 642 195 l 2
 642 45 477 -23 350 -23 c 0
 222 -23 58 45 58 196 c 2
222 254 m 2
 222 595 l 1
 224 605 233 614 245 614 c 0
 256 614 264 605 266 595 c 1
 266 258 l 2
 266 213 308 185 350 185 c 0
 392 185 434 213 434 258 c 2
 434 595 l 1
 436 605 445 614 457 614 c 0
 468 614 476 605 478 595 c 1
 478 254 l 2
 478 186 412 141 350 141 c 0
 288 141 222 186 222 254 c 2
EndSplineSet
Validated: 1
EndChar

StartChar: rightanglene
Encoding: 9488 9488 54
Width: 525
Flags: W
HStem: 667 44<58.0073 423>
VStem: 423 44<302.029 667>
LayerCount: 2
Fore
SplineSet
423 323 m 1
 423 667 l 1
 79 667 l 1
 68 669 58 677 58 689 c 0
 58 700 68 709 79 711 c 1
 446 711 l 2
 457 711 465 700 467 691 c 1
 467 323 l 1
 465 312 456 302 444 302 c 0
 433 302 425 312 423 323 c 1
EndSplineSet
Validated: 1
EndChar

StartChar: ominus
Encoding: 8854 8854 55
Width: 799
VWidth: 1000
Flags: W
HStem: -92 28<312.644 485.337> 237 28<85 713> 565 28<311.92 485.913>
VStem: 57 28<165.358 237 265 335.843> 713 28<165.358 237 265 336.244>
LayerCount: 2
Fore
SplineSet
741 250 m 0
 741 63 588 -92 399 -92 c 0
 211 -92 57 60 57 251 c 0
 57 438 210 593 399 593 c 0
 587 593 741 441 741 250 c 0
85 265 m 1
 713 265 l 1
 703 438 562 565 399 565 c 0
 236 565 95 438 85 265 c 1
713 237 m 1
 85 237 l 1
 95 59 239 -64 399 -64 c 0
 558 -64 703 59 713 237 c 1
EndSplineSet
Validated: 1
EndChar

StartChar: clockwise
Encoding: 8635 8635 56
Width: 818
Flags: W
HStem: -96 33<313.763 504.151> 543 30<538.046 571.035> 574 33<385.376 424.977>
VStem: 58 33<160.678 352.509> 260 35<418 469.932> 726 33<160.678 354.05>
LayerCount: 2
Fore
SplineSet
409 -96 m 0
 215 -96 58 62 58 256 c 0
 58 403 154 540 294 588 c 1
 252 607 217 635 185 668 c 1
 220 677 l 1
 252 640 296 614 343 601 c 1
 363 605 385 607 408 607 c 0
 417 607 425 601 425 591 c 0
 425 583 419 574 411 574 c 0
 402 574 393 574 385 573 c 1
 338 534 305 478 295 418 c 1
 260 408 l 1
 268 457 287 502 316 542 c 1
 311 559 l 1
 181 517 91 392 91 256 c 0
 91 81 234 -63 409 -63 c 0
 584 -63 726 81 726 256 c 0
 726 377 656 491 546 543 c 0
 541 546 538 552 538 557 c 0
 538 566 545 573 554 573 c 0
 557 573 559 572 562 571 c 0
 682 514 759 388 759 256 c 0
 759 62 603 -96 409 -96 c 0
EndSplineSet
Validated: 1
EndChar

StartChar: dblarrowdwn
Encoding: 8650 8650 57
Width: 876
Flags: W
HStem: -199 21G<260 265.5 610.5 616> -32 33<75.0051 117.074 759.926 801.995> 691 20G<257.5 268 608 618.5>
VStem: 242 43<-110 710.974> 592 44<-110 710.974>
LayerCount: 2
Fore
SplineSet
83 -32 m 0
 79 -31 75 -27 75 -22 c 2
 75 -10 l 2
 75 -3 82 1 88 1 c 0
 89 1 90 1 92 1 c 0
 150 -22 203 -60 242 -110 c 1
 242 691 l 2
 242 702 252 711 263 711 c 0
 273 711 285 702 285 691 c 2
 285 -110 l 1
 323 -60 376 -22 434 1 c 1
 442 1 l 1
 501 -22 554 -60 592 -110 c 1
 592 691 l 2
 592 702 603 711 613 711 c 0
 624 711 636 702 636 691 c 2
 636 -110 l 1
 674 -60 726 -22 785 1 c 0
 787 1 788 1 790 1 c 0
 795 1 802 -3 802 -10 c 2
 802 -22 l 2
 802 -27 798 -31 794 -32 c 0
 719 -60 658 -117 626 -190 c 0
 624 -195 619 -199 613 -199 c 0
 608 -199 604 -195 602 -190 c 0
 570 -118 511 -62 438 -34 c 1
 365 -62 306 -118 275 -190 c 0
 273 -195 268 -199 263 -199 c 0
 257 -199 253 -195 251 -190 c 0
 219 -117 158 -60 83 -32 c 0
EndSplineSet
Validated: 1
EndChar

StartChar: curlyleft
Encoding: 8619 8619 58
Width: 1051
Flags: W
HStem: 233 45<148 654 698 909.51> 547 45<751.586 926.8>
VStem: 654 44<-44.9934 233 278 481.731> 971 45<336.15 502.997>
LayerCount: 2
Fore
SplineSet
216 85 m 1
 186 159 130 220 58 256 c 1
 130 291 186 352 216 426 c 1
 252 426 l 1
 229 370 193 319 148 278 c 1
 654 278 l 1
 654 418 655 592 835 592 c 0
 955 592 1016 533 1016 413 c 0
 1016 239 877 233 742 233 c 0
 727 233 712 233 698 233 c 1
 698 -25 l 1
 695 -36 688 -45 676 -45 c 0
 664 -45 656 -36 654 -25 c 1
 654 233 l 1
 148 233 l 1
 193 192 229 141 252 85 c 1
 216 85 l 1
698 278 m 1
 712 278 728 278 741 278 c 0
 852 278 971 278 971 413 c 0
 971 508 930 547 835 547 c 0
 762 547 723 520 708 447 c 0
 699 401 698 345 698 278 c 1
EndSplineSet
Validated: 1
EndChar

StartChar: geqq
Encoding: 8807 8807 59
Width: 818
Flags: W
HStem: -197 44<88.0073 728.993> 11 44<88.0073 728.993> 175 43<88.0715 102> 752 41<88.0728 99>
LayerCount: 2
Fore
SplineSet
109 -197 m 1
 98 -195 88 -186 88 -175 c 0
 88 -163 98 -155 109 -153 c 1
 710 -153 l 1
 720 -155 729 -163 729 -175 c 0
 729 -186 720 -195 710 -197 c 1
 109 -197 l 1
109 11 m 1
 98 13 88 22 88 33 c 0
 88 45 98 53 109 55 c 1
 710 55 l 1
 720 53 729 45 729 33 c 0
 729 22 720 13 710 11 c 1
 109 11 l 1
88 198 m 0
 88 207 94 214 102 218 c 2
 656 484 l 1
 99 752 l 2
 92 755 88 763 88 771 c 0
 88 782 99 793 111 793 c 0
 113 793 116 793 119 792 c 2
 719 503 l 2
 725 500 729 491 729 484 c 0
 729 474 723 467 716 464 c 2
 119 177 l 2
 116 175 113 175 111 175 c 0
 99 175 88 186 88 198 c 0
EndSplineSet
Validated: 1
EndChar

StartChar: arrowtripleleft
Encoding: 8666 8666 60
Width: 1051
Flags: W
HStem: 26 44<386 992.993> 233 45<185 992.993> 441 44<386 992.974>
CounterMasks: 1 e0
LayerCount: 2
Fore
SplineSet
404 -123 m 1
 347 38 231 174 81 256 c 1
 231 337 347 473 404 634 c 1
 458 634 l 1
 440 582 415 531 386 485 c 1
 974 485 l 1
 984 483 993 475 993 464 c 0
 993 452 984 443 974 441 c 1
 355 441 l 1
 308 378 250 323 185 278 c 1
 972 278 l 2
 984 278 993 268 993 256 c 0
 993 243 984 233 972 233 c 2
 185 233 l 1
 250 188 308 133 355 70 c 1
 974 70 l 1
 984 68 993 59 993 48 c 0
 993 36 984 28 974 26 c 1
 386 26 l 1
 415 -20 440 -71 458 -123 c 1
 404 -123 l 1
EndSplineSet
Validated: 1
EndChar

StartChar: uprise
Encoding: 8911 8911 61
Width: 806
Flags: W
HStem: -23 45<88.0087 180.33 625.67 717.991>
VStem: 381 44<365.723 591.993>
LayerCount: 2
Fore
SplineSet
88 -1 m 0
 88 11 97 20 108 22 c 0
 351 47 381 383 381 572 c 1
 383 582 391 592 403 592 c 0
 414 592 423 582 425 572 c 1
 425 383 455 47 698 22 c 0
 709 20 718 11 718 -1 c 0
 718 -14 706 -23 694 -23 c 1
 514 -5 435 160 403 319 c 1
 370 160 292 -5 112 -23 c 1
 100 -23 88 -14 88 -1 c 0
EndSplineSet
Validated: 1
EndChar

StartChar: circleS
Encoding: 9416 9416 62
Width: 937
Flags: W
HStem: -181 44<344.159 593.841> -14 31<408.513 543.61> 524 29<393.365 512.76> 698 44<344.159 593.841>
VStem: 7 44<155.974 405.755> 287 56<368.022 476.37> 287 32<98.2583 177.986> 595 56<66.9981 188.642> 596 33<360.017 437.549> 887 44<155.974 405.755>
LayerCount: 2
Fore
SplineSet
7 281 m 0xf840
 7 535 215 742 469 742 c 0
 723 742 931 535 931 281 c 0
 931 27 723 -181 469 -181 c 0
 215 -181 7 27 7 281 c 0xf840
51 281 m 0
 51 51 240 -137 469 -137 c 0
 698 -137 887 51 887 281 c 0
 887 510 698 698 469 698 c 0
 240 698 51 510 51 281 c 0
287 -5 m 2xfb40
 287 169 l 2
 287 173 293 178 297 178 c 2
 309 178 l 2
 313 178 319 173 319 169 c 0
 319 66 396 17 492 17 c 0
 550 17 595 68 595 124 c 0xfb40
 595 173 561 217 514 228 c 2
 407 253 l 2
 339 269 287 330 287 400 c 0
 287 486 362 553 446 553 c 0
 493 553 539 538 573 504 c 1
 606 549 l 2
 608 552 612 553 616 553 c 0
 620 553 629 550 629 544 c 2
 629 370 l 2
 629 366 622 360 618 360 c 2
 606 360 l 2
 602 360 596 366 596 370 c 0
 596 408 575 458 548 486 c 1
 520 513 483 524 446 524 c 0
 392 524 343 482 343 427 c 0xfcc0
 343 381 378 343 422 333 c 2
 528 307 l 1
 601 291 651 222 651 148 c 0
 651 61 581 -14 492 -14 c 0
 439 -14 383 -1 342 35 c 1
 309 -10 l 2
 307 -13 303 -14 299 -14 c 0
 295 -14 287 -11 287 -5 c 2xfb40
EndSplineSet
Validated: 1
EndChar

StartChar: harpoonleftright
Encoding: 8651 8651 63
Width: 1051
Flags: W
HStem: 130 44<58.0073 897> 152 22<973.205 993> 338 44<155 992.974> 338 21<58 74.5773>
LayerCount: 2
Fore
SplineSet
81 130 m 2x80
 68 130 58 140 58 152 c 0x40
 58 164 68 174 81 174 c 2x80
 993 174 l 1
 993 152 l 1x40
 921 117 866 56 836 -19 c 1
 800 -19 l 1
 817 38 851 90 897 130 c 1
 81 130 l 2x80
58 338 m 1x10
 58 359 l 1x10
 130 394 186 455 216 530 c 1
 252 530 l 1
 235 473 201 421 155 382 c 1
 972 382 l 2x20
 984 382 993 371 993 359 c 0x10
 993 347 984 338 972 338 c 2x20
 58 338 l 1x10
EndSplineSet
Validated: 1
EndChar

StartChar: harpoondownright
Encoding: 8642 8642 64
Width: 438
Flags: W
HStem: -199 21G<197 236> -25 20G<360.5 389> 691 20G<212.5 225>
VStem: 197 44<-102 710.993> 197 22<-199 -179.18>
LayerCount: 2
Fore
SplineSet
197 -199 m 1xe8
 197 689 l 2xf0
 197 701 206 711 219 711 c 0xe8
 231 711 241 701 241 689 c 2
 241 -102 l 1xf0
 281 -56 332 -22 389 -5 c 1
 389 -41 l 1
 315 -71 253 -127 219 -199 c 1
 197 -199 l 1xe8
EndSplineSet
Validated: 1
EndChar

StartChar: greaterorless
Encoding: 8823 8823 65
Width: 818
Flags: W
HStem: -278 44<716 728.967> 164 43<88.0146 102> 234 42<716 728.993> 676 42<88.0329 102>
LayerCount: 2
Fore
SplineSet
102 -20 m 2
 93 -17 88 -9 88 0 c 0
 88 8 93 16 102 20 c 2
 699 275 l 2
 701 276 705 276 708 276 c 0
 719 276 729 266 729 255 c 0
 729 246 724 237 716 234 c 2
 166 0 l 1
 716 -234 l 2
 724 -238 729 -247 729 -255 c 0
 729 -267 719 -278 708 -278 c 0
 705 -278 701 -277 699 -275 c 1
 102 -20 l 2
88 186 m 0
 88 194 93 203 102 207 c 2
 651 441 l 1
 102 676 l 2
 93 679 88 687 88 696 c 0
 88 707 99 718 111 718 c 0
 113 718 116 718 119 717 c 2
 716 462 l 2
 724 458 729 449 729 441 c 0
 729 432 724 424 716 421 c 2
 119 166 l 2
 116 164 113 164 111 164 c 0
 99 164 88 174 88 186 c 0
EndSplineSet
Validated: 1
EndChar

StartChar: leftarrow
Encoding: 8592 8592 66
Width: 1027
VWidth: 1000
Flags: W
HStem: 229 43<147 969.985>
VStem: 225 31<71.0174 112.002>
LayerCount: 2
Fore
SplineSet
935 229 m 2
 147 229 l 1
 226 171 256 93 256 84 c 0
 256 75 248 71 241 71 c 0
 231 71 227 77 225 82 c 0
 211 112 176 191 80 233 c 0
 60 241 57 242 57 251 c 0
 57 259 62 261 76 267 c 0
 151 299 196 356 220 408 c 0
 229 426 230 430 241 430 c 0
 248 430 256 426 256 417 c 0
 256 408 226 330 147 272 c 1
 935 272 l 2
 951 272 970 272 970 250 c 0
 970 229 950 229 935 229 c 2
EndSplineSet
Validated: 1
EndChar

StartChar: xor
Encoding: 8891 8891 67
Width: 643
Flags: W
HStem: 0 44<58.029 583.971>
VStem: 58 41<723 732.816> 543 41<723 732.928>
LayerCount: 2
Fore
SplineSet
79 0 m 1
 68 2 58 11 58 23 c 0
 58 34 68 42 79 44 c 1
 564 44 l 1
 574 42 584 34 584 23 c 0
 584 11 574 2 564 0 c 1
 79 0 l 1
303 219 m 2
 60 703 l 2
 58 705 58 709 58 712 c 0
 58 723 69 733 81 733 c 0
 88 733 96 729 99 723 c 2
 322 280 l 1
 543 723 l 2
 546 729 554 733 562 733 c 0
 573 733 584 723 584 712 c 0
 584 709 584 705 583 703 c 2
 341 219 l 2
 337 212 329 208 322 208 c 0
 315 208 306 212 303 219 c 2
EndSplineSet
Validated: 1
EndChar

StartChar: multiopenleft
Encoding: 8907 8907 68
Width: 818
Flags: W
HStem: 691 20G<75 83.5>
LayerCount: 2
Fore
SplineSet
81 -23 m 0
 69 -23 58 -12 58 -1 c 0
 58 5 61 10 65 15 c 2
 378 344 l 1
 65 674 l 2
 61 678 58 683 58 689 c 0
 58 700 69 711 81 711 c 0
 86 711 92 709 96 705 c 2
 753 15 l 2
 757 10 759 5 759 -1 c 0
 759 -12 748 -23 736 -23 c 0
 731 -23 725 -20 721 -16 c 2
 409 312 l 1
 96 -16 l 2
 92 -20 86 -23 81 -23 c 0
EndSplineSet
Validated: 1
EndChar

StartChar: revsimilar
Encoding: 8765 8765 69
Width: 818
Flags: W
HStem: 131 62<161.778 311.649> 319 62<505.351 655.222>
VStem: 58 31<284.295 380.986> 728 31<131.014 227.705>
LayerCount: 2
Fore
SplineSet
233 131 m 0
 121 131 58 246 58 346 c 2
 58 354 l 1
 59 362 63 381 74 381 c 0
 85 381 88 362 89 354 c 1
 89 272 146 193 233 193 c 0
 372 193 438 381 584 381 c 0
 696 381 759 266 759 166 c 2
 759 158 l 1
 758 150 754 131 743 131 c 0
 732 131 729 150 728 158 c 1
 728 240 671 319 584 319 c 0
 445 319 379 131 233 131 c 0
EndSplineSet
Validated: 1
EndChar

StartChar: squareminus
Encoding: 8863 8863 70
Width: 818
Flags: W
HStem: 0 44<102 715> 340 44<102 715> 679 44<102 715>
VStem: 58 44<44 340 384 679> 715 44<44 340 384 679>
LayerCount: 2
Fore
SplineSet
58 20 m 1
 58 703 l 2
 58 713 69 721 79 723 c 1
 739 723 l 2
 749 723 757 712 759 703 c 1
 759 20 l 2
 759 9 748 2 739 0 c 1
 79 0 l 2
 68 0 60 10 58 20 c 1
102 44 m 1
 715 44 l 1
 715 340 l 1
 102 340 l 1
 102 44 l 1
102 384 m 1
 715 384 l 1
 715 679 l 1
 102 679 l 1
 102 384 l 1
EndSplineSet
Validated: 1
EndChar

StartChar: harpoondownleft
Encoding: 8643 8643 71
Width: 438
Flags: W
HStem: -199 21G<202.5 242> -25 20G<49 77.5> 691 20G<213.5 226>
VStem: 198 44<-102 710.993> 220 22<-199 -179.18>
LayerCount: 2
Fore
SplineSet
49 -41 m 1xe8
 49 -5 l 1
 106 -22 158 -56 198 -102 c 1
 198 689 l 2xf0
 198 701 207 711 220 711 c 0xe8
 232 711 242 701 242 689 c 2xf0
 242 -199 l 1
 220 -199 l 1
 185 -127 123 -71 49 -41 c 1xe8
EndSplineSet
Validated: 1
EndChar

StartChar: greaterorsimilar
Encoding: 8819 8819 72
Width: 818
Flags: W
HStem: -252 62<505.351 657.272> -65 62<160.161 311.649> 153 43<88.0175 102> 729 41<88.0117 99>
VStem: 58 31<-251.986 -155.402> 728 31<-99.5977 -3.01308>
LayerCount: 2
Fore
SplineSet
74 -252 m 0
 63 -252 59 -233 58 -225 c 1
 58 -217 l 2
 58 -117 122 -3 233 -3 c 0
 379 -3 445 -190 584 -190 c 0
 671 -190 728 -112 728 -30 c 1
 729 -21 732 -3 743 -3 c 0
 754 -3 758 -21 759 -30 c 1
 759 -38 l 2
 759 -138 696 -252 584 -252 c 0
 438 -252 372 -65 233 -65 c 0
 147 -65 89 -143 89 -225 c 1
 88 -233 85 -252 74 -252 c 0
88 175 m 0
 88 184 94 192 102 196 c 2
 656 462 l 1
 99 729 l 2
 92 732 88 741 88 749 c 0
 88 760 99 770 111 770 c 0
 113 770 116 770 119 769 c 2
 719 480 l 2
 725 477 729 469 729 462 c 0
 729 452 723 444 716 441 c 2
 119 155 l 2
 116 153 113 153 111 153 c 0
 99 153 88 163 88 175 c 0
EndSplineSet
Validated: 1
EndChar

StartChar: squareoriginal
Encoding: 8848 8848 73
Width: 818
Flags: W
HStem: -53 44<67.0233 708> 520 44<67.0233 708>
VStem: 708 44<-9 520>
LayerCount: 2
Fore
SplineSet
86 -53 m 1
 75 -51 67 -43 67 -32 c 0
 67 -20 75 -11 86 -9 c 1
 708 -9 l 1
 708 520 l 1
 86 520 l 1
 75 522 67 531 67 543 c 0
 67 554 75 562 86 564 c 1
 731 564 l 2
 742 564 749 554 752 545 c 1
 752 -34 l 2
 752 -44 740 -51 731 -53 c 1
 86 -53 l 1
EndSplineSet
Validated: 1
EndChar

StartChar: trianglesolid
Encoding: 9650 9650 74
Width: 743
Flags: W
LayerCount: 2
Fore
SplineSet
108 -23 m 1
 97 -20 88 -12 88 0 c 0
 88 3 88 6 89 8 c 2
 351 578 l 2
 355 586 363 592 372 592 c 0
 381 592 388 586 392 578 c 2
 654 8 l 2
 655 6 655 3 655 0 c 0
 655 -12 647 -20 636 -23 c 1
 108 -23 l 1
EndSplineSet
Validated: 1
EndChar

StartChar: subseteq
Encoding: 8838 8838 75
Width: 799
VWidth: 1000
Flags: W
HStem: -154 43<108.015 711.985> 49 43<293.577 711.985> 609 43<293.953 711.985>
VStem: 86 43<250.794 450.301>
LayerCount: 2
Fore
SplineSet
677 609 m 2
 401 609 l 2
 248 609 129 494 129 350 c 0
 129 210 246 92 401 92 c 2
 677 92 l 2
 693 92 712 92 712 70 c 0
 712 49 691 49 677 49 c 2
 397 49 l 2
 234 49 86 176 86 351 c 0
 86 522 232 652 397 652 c 2
 677 652 l 2
 693 652 712 652 712 630 c 0
 712 609 691 609 677 609 c 2
142 -111 m 2
 677 -111 l 2
 693 -111 712 -111 712 -133 c 0
 712 -154 691 -154 677 -154 c 2
 142 -154 l 2
 128 -154 108 -154 108 -132 c 0
 108 -111 129 -111 142 -111 c 2
EndSplineSet
Validated: 1
EndChar

StartChar: rightanglesw
Encoding: 9492 9492 76
Width: 525
Flags: W
HStem: -23 45<102 466.993>
VStem: 58 44<22 385.974>
LayerCount: 2
Fore
SplineSet
79 -23 m 2
 68 -23 60 -12 58 -3 c 1
 58 366 l 1
 60 377 69 386 81 386 c 0
 92 386 100 377 102 366 c 1
 102 22 l 1
 446 22 l 1
 457 20 467 11 467 -1 c 0
 467 -12 457 -21 446 -23 c 1
 79 -23 l 2
EndSplineSet
Validated: 1
EndChar

StartChar: squaredot
Encoding: 8865 8865 77
Width: 818
Flags: W
HStem: 0 44<102 715> 305 115<365.255 453.829> 679 44<102 715>
VStem: 58 44<44 679> 352 115<316.997 407.311> 715 44<44 679>
LayerCount: 2
Fore
SplineSet
58 20 m 1
 58 703 l 2
 58 713 69 721 79 723 c 1
 739 723 l 2
 749 723 757 712 759 703 c 1
 759 20 l 2
 759 9 748 2 739 0 c 1
 79 0 l 2
 68 0 60 10 58 20 c 1
102 44 m 1
 715 44 l 1
 715 679 l 1
 102 679 l 1
 102 44 l 1
352 362 m 0
 352 393 378 420 410 420 c 0
 441 420 467 393 467 362 c 0
 467 330 441 305 410 305 c 0
 378 305 352 330 352 362 c 0
EndSplineSet
Validated: 1
EndChar

StartChar: forcesbar
Encoding: 8874 8874 78
Width: 934
Flags: W
HStem: 0 21G<75 86.5 269 280.5 464 475.5> 334 44<492 876.993> 691 20G<75 86.5 269 280.5 464 475.5>
VStem: 58 44<0.0261536 710.971> 253 44<0.00656509 710.993> 447 45<0.00656509 334 378 710.993>
LayerCount: 2
Fore
SplineSet
58 20 m 1
 58 691 l 1
 60 701 69 711 81 711 c 0
 92 711 100 701 102 691 c 1
 102 20 l 1
 100 9 92 0 81 0 c 0
 69 0 60 9 58 20 c 1
253 20 m 1
 253 691 l 1
 255 701 263 711 275 711 c 0
 286 711 295 701 297 691 c 1
 297 20 l 1
 295 9 286 0 275 0 c 0
 263 0 255 9 253 20 c 1
447 20 m 1
 447 691 l 1
 449 701 458 711 470 711 c 0
 481 711 490 701 492 691 c 1
 492 378 l 1
 857 378 l 1
 867 376 877 367 877 356 c 0
 877 344 867 336 857 334 c 1
 492 334 l 1
 492 20 l 1
 490 9 481 0 470 0 c 0
 458 0 449 9 447 20 c 1
EndSplineSet
Validated: 1
EndChar

StartChar: arrowtailleft
Encoding: 8610 8610 79
Width: 1169
Flags: W
HStem: 233 45<148 966.606>
LayerCount: 2
Fore
SplineSet
216 85 m 1
 186 159 130 220 58 256 c 1
 130 291 186 352 216 426 c 1
 252 426 l 1
 229 370 193 319 148 278 c 1
 938 278 l 1
 991 314 1033 366 1057 426 c 1
 1093 426 l 1
 1070 370 1035 319 989 278 c 1
 989 233 l 1
 1035 192 1070 141 1093 85 c 1
 1057 85 l 1
 1033 145 991 197 938 233 c 1
 148 233 l 1
 193 192 229 141 252 85 c 1
 216 85 l 1
EndSplineSet
Validated: 1
EndChar

StartChar: multimap
Encoding: 8888 8888 80
Width: 1169
Flags: W
HStem: 87 44<873.803 1010.52> 233 45<58.0073 777.888> 380 44<873.803 1010.52>
VStem: 774 43<189.084 233 278 322.178> 1066 44<186.795 324.525>
CounterMasks: 1 e0
LayerCount: 2
Fore
SplineSet
79 233 m 1
 68 235 58 244 58 256 c 0
 58 267 68 276 79 278 c 1
 774 278 l 1
 786 361 858 424 942 424 c 0
 1033 424 1110 347 1110 256 c 0
 1110 164 1033 87 942 87 c 0
 858 87 786 150 774 233 c 1
 79 233 l 1
942 131 m 0
 1009 131 1066 188 1066 256 c 0
 1066 323 1009 380 942 380 c 0
 874 380 817 323 817 256 c 0
 817 188 874 131 942 131 c 0
EndSplineSet
Validated: 1
EndChar

StartChar: leq
Encoding: 8804 8804 81
Width: 799
VWidth: 1000
Flags: W
HStem: -154 43<86.0153 711.985> 49 43<694 711.995> 607 45<692 711.991>
LayerCount: 2
Fore
SplineSet
692 607 m 2
 157 351 l 1
 694 92 l 2
 705 87 712 83 712 70 c 0
 712 61 705 49 690 49 c 0
 687 49 685 49 672 56 c 2
 104 329 l 2
 94 334 86 338 86 350 c 0
 86 360 90 366 106 374 c 2
 674 646 l 2
 685 652 687 652 691 652 c 0
 700 652 712 645 712 630 c 0
 712 617 702 612 692 607 c 2
677 -154 m 2
 121 -154 l 2
 107 -154 86 -154 86 -133 c 0
 86 -111 106 -111 121 -111 c 2
 677 -111 l 2
 692 -111 712 -111 712 -133 c 0
 712 -154 691 -154 677 -154 c 2
EndSplineSet
Validated: 1
EndChar

StartChar: triangleleft
Encoding: 8883 8883 82
Width: 818
Flags: W
VStem: 685 44<4 507>
LayerCount: 2
Fore
SplineSet
102 236 m 2
 94 239 89 246 89 256 c 0
 89 263 92 271 99 274 c 2
 699 563 l 2
 701 564 705 564 708 564 c 0
 719 564 727 555 729 545 c 1
 729 -34 l 1
 727 -44 719 -53 708 -53 c 0
 705 -53 701 -53 699 -52 c 2
 102 236 l 2
162 256 m 1
 685 4 l 1
 685 507 l 1
 162 256 l 1
EndSplineSet
Validated: 1
EndChar

StartChar: ringinequal
Encoding: 8790 8790 83
Width: 818
Flags: W
HStem: 130 44<58.0073 326 339.963 477.742 492 758.993> 338 44<58.029 326 341.023 476.704 492 758.971>
VStem: 292 25<210.781 300.472> 500 25<210.089 301.163>
LayerCount: 2
Fore
SplineSet
79 130 m 1
 68 132 58 140 58 152 c 0
 58 164 68 171 79 174 c 1
 326 174 l 1
 304 196 292 225 292 256 c 0
 292 286 304 315 326 338 c 1
 79 338 l 1
 68 340 58 347 58 359 c 0
 58 371 68 379 79 382 c 1
 739 382 l 1
 749 379 759 371 759 359 c 0
 759 347 749 340 739 338 c 1
 492 338 l 1
 514 315 525 286 525 256 c 0
 525 225 514 196 492 174 c 1
 739 174 l 1
 749 171 759 164 759 152 c 0
 759 140 749 132 739 130 c 1
 79 130 l 1
369 174 m 1
 449 174 l 1
 480 188 500 221 500 256 c 0
 500 290 480 323 449 338 c 1
 369 338 l 1
 338 323 317 290 317 256 c 0
 317 221 338 188 369 174 c 1
EndSplineSet
Validated: 1
EndChar

StartChar: sphericalangle
Encoding: 8738 8738 84
Width: 759
Flags: W
HStem: -54 42<687 699.993> 524 41<690 699.988>
VStem: 555 44<113.335 397.617>
LayerCount: 2
Fore
SplineSet
73 236 m 2
 65 239 58 246 58 256 c 0
 58 263 63 271 70 274 c 2
 671 564 l 2
 673 565 676 565 679 565 c 0
 690 565 700 556 700 544 c 0
 700 537 696 527 690 524 c 2
 557 461 l 1
 585 396 599 326 599 256 c 0
 599 185 585 115 557 50 c 1
 687 -12 l 2
 694 -16 700 -24 700 -33 c 0
 700 -44 690 -54 679 -54 c 0
 676 -54 673 -54 671 -53 c 2
 73 236 l 2
131 256 m 1
 517 70 l 1
 543 128 555 191 555 256 c 0
 555 319 543 383 517 441 c 1
 131 256 l 1
EndSplineSet
Validated: 1
EndChar

StartChar: sim
Encoding: 8764 8764 85
Width: 799
VWidth: 1000
Flags: W
HStem: 128 80<489.131 642.562> 292 80<155.438 308.869>
VStem: 57 34<128.018 220.296> 707 34<280.305 371.982>
LayerCount: 2
Fore
SplineSet
74 128 m 0
 61 128 57 152 57 162 c 2
 57 175 l 2
 57 272 123 372 228 372 c 0
 366 372 438 208 570 208 c 0
 640 208 707 266 707 339 c 0
 707 347 712 372 724 372 c 0
 737 372 741 348 741 339 c 2
 741 326 l 2
 741 228 675 128 570 128 c 0
 432 128 360 292 228 292 c 0
 158 292 91 234 91 162 c 0
 91 153 86 128 74 128 c 0
EndSplineSet
Validated: 1
EndChar

StartChar: squaremultiply
Encoding: 8864 8864 86
Width: 818
Flags: W
HStem: 0 44<132 685> 679 44<132 685>
VStem: 58 44<77 646> 715 44<77 646>
LayerCount: 2
Fore
SplineSet
58 20 m 1
 58 703 l 2
 58 713 69 721 79 723 c 1
 739 723 l 2
 749 723 757 712 759 703 c 1
 759 20 l 2
 759 9 748 2 739 0 c 1
 79 0 l 2
 68 0 60 10 58 20 c 1
132 44 m 1
 685 44 l 1
 409 330 l 1
 132 44 l 1
102 77 m 1
 378 361 l 1
 102 646 l 1
 102 77 l 1
715 77 m 1
 715 646 l 1
 439 361 l 1
 715 77 l 1
409 393 m 1
 685 679 l 1
 132 679 l 1
 409 393 l 1
EndSplineSet
Validated: 1
EndChar

StartChar: dblarrowheadright
Encoding: 8608 8608 87
Width: 1051
Flags: W
HStem: 233 45<58.0073 710 733.387 903>
LayerCount: 2
Fore
SplineSet
81 233 m 2
 68 233 58 243 58 256 c 0
 58 268 68 278 81 278 c 2
 710 278 l 1
 665 319 629 370 606 426 c 1
 642 426 l 1
 667 366 709 314 762 278 c 1
 903 278 l 1
 858 319 823 370 800 426 c 1
 836 426 l 1
 866 352 921 291 993 256 c 1
 921 220 866 159 836 85 c 1
 800 85 l 1
 823 141 858 192 903 233 c 1
 762 233 l 1
 709 197 667 145 642 85 c 1
 606 85 l 1
 629 141 665 192 710 233 c 1
 81 233 l 2
EndSplineSet
Validated: 1
EndChar

StartChar: arrowparrrightleft
Encoding: 8644 8644 88
Width: 1051
Flags: W
HStem: -1 21G<201 252> 148 45<148 992.993> 489 45<58.0073 903>
LayerCount: 2
Fore
SplineSet
216 -1 m 1
 186 74 130 135 58 170 c 1
 130 205 186 266 216 341 c 1
 252 341 l 1
 229 284 193 233 148 193 c 1
 972 193 l 2
 984 193 993 182 993 170 c 0
 993 158 984 148 972 148 c 2
 148 148 l 1
 193 107 229 56 252 -1 c 1
 216 -1 l 1
81 489 m 2
 68 489 58 500 58 512 c 0
 58 524 68 534 81 534 c 2
 903 534 l 1
 858 575 823 626 800 682 c 1
 836 682 l 1
 866 608 921 547 993 512 c 1
 921 477 866 416 836 341 c 1
 800 341 l 1
 823 398 858 449 903 489 c 1
 81 489 l 2
EndSplineSet
Validated: 1
EndChar

StartChar: equalsdots
Encoding: 8785 8785 89
Width: 818
Flags: W
HStem: -119 125<361.63 455.8> 130 44<58.0073 758.993> 338 44<58.029 758.971> 505 125<361.63 455.8>
VStem: 346 125<-103.37 -9.20026 520.2 614.37>
LayerCount: 2
Fore
SplineSet
346 -56 m 0
 346 -22 375 6 409 6 c 0
 443 6 471 -22 471 -56 c 0
 471 -90 443 -119 409 -119 c 0
 375 -119 346 -90 346 -56 c 0
79 130 m 1
 68 132 58 140 58 152 c 0
 58 164 68 171 79 174 c 1
 739 174 l 1
 749 171 759 164 759 152 c 0
 759 140 749 132 739 130 c 1
 79 130 l 1
79 338 m 1
 68 340 58 347 58 359 c 0
 58 371 68 379 79 382 c 1
 739 382 l 1
 749 379 759 371 759 359 c 0
 759 347 749 340 739 338 c 1
 79 338 l 1
346 567 m 0
 346 601 375 630 409 630 c 0
 443 630 471 601 471 567 c 0
 471 533 443 505 409 505 c 0
 375 505 346 533 346 567 c 0
EndSplineSet
Validated: 1
EndChar

StartChar: primereverse
Encoding: 8245 8245 90
Width: 285
Flags: W
VStem: 12 242
LayerCount: 2
Fore
SplineSet
204 48 m 2
 17 493 l 2
 14 501 12 508 12 517 c 0
 12 549 42 572 73 572 c 0
 100 572 120 554 127 529 c 2
 254 67 l 1
 254 62 251 55 247 53 c 2
 217 43 l 2
 216 43 215 43 214 43 c 0
 210 43 206 45 204 48 c 2
EndSplineSet
Validated: 1
EndChar

StartChar: triangleleftequal
Encoding: 8884 8884 91
Width: 818
Flags: W
HStem: -158 44<89.0066 728.993> 648 20G<706.5 713.5>
VStem: 685 44<108 610>
LayerCount: 2
Fore
SplineSet
109 -158 m 1
 98 -156 89 -147 89 -136 c 0
 89 -124 98 -116 109 -114 c 1
 710 -114 l 1
 720 -116 729 -124 729 -136 c 0
 729 -147 720 -156 710 -158 c 1
 109 -158 l 1
102 339 m 2
 94 342 89 349 89 359 c 0
 89 366 92 375 99 378 c 2
 699 667 l 2
 701 668 705 668 708 668 c 0
 719 668 727 658 729 648 c 1
 729 70 l 1
 727 60 719 50 708 50 c 0
 705 50 701 50 699 51 c 2
 102 339 l 2
162 359 m 1
 685 108 l 1
 685 610 l 1
 162 359 l 1
EndSplineSet
Validated: 1
EndChar

StartChar: greaterlessequal
Encoding: 8923 8923 92
Width: 796
Flags: W
HStem: 232 44<88.029 707.971>
LayerCount: 2
Fore
SplineSet
102 -59 m 2
 93 -57 88 -47 88 -38 c 0
 88 -29 93 -21 102 -18 c 2
 679 138 l 2
 681 139 683 139 685 139 c 0
 697 139 708 128 708 117 c 0
 708 108 701 99 693 97 c 2
 171 -38 l 1
 693 -172 l 2
 701 -176 708 -184 708 -192 c 0
 708 -204 697 -215 685 -215 c 0
 682 -215 680 -215 677 -213 c 2
 102 -59 l 2
109 232 m 1
 98 234 88 243 88 255 c 0
 88 266 98 274 109 276 c 1
 687 276 l 1
 698 274 708 266 708 255 c 0
 708 243 698 234 687 232 c 1
 109 232 l 1
88 393 m 0
 88 402 93 411 102 413 c 2
 625 548 l 1
 102 683 l 2
 93 686 88 694 88 703 c 0
 88 714 99 725 111 725 c 0
 113 725 116 725 119 724 c 2
 693 569 l 2
 701 567 708 557 708 548 c 0
 708 539 701 531 693 528 c 2
 117 372 l 2
 115 371 113 371 111 371 c 0
 99 371 88 382 88 393 c 0
EndSplineSet
EndChar

StartChar: frown
Encoding: 8994 8994 93
Width: 818
Flags: W
HStem: 344 44<300.626 517.2>
VStem: 58 42<124.105 167.423> 717 42<124.026 167.423>
LayerCount: 2
Fore
SplineSet
58 145 m 0
 58 150 60 154 62 158 c 0
 128 289 259 388 409 388 c 0
 559 388 689 289 755 158 c 0
 757 154 759 150 759 145 c 0
 759 133 748 124 737 124 c 0
 728 124 721 128 717 135 c 0
 659 253 544 344 409 344 c 0
 274 344 158 253 100 135 c 0
 96 128 89 124 81 124 c 0
 69 124 58 133 58 145 c 0
EndSplineSet
Validated: 1
EndChar

StartChar: lless
Encoding: 8810 8810 94
Width: 1027
VWidth: 1000
Flags: W
LayerCount: 2
Fore
SplineSet
637 536 m 2
 123 250 l 1
 639 -36 l 2
 651 -42 657 -46 657 -58 c 0
 657 -67 651 -79 636 -79 c 0
 629 -79 620 -75 617 -73 c 2
 74 228 l 2
 65 233 57 239 57 250 c 0
 57 263 63 266 77 274 c 2
 618 574 l 2
 623 577 630 580 636 580 c 0
 645 580 657 572 657 559 c 0
 657 547 652 544 637 536 c 2
950 536 m 2
 436 250 l 1
 952 -36 l 2
 964 -42 970 -46 970 -58 c 0
 970 -67 964 -79 949 -79 c 0
 942 -79 933 -75 930 -73 c 2
 387 228 l 2
 378 233 370 239 370 250 c 0
 370 263 376 266 390 274 c 2
 931 574 l 2
 936 577 943 580 949 580 c 0
 958 580 970 572 970 559 c 0
 970 547 965 544 950 536 c 2
EndSplineSet
Validated: 1
EndChar

StartChar: intercal
Encoding: 8890 8890 95
Width: 584
Flags: W
HStem: 353 88<64.2366 248 336 518.763>
VStem: 248 88<-212.237 353>
LayerCount: 2
Fore
SplineSet
248 -177 m 1
 248 353 l 1
 100 353 l 1
 76 356 61 371 58 395 c 1
 58 400 l 1
 61 423 76 438 100 441 c 1
 483 441 l 1
 507 438 522 423 525 400 c 1
 525 395 l 1
 522 371 507 356 483 353 c 1
 336 353 l 1
 336 -177 l 1
 333 -200 318 -216 295 -218 c 1
 290 -218 l 1
 266 -216 251 -201 248 -177 c 1
EndSplineSet
Validated: 1
EndChar

StartChar: squaresolid
Encoding: 9632 9632 96
Width: 818
Flags: W
HStem: 0 723<58.0981 758.902>
VStem: 58 701<0.0974083 722.902>
LayerCount: 2
Fore
SplineSet
58 20 m 1
 58 703 l 2
 58 713 69 721 79 723 c 1
 739 723 l 2
 749 723 757 712 759 703 c 1
 759 20 l 2
 759 9 748 2 739 0 c 1
 79 0 l 2
 68 0 60 10 58 20 c 1
EndSplineSet
Validated: 1
EndChar

StartChar: Leftrightarrow
Encoding: 8660 8660 97
Width: 1027
VWidth: 1000
Flags: W
HStem: 127 43<269 758> 331 43<269 758>
VStem: 312 42<484.907 531> 673 42<-30 16.0935>
LayerCount: 2
Fore
SplineSet
269 374 m 1
 758 374 l 1
 703 439 673 510 673 518 c 0
 673 531 683 531 694 531 c 0
 710 531 711 530 720 510 c 0
 770 398 856 314 979 264 c 0
 986 261 992 259 992 250 c 0
 992 245 989 241 983 238 c 0
 844 182 768 98 715 -22 c 0
 711 -30 705 -30 694 -30 c 0
 683 -30 673 -30 673 -17 c 0
 673 -8 703 62 758 127 c 1
 269 127 l 1
 324 62 354 -9 354 -17 c 0
 354 -30 344 -30 333 -30 c 0
 317 -30 316 -29 307 -9 c 0
 257 103 171 187 48 237 c 0
 41 240 35 242 35 251 c 0
 35 256 38 260 44 263 c 0
 183 319 259 403 312 523 c 0
 316 531 322 531 333 531 c 0
 344 531 354 531 354 518 c 0
 354 509 324 439 269 374 c 1
228 170 m 1
 799 170 l 1
 820 190 855 220 910 251 c 1
 860 277 823 308 799 331 c 1
 228 331 l 1
 207 311 172 281 117 250 c 1
 167 224 204 193 228 170 c 1
EndSplineSet
Validated: 1
EndChar

StartChar: northeastarrow
Encoding: 8599 8599 98
Width: 1027
VWidth: 1000
Flags: W
HStem: 640 30<752.532 888.572>
VStem: 916 30<476.607 612.572>
LayerCount: 2
Fore
SplineSet
920 613 m 1
 100 -206 l 2
 89 -217 87 -219 79 -219 c 0
 66 -219 57 -210 57 -197 c 0
 57 -189 59 -187 70 -176 c 2
 889 644 l 1
 876 642 861 640 841 640 c 0
 789 640 704 660 704 679 c 0
 704 687 713 696 721 696 c 0
 723 696 725 696 741 689 c 0
 788 670 839 670 842 670 c 0
 845 670 895 670 943 689 c 0
 951 692 954 694 957 694 c 0
 964 694 970 688 970 681 c 0
 970 678 968 675 965 667 c 0
 946 619 946 569 946 566 c 0
 946 558 946 511 967 459 c 0
 972 449 972 447 972 445 c 0
 972 437 963 428 955 428 c 0
 936 428 916 514 916 565 c 0
 916 585 918 600 920 613 c 1
EndSplineSet
Validated: 1
EndChar

StartChar: precedesim
Encoding: 8830 8830 99
Width: 818
Flags: W
HStem: -247 62<503.218 657.052> -69 62<160.382 313.782> 435 44<88.029 321.549>
VStem: 58 31<-246.986 -155.948> 685 44<148.035 243.136 671.556 765.965> 728 31<-97.6809 -7.01308>
LayerCount: 2
Fore
SplineSet
74 -247 m 0xf4
 63 -247 59 -228 58 -220 c 1
 58 -212 l 2
 58 -112 125 -7 233 -7 c 0
 376 -7 446 -185 584 -185 c 0
 666 -185 728 -114 728 -34 c 1
 729 -25 732 -7 743 -7 c 0
 754 -7 758 -25 759 -34 c 1
 759 -42 l 2
 759 -141 693 -247 584 -247 c 0
 441 -247 371 -69 233 -69 c 0
 152 -69 89 -140 89 -220 c 1
 88 -228 85 -247 74 -247 c 0xf4
109 435 m 1
 98 437 88 446 88 458 c 0
 88 469 98 477 109 479 c 1
 300 479 659 494 685 746 c 0
 687 756 696 766 708 766 c 0
 721 766 729 754 729 742 c 1
 711 560 549 488 390 458 c 1
 549 427 711 354 729 173 c 1
 729 160 721 148 708 148 c 0
 696 148 687 158 685 169 c 0xf8
 659 420 299 435 109 435 c 1
EndSplineSet
Validated: 1
EndChar

StartChar: equaldotrightleft
Encoding: 8787 8787 100
Width: 818
Flags: W
HStem: -114 115<35.9969 125.694> 130 44<58.0073 758.993> 338 44<58.029 758.971> 510 115<692.848 781.422>
VStem: 24 114<-101.619 -11.3055> 680 115<522.848 611.422>
LayerCount: 2
Fore
SplineSet
24 -56 m 0
 24 -25 49 1 81 1 c 0
 112 1 138 -25 138 -56 c 0
 138 -88 112 -114 81 -114 c 0
 49 -114 24 -88 24 -56 c 0
79 130 m 1
 68 132 58 140 58 152 c 0
 58 164 68 171 79 174 c 1
 739 174 l 1
 749 171 759 164 759 152 c 0
 759 140 749 132 739 130 c 1
 79 130 l 1
79 338 m 1
 68 340 58 347 58 359 c 0
 58 371 68 379 79 382 c 1
 739 382 l 1
 749 379 759 371 759 359 c 0
 759 347 749 340 739 338 c 1
 79 338 l 1
680 567 m 0
 680 598 705 625 737 625 c 0
 768 625 795 598 795 567 c 0
 795 535 768 510 737 510 c 0
 705 510 680 535 680 567 c 0
EndSplineSet
Validated: 1
EndChar

StartChar: between
Encoding: 8812 8812 101
Width: 525
Flags: W
HStem: -256 31<389.109 421.977> 737 31<103.023 136.135>
VStem: 77 53<107.78 404.22> 395 54<107.78 404.22>
LayerCount: 2
Fore
SplineSet
103 -240 m 0
 103 -234 107 -228 112 -225 c 0
 157 -200 199 -169 238 -131 c 1
 138 -27 77 112 77 256 c 0
 77 400 138 539 238 643 c 1
 200 680 158 711 112 737 c 0
 107 740 103 746 103 752 c 0
 103 760 111 768 121 768 c 1
 149 763 239 691 263 669 c 1
 282 687 383 768 406 768 c 0
 415 768 422 761 422 752 c 0
 422 746 419 740 414 737 c 0
 369 712 327 681 289 643 c 1
 388 539 449 400 449 256 c 0
 449 112 388 -27 289 -131 c 0
 289 -132 290 -133 291 -133 c 0
 328 -170 369 -200 414 -225 c 0
 419 -228 422 -234 422 -240 c 0
 422 -248 414 -256 404 -256 c 1
 376 -251 286 -179 263 -157 c 1
 243 -175 143 -256 120 -256 c 0
 111 -256 103 -249 103 -240 c 0
263 -103 m 1
 348 -4 395 125 395 256 c 0
 395 387 348 516 263 615 c 1
 177 516 130 387 130 256 c 0
 130 125 177 -4 263 -103 c 1
EndSplineSet
Validated: 1
EndChar

StartChar: supersetdbl
Encoding: 8913 8913 102
Width: 818
Flags: W
HStem: -53 44<88.029 511.202> 111 44<88.0073 482.219> 356 44<88.029 482.219> 520 44<88.029 511.202>
VStem: 521 44<194.889 316.405> 685 44<155.847 355.631>
LayerCount: 2
Fore
SplineSet
109 -53 m 1
 98 -51 88 -43 88 -32 c 0
 88 -20 98 -11 109 -9 c 1
 407 -9 l 2
 555 -9 685 103 685 256 c 0
 685 408 555 520 407 520 c 2
 109 520 l 1
 98 522 88 531 88 543 c 0
 88 554 98 562 109 564 c 1
 411 564 l 2
 582 564 729 429 729 256 c 0
 729 82 582 -53 411 -53 c 2
 109 -53 l 1
109 111 m 1
 98 113 88 121 88 133 c 0
 88 144 98 153 109 155 c 1
 411 155 l 2
 413 155 414 154 416 154 c 0
 417 154 419 154 421 154 c 0
 475 154 521 201 521 256 c 0
 521 310 475 357 421 357 c 0
 419 357 417 357 416 357 c 0
 414 357 413 357 411 356 c 1
 109 356 l 1
 98 358 88 367 88 379 c 0
 88 390 98 398 109 400 c 1
 407 400 l 1
 409 401 411 401 414 401 c 0
 416 401 418 401 420 401 c 0
 500 401 565 335 565 256 c 0
 565 176 500 110 420 110 c 0
 418 110 416 110 414 110 c 0
 411 110 409 111 407 111 c 2
 109 111 l 1
EndSplineSet
Validated: 1
EndChar

StartChar: rightanglenw
Encoding: 9484 9484 103
Width: 525
Flags: W
HStem: 667 44<102 466.993>
VStem: 58 44<302.029 667>
LayerCount: 2
Fore
SplineSet
58 323 m 1
 58 691 l 2
 58 701 69 709 79 711 c 1
 446 711 l 1
 457 709 467 700 467 689 c 0
 467 677 457 669 446 667 c 1
 102 667 l 1
 102 323 l 1
 100 312 92 302 81 302 c 0
 69 302 61 312 58 323 c 1
EndSplineSet
Validated: 1
EndChar

StartChar: circleasterisk
Encoding: 8859 8859 104
Width: 818
Flags: W
HStem: -95 33<313.678 504.237> 129 58<216.007 229 588 600.993> 324 58<216.007 229 588 600.993> 573 33<313.678 504.237>
VStem: 57 33<160.577 350.975> 378 61<36.1272 143.414 367.586 474.781> 727 33<160.577 350.975>
CounterMasks: 1 0e
LayerCount: 2
Fore
SplineSet
57 256 m 0
 57 449 215 606 409 606 c 0
 603 606 760 449 760 256 c 0
 760 62 603 -95 409 -95 c 0
 215 -95 57 62 57 256 c 0
90 256 m 0
 90 80 234 -62 409 -62 c 0
 584 -62 727 80 727 256 c 0
 727 431 584 573 409 573 c 0
 234 573 90 431 90 256 c 0
245 129 m 0
 229 129 214 145 214 162 c 0
 214 172 220 182 229 187 c 2
 377 256 l 1
 229 324 l 2
 220 329 214 339 214 349 c 0
 214 366 229 382 245 382 c 0
 251 382 256 380 260 377 c 2
 393 283 l 1
 378 445 l 1
 378 447 l 2
 378 464 393 476 409 476 c 0
 425 476 439 464 439 447 c 2
 439 445 l 1
 424 283 l 1
 557 377 l 2
 561 380 566 382 572 382 c 0
 588 382 603 366 603 349 c 0
 603 339 597 329 588 324 c 2
 440 256 l 1
 588 187 l 2
 597 182 603 172 603 162 c 0
 603 145 588 129 572 129 c 0
 566 129 561 131 557 134 c 2
 424 228 l 1
 439 66 l 1
 439 63 l 2
 439 46 425 35 409 35 c 0
 393 35 378 46 378 63 c 2
 378 66 l 1
 393 228 l 1
 260 134 l 2
 256 131 251 129 245 129 c 0
EndSplineSet
Validated: 1
EndChar

StartChar: dblarrowup
Encoding: 8648 8648 105
Width: 876
Flags: W
HStem: -199 21G<257.5 268 608 618.5> 511 33<75.0051 117.074 759.926 801.995> 691 20G<260 265.5 610.5 616>
VStem: 242 43<-198.974 622> 592 44<-198.974 622>
LayerCount: 2
Fore
SplineSet
242 -179 m 2
 242 622 l 1
 203 572 150 534 92 511 c 0
 90 511 89 511 88 511 c 0
 82 511 75 515 75 522 c 2
 75 534 l 2
 75 539 79 543 83 544 c 0
 158 572 219 629 251 702 c 0
 253 707 257 711 263 711 c 0
 268 711 272 707 275 702 c 0
 306 630 365 574 438 546 c 1
 511 574 570 630 602 702 c 0
 604 707 608 711 613 711 c 0
 619 711 624 707 626 702 c 0
 658 629 719 572 794 544 c 0
 798 543 802 539 802 534 c 2
 802 522 l 2
 802 515 795 511 790 511 c 0
 788 511 787 511 785 511 c 0
 726 534 674 572 636 622 c 1
 636 -179 l 2
 636 -190 624 -199 613 -199 c 0
 603 -199 592 -190 592 -179 c 2
 592 622 l 1
 554 572 501 534 442 511 c 1
 434 511 l 1
 376 534 323 572 285 622 c 1
 285 -179 l 2
 285 -190 273 -199 263 -199 c 0
 252 -199 242 -190 242 -179 c 2
EndSplineSet
Validated: 1
EndChar

StartChar: squiggleleftright
Encoding: 8621 8621 106
Width: 1461
Flags: W
HStem: 233 45<148 291 1169 1312>
LayerCount: 2
Fore
SplineSet
216 85 m 1
 186 159 130 220 58 256 c 1
 130 291 186 352 216 426 c 1
 252 426 l 1
 229 370 193 319 148 278 c 1
 291 278 l 1
 371 356 l 2
 375 360 380 362 386 362 c 0
 391 362 397 360 401 356 c 2
 558 202 l 1
 715 356 l 2
 719 360 725 362 730 362 c 0
 735 362 741 360 745 356 c 2
 902 202 l 1
 1059 356 l 2
 1063 360 1069 362 1074 362 c 0
 1080 362 1086 360 1090 356 c 2
 1169 278 l 1
 1312 278 l 1
 1267 319 1231 370 1208 426 c 1
 1244 426 l 1
 1274 352 1330 291 1402 256 c 1
 1330 220 1274 159 1244 85 c 1
 1208 85 l 1
 1231 141 1267 192 1312 233 c 1
 1159 233 l 2
 1152 233 1147 238 1143 243 c 2
 1074 309 l 1
 918 155 l 2
 914 151 908 148 902 148 c 0
 897 148 891 151 887 155 c 2
 730 309 l 1
 573 155 l 2
 569 151 563 148 558 148 c 0
 552 148 547 151 543 155 c 2
 386 309 l 1
 317 243 l 2
 313 238 308 233 302 233 c 2
 148 233 l 1
 193 192 229 141 252 85 c 1
 216 85 l 1
EndSplineSet
Validated: 1
EndChar

StartChar: followsorcurly
Encoding: 8829 8829 107
Width: 818
Flags: W
HStem: 0 21G<104 116.5> 123 44<526.926 728.992> 287 44<496.544 728.993>
VStem: 88 44<0.0348206 93.9518 523.788 616.968> 205 44<-163.991 -71.373>
LayerCount: 2
Fore
SplineSet
227 -164 m 0
 213 -164 205 -152 205 -140 c 1
 230 98 507 167 706 167 c 0
 718 167 729 158 729 145 c 0
 729 133 720 125 710 123 c 1
 536 123 271 69 249 -144 c 0
 247 -154 238 -164 227 -164 c 0
111 0 m 0
 97 0 88 12 88 25 c 1
 106 206 268 278 428 309 c 1
 268 339 106 412 88 594 c 1
 88 606 97 617 111 617 c 0
 122 617 130 608 132 598 c 0
 158 347 519 331 710 331 c 1
 720 329 729 320 729 309 c 0
 729 297 720 289 710 287 c 1
 519 287 158 270 132 20 c 0
 130 9 122 0 111 0 c 0
EndSplineSet
Validated: 1
EndChar

StartChar: arrowtripleright
Encoding: 8667 8667 108
Width: 1051
Flags: W
HStem: 26 44<58.0073 666> 233 45<58.0073 866> 441 44<58.029 666>
CounterMasks: 1 e0
LayerCount: 2
Fore
SplineSet
79 26 m 1
 68 28 58 36 58 48 c 0
 58 59 68 68 79 70 c 1
 696 70 l 1
 743 133 801 188 866 233 c 1
 81 233 l 2
 68 233 58 243 58 256 c 0
 58 268 68 278 81 278 c 2
 866 278 l 1
 801 323 743 378 696 441 c 1
 79 441 l 1
 68 443 58 452 58 464 c 0
 58 475 68 483 79 485 c 1
 666 485 l 1
 637 531 612 582 594 634 c 1
 647 634 l 1
 704 473 821 337 972 256 c 1
 821 174 704 38 647 -123 c 1
 594 -123 l 1
 612 -71 637 -20 666 26 c 1
 79 26 l 1
EndSplineSet
Validated: 1
EndChar

StartChar: intersectiondbl
Encoding: 8915 8915 109
Width: 701
Flags: W
HStem: 407 44<290.469 409.531> 570 44<231.315 469.127>
VStem: 58 44<-22.971 467.069> 222 44<-22.971 381.739> 434 44<-22.971 381.739> 598 44<-22.971 467.069>
LayerCount: 2
Fore
SplineSet
58 -3 m 1
 58 397 l 2
 58 547 223 614 350 614 c 0
 478 614 642 547 642 397 c 2
 642 -3 l 1
 640 -13 632 -23 621 -23 c 0
 609 -23 600 -13 598 -3 c 1
 598 393 l 2
 598 519 456 570 350 570 c 0
 245 570 102 519 102 393 c 2
 102 -3 l 1
 100 -13 92 -23 81 -23 c 0
 69 -23 60 -13 58 -3 c 1
222 -3 m 1
 222 338 l 2
 222 406 288 451 350 451 c 0
 412 451 478 406 478 338 c 2
 478 -3 l 1
 476 -13 468 -23 457 -23 c 0
 445 -23 436 -13 434 -3 c 1
 434 334 l 2
 434 379 392 407 350 407 c 0
 308 407 266 379 266 334 c 2
 266 -3 l 1
 264 -13 256 -23 245 -23 c 0
 233 -23 224 -13 222 -3 c 1
EndSplineSet
Validated: 1
EndChar

StartChar: circleR
Encoding: 174 174 110
Width: 984
Flags: W
HStem: -181 44<367.159 616.755> -14 29<677.831 736.944> 0 32<221 286.88 376.945 442> 255 30<370 518.529> 507 32<221 286.88 372.106 541.865> 698 44<367.159 616.755>
VStem: 30 44<155.974 405.755> 294 76<37.2094 255 285 501.791> 593 92<334.38 459.85> 754 32<30.0154 89.6607> 909 44<155.974 405.755>
LayerCount: 2
Fore
SplineSet
30 281 m 0x9fe0
 30 535 238 742 492 742 c 0
 746 742 953 535 953 281 c 0
 953 27 746 -181 492 -181 c 0
 238 -181 30 27 30 281 c 0x9fe0
74 281 m 0
 74 51 263 -137 492 -137 c 0
 721 -137 909 51 909 281 c 0
 909 510 721 698 492 698 c 0
 263 698 74 510 74 281 c 0
221 0 m 1xbfe0
 221 32 l 1xbfe0
 257 32 294 32 294 70 c 2
 294 469 l 2
 294 507 257 507 221 507 c 1
 221 539 l 1
 469 539 l 2
 551 539 685 496 685 396 c 0
 685 327 615 283 557 267 c 1
 598 249 632 216 640 171 c 1
 656 91 l 2
 661 61 669 15 708 15 c 0
 740 15 754 51 754 78 c 0
 754 84 760 90 766 90 c 2
 775 90 l 2
 782 90 786 83 786 76 c 0
 786 32 755 -14 708 -14 c 0xdfe0
 637 -14 562 15 562 97 c 2
 562 166 l 2
 562 217 517 255 468 255 c 2
 370 255 l 1
 370 70 l 2
 370 32 406 32 442 32 c 1
 442 0 l 1
 405 0 369 3 332 3 c 0
 295 3 258 0 221 0 c 1xbfe0
370 285 m 1
 457 285 l 2
 538 285 593 305 593 396 c 0
 593 486 538 507 457 507 c 2
 406 507 l 2
 375 507 370 500 370 469 c 2
 370 285 l 1
EndSplineSet
Validated: 1
EndChar

StartChar: fork
Encoding: 8916 8916 111
Width: 701
Flags: W
HStem: 497 45<212.984 329 373 487.904>
VStem: 58 44<-22.971 410.253> 329 44<-22.9927 497 542 755.993> 598 44<-22.971 410.253>
LayerCount: 2
Fore
SplineSet
58 -3 m 1
 58 348 l 2
 58 481 216 542 329 542 c 1
 329 735 l 1
 331 746 339 756 351 756 c 0
 362 756 371 746 373 735 c 1
 373 542 l 1
 485 542 642 481 642 348 c 2
 642 -3 l 1
 640 -13 632 -23 621 -23 c 0
 609 -23 600 -13 598 -3 c 1
 598 344 l 2
 598 454 462 497 373 497 c 1
 373 -3 l 1
 371 -13 362 -23 351 -23 c 0
 339 -23 331 -13 329 -3 c 1
 329 497 l 1
 239 497 102 454 102 344 c 2
 102 -3 l 1
 100 -13 92 -23 81 -23 c 0
 69 -23 60 -13 58 -3 c 1
EndSplineSet
Validated: 1
EndChar

StartChar: doublebarwedge
Encoding: 8966 8966 112
Width: 643
Flags: W
HStem: 586 44<58.0073 583.993> 794 44<58.0073 583.993>
VStem: 58 41<-103.814 -93> 542 42<-103.961 -90>
LayerCount: 2
Fore
SplineSet
58 -82 m 0
 58 -78 59 -75 61 -71 c 2
 303 411 l 2
 306 417 315 421 322 421 c 0
 331 421 338 415 342 408 c 2
 583 -74 l 2
 584 -77 584 -80 584 -82 c 0
 584 -94 573 -104 562 -104 c 0
 552 -104 545 -98 542 -90 c 2
 322 350 l 1
 99 -93 l 2
 96 -100 88 -104 81 -104 c 0
 69 -104 58 -94 58 -82 c 0
79 586 m 1
 68 588 58 596 58 608 c 0
 58 619 68 628 79 630 c 1
 564 630 l 1
 574 628 584 619 584 608 c 0
 584 596 574 588 564 586 c 1
 79 586 l 1
79 794 m 1
 68 796 58 804 58 816 c 0
 58 827 68 836 79 838 c 1
 564 838 l 1
 574 836 584 827 584 816 c 0
 584 804 574 796 564 794 c 1
 79 794 l 1
EndSplineSet
Validated: 1
EndChar

StartChar: curlyprecede
Encoding: 8926 8926 113
Width: 818
Flags: W
HStem: 0 21G<702 714.5> 287 44<88.0073 321.549> 451 44<88.0087 291.253>
VStem: 568 44<689.373 780.992> 685 44<0.0348206 93.9518 523.788 616.968>
LayerCount: 2
Fore
SplineSet
109 287 m 1
 98 289 88 297 88 309 c 0
 88 320 98 329 109 331 c 1
 299 331 659 347 685 598 c 0
 687 608 696 617 708 617 c 0
 721 617 729 606 729 594 c 1
 711 412 549 339 389 309 c 1
 549 278 711 206 729 25 c 1
 729 12 721 0 708 0 c 0
 696 0 687 9 685 20 c 0
 659 270 299 287 109 287 c 1
88 473 m 0
 88 484 98 493 109 495 c 1
 282 495 546 549 568 762 c 0
 570 772 579 781 590 781 c 0
 604 781 612 770 612 758 c 1
 587 520 311 451 113 451 c 0
 100 451 88 459 88 473 c 0
EndSplineSet
Validated: 1
EndChar

StartChar: curlyfollow
Encoding: 8927 8927 114
Width: 818
Flags: W
HStem: 0 21G<104 116.5> 287 44<496.544 728.993> 451 44<526.926 728.992>
VStem: 88 44<0.0348206 93.9518 523.788 616.968> 205 44<689.373 780.992>
LayerCount: 2
Fore
SplineSet
111 0 m 0
 97 0 88 12 88 25 c 1
 106 206 268 278 428 309 c 1
 268 339 106 412 88 594 c 1
 88 606 97 617 111 617 c 0
 122 617 130 608 132 598 c 0
 158 347 519 331 710 331 c 1
 720 329 729 320 729 309 c 0
 729 297 720 289 710 287 c 1
 519 287 158 270 132 20 c 0
 130 9 122 0 111 0 c 0
205 758 m 1
 205 770 213 781 227 781 c 0
 239 781 247 772 249 762 c 0
 271 549 536 495 710 495 c 1
 720 493 729 484 729 473 c 0
 729 459 718 451 706 451 c 0
 507 451 230 520 205 758 c 1
EndSplineSet
Validated: 1
EndChar

StartChar: precedecurly
Encoding: 8828 8828 115
Width: 818
Flags: W
HStem: 0 21G<702 714.5> 123 44<88.0087 291.253> 287 44<88.0073 321.549>
VStem: 568 44<-163.991 -71.373> 685 44<0.0348206 93.9518 523.788 616.968>
LayerCount: 2
Fore
SplineSet
109 123 m 1
 98 125 88 133 88 145 c 0
 88 158 100 167 113 167 c 0
 311 167 587 98 612 -140 c 1
 612 -152 604 -164 590 -164 c 0
 578 -164 570 -154 568 -144 c 0
 546 69 282 123 109 123 c 1
109 287 m 1
 98 289 88 297 88 309 c 0
 88 320 98 329 109 331 c 1
 299 331 659 347 685 598 c 0
 687 608 696 617 708 617 c 0
 721 617 729 606 729 594 c 1
 711 412 549 339 389 309 c 1
 549 278 711 206 729 25 c 1
 729 12 721 0 708 0 c 0
 696 0 687 9 685 20 c 0
 659 270 299 287 109 287 c 1
EndSplineSet
Validated: 1
EndChar

StartChar: eqless
Encoding: 8924 8924 116
Width: 799
VWidth: 1000
Flags: W
HStem: -154 45<692 711.991> 406 43<694 711.995> 609 43<86.0153 711.985>
LayerCount: 2
Fore
SplineSet
692 -109 m 2
 702 -114 712 -119 712 -132 c 0
 712 -147 700 -154 691 -154 c 0
 687 -154 685 -154 674 -148 c 2
 106 124 l 2
 90 132 86 138 86 148 c 0
 86 160 94 164 104 169 c 2
 672 442 l 2
 685 449 687 449 690 449 c 0
 705 449 712 437 712 428 c 0
 712 415 705 411 694 406 c 2
 157 147 l 1
 692 -109 l 2
677 652 m 2
 691 652 712 652 712 631 c 0
 712 609 692 609 677 609 c 2
 121 609 l 2
 106 609 86 609 86 631 c 0
 86 652 107 652 121 652 c 2
 677 652 l 2
EndSplineSet
Validated: 1
EndChar

StartChar: staroperator
Encoding: 8902 8902 117
Width: 625
VWidth: 1000
Flags: W
LayerCount: 2
Fore
SplineSet
153 58 m 0
 153 58 153 58 153 59 c 2
 210 233 l 1
 62 341 l 2
 60 342 59 345 59 347 c 0
 59 351 62 354 66 354 c 2
 249 354 l 1
 306 527 l 2
 307 530 309 533 313 533 c 0
 315 533 318 531 319 529 c 2
 376 354 l 1
 559 354 l 2
 563 354 566 351 566 347 c 0
 566 345 565 342 563 341 c 2
 415 233 l 1
 472 59 l 2
 472 58 472 59 472 58 c 0
 472 54 469 50 465 50 c 0
 464 50 462 50 461 51 c 2
 313 158 l 1
 165 52 l 2
 163 51 162 50 160 50 c 0
 156 50 153 53 153 58 c 0
EndSplineSet
Validated: 1
EndChar

StartChar: maltesecross
Encoding: 10016 10016 118
Width: 876
Flags: W
HStem: 344 23<327.796 426 450 548.214>
VStem: 426 24<245.385 344 367 465.615>
LayerCount: 2
Fore
SplineSet
72 122 m 1
 66 122 60 128 60 133 c 2
 60 578 l 2
 60 584 66 588 72 589 c 0
 75 589 79 586 81 584 c 0
 154 444 266 367 426 367 c 1
 426 528 350 639 210 713 c 1
 207 716 206 718 205 722 c 1
 205 727 211 733 216 733 c 2
 659 733 l 2
 666 733 670 728 671 722 c 0
 671 719 668 715 666 713 c 0
 526 639 450 528 450 367 c 1
 610 367 722 444 796 584 c 1
 799 587 800 588 805 589 c 0
 810 589 816 583 816 578 c 2
 816 133 l 2
 816 127 810 123 805 122 c 0
 801 122 797 125 796 127 c 0
 722 267 610 344 450 344 c 1
 450 183 526 72 666 -2 c 1
 669 -5 670 -7 671 -11 c 1
 671 -16 664 -23 659 -23 c 2
 216 -23 l 2
 209 -23 206 -17 205 -11 c 0
 205 -8 208 -4 210 -2 c 0
 350 72 426 183 426 344 c 1
 266 344 154 267 81 127 c 1
 77 124 76 123 72 122 c 1
EndSplineSet
Validated: 1
EndChar

StartChar: lessdot
Encoding: 8918 8918 119
Width: 799
VWidth: 1000
Flags: W
HStem: -52 40<702 711.885> 183 133<495.757 593.697> 510 41<699 711.983>
VStem: 478 133<200.406 298.697>
LayerCount: 2
Fore
SplineSet
97 231 m 2
 90 234 86 242 86 250 c 0
 86 259 92 266 100 270 c 2
 683 550 l 2
 685 551 688 551 691 551 c 0
 702 551 712 541 712 530 c 0
 712 520 706 513 699 510 c 2
 157 250 l 1
 702 -12 l 2
 708 -15 712 -23 712 -30 c 0
 712 -42 702 -52 691 -52 c 0
 688 -52 685 -52 683 -50 c 2
 97 231 l 2
478 250 m 0
 478 286 509 316 545 316 c 0
 581 316 611 286 611 250 c 0
 611 213 581 183 545 183 c 0
 509 183 478 213 478 250 c 0
EndSplineSet
Validated: 1
EndChar

StartChar: greaterdot
Encoding: 8919 8919 120
Width: 799
VWidth: 1000
Flags: W
HStem: -53 42<86.0391 100> 183 133<204.757 302.697> 510 40<86.0466 97>
VStem: 187 133<200.406 298.697>
LayerCount: 2
Fore
SplineSet
86 -31 m 0
 86 -22 92 -15 100 -11 c 2
 641 249 l 1
 97 510 l 2
 90 513 86 521 86 529 c 0
 86 540 96 550 108 550 c 0
 110 550 113 550 116 549 c 2
 702 267 l 2
 708 264 712 256 712 249 c 0
 712 239 706 232 699 229 c 2
 116 -51 l 2
 113 -53 110 -53 108 -53 c 0
 96 -53 86 -43 86 -31 c 0
187 250 m 0
 187 286 218 316 254 316 c 0
 290 316 320 286 320 250 c 0
 320 213 290 183 254 183 c 0
 218 183 187 213 187 250 c 0
EndSplineSet
Validated: 1
EndChar

StartChar: dividemultiply
Encoding: 8903 8903 121
Width: 799
VWidth: 1000
Flags: W
HStem: -53 156<346.078 452.399> 0 21G<167 175.5 623 631.5> 228 43<57.0066 347 451 740.993> 396 156<346.078 452.399>
VStem: 322 155<-28.3988 78.3988 420.601 527.399>
LayerCount: 2
Fore
SplineSet
322 25 m 0xb8
 322 67 357 103 399 103 c 0
 441 103 477 67 477 25 c 0
 477 -17 441 -53 399 -53 c 0
 357 -53 322 -17 322 25 c 0xb8
151 22 m 0
 151 27 153 33 157 37 c 2
 347 228 l 1
 77 228 l 1
 66 230 57 238 57 250 c 0
 57 261 66 269 77 271 c 1
 347 271 l 1
 157 463 l 2
 153 466 151 472 151 478 c 0
 151 489 161 499 173 499 c 0
 178 499 184 497 188 493 c 2
 399 280 l 1
 610 493 l 2
 614 497 620 499 626 499 c 0
 637 499 647 489 647 478 c 0
 647 472 645 466 641 463 c 2
 451 271 l 1
 722 271 l 1
 732 269 741 261 741 250 c 0
 741 238 732 230 722 228 c 1
 451 228 l 1
 641 37 l 2
 645 33 647 27 647 22 c 0
 647 10 637 0 626 0 c 0
 620 0 614 2 611 6 c 2
 399 219 l 1
 188 7 l 2
 184 2 178 0 173 0 c 0x78
 161 0 151 10 151 22 c 0
322 474 m 0
 322 516 357 552 399 552 c 0
 441 552 477 516 477 474 c 0
 477 432 441 396 399 396 c 0
 357 396 322 432 322 474 c 0
EndSplineSet
Validated: 1
EndChar

StartChar: lessdbleqlgreater
Encoding: 10891 10891 122
Width: 818
Flags: W
HStem: 182 44<88.029 728.974> 329 44<88.0073 728.993>
LayerCount: 2
Fore
SplineSet
88 -274 m 0
 88 -265 93 -257 102 -254 c 2
 644 -109 l 1
 102 35 l 2
 92 38 88 47 88 55 c 0
 88 67 99 78 111 78 c 0
 113 78 116 77 119 76 c 2
 716 -89 l 2
 724 -92 729 -100 729 -109 c 0
 729 -118 724 -128 716 -130 c 2
 117 -295 l 2
 115 -296 113 -296 111 -296 c 0
 99 -296 88 -285 88 -274 c 0
109 182 m 1
 98 184 88 192 88 203 c 0
 88 215 98 224 109 226 c 1
 710 226 l 1
 720 224 729 215 729 203 c 0
 729 192 720 184 710 182 c 1
 109 182 l 1
109 329 m 1
 98 331 88 340 88 351 c 0
 88 363 98 371 109 373 c 1
 710 373 l 1
 720 371 729 363 729 351 c 0
 729 340 720 331 710 329 c 1
 109 329 l 1
102 644 m 2
 93 647 88 655 88 664 c 0
 88 673 93 683 102 685 c 2
 700 850 l 2
 702 851 705 851 708 851 c 0
 719 851 729 840 729 829 c 0
 729 820 724 812 716 809 c 2
 173 664 l 1
 716 520 l 2
 725 518 729 508 729 500 c 0
 729 488 719 477 708 477 c 0
 705 477 701 478 699 479 c 2
 102 644 l 2
EndSplineSet
EndChar

StartChar: greaterdbleqlless
Encoding: 10892 10892 123
Width: 818
Flags: W
HStem: 182 44<88.029 728.974> 329 44<88.0073 728.993>
LayerCount: 2
Fore
SplineSet
102 -130 m 2
 93 -128 88 -118 88 -109 c 0
 88 -100 93 -92 102 -89 c 2
 700 77 l 2
 702 78 705 78 708 78 c 0
 719 78 729 67 729 56 c 0
 729 47 724 38 716 36 c 2
 173 -109 l 1
 716 -253 l 2
 724 -257 729 -265 729 -273 c 0
 729 -285 719 -296 708 -296 c 0
 705 -296 701 -295 699 -294 c 2
 102 -130 l 2
109 182 m 1
 98 184 88 192 88 203 c 0
 88 215 98 224 109 226 c 1
 710 226 l 1
 720 224 729 215 729 203 c 0
 729 192 720 184 710 182 c 1
 109 182 l 1
109 329 m 1
 98 331 88 340 88 351 c 0
 88 363 98 371 109 373 c 1
 710 373 l 1
 720 371 729 363 729 351 c 0
 729 340 720 331 710 329 c 1
 109 329 l 1
88 500 m 0
 88 509 93 518 102 520 c 2
 644 665 l 1
 102 809 l 2
 93 813 88 821 88 829 c 0
 88 841 99 852 111 852 c 0
 113 852 116 851 119 850 c 2
 716 686 l 2
 724 684 729 674 729 665 c 0
 729 656 724 648 716 645 c 2
 117 479 l 2
 115 478 113 478 111 478 c 0
 99 478 88 489 88 500 c 0
EndSplineSet
EndChar

StartChar: lessorapproxeql
Encoding: 10885 10885 124
Width: 818
Flags: W
HStem: -229 61<497.016 664.293> -83 61<152.921 319.984> 19 62<497.016 664.293> 166 61<152.921 319.984> 339 43<716 728.985> 791 42<716 728.967>
VStem: 58 31<-228.987 -150.945 19.0138 98.0546> 728 31<-99.7209 -22.0124 148.295 226.988>
LayerCount: 2
Fore
SplineSet
74 -229 m 0
 63 -229 59 -211 58 -203 c 1
 58 -195 l 2
 58 -97 137 -22 233 -22 c 0
 368 -22 452 -168 584 -168 c 0
 652 -168 728 -122 728 -48 c 1
 729 -39 732 -22 743 -22 c 0
 754 -22 758 -39 759 -48 c 1
 759 -56 l 2
 759 -153 680 -229 584 -229 c 0
 449 -229 365 -83 233 -83 c 0
 166 -83 89 -128 89 -203 c 1
 88 -211 85 -229 74 -229 c 0
74 19 m 0
 63 19 59 38 58 46 c 1
 58 54 l 2
 58 152 137 227 233 227 c 0
 368 227 452 81 584 81 c 0
 652 81 728 127 728 201 c 1
 729 210 732 227 743 227 c 0
 754 227 758 210 759 201 c 1
 759 192 l 2
 759 95 680 19 584 19 c 0
 449 19 365 166 233 166 c 0
 166 166 89 121 89 46 c 1
 88 38 85 19 74 19 c 0
102 566 m 2
 93 569 88 577 88 586 c 0
 88 594 93 603 102 607 c 2
 699 832 l 2
 701 833 705 833 708 833 c 0
 719 833 729 822 729 811 c 0
 729 802 724 794 716 791 c 2
 166 586 l 1
 716 382 l 2
 724 378 729 369 729 361 c 0
 729 349 719 339 708 339 c 0
 705 339 701 339 699 341 c 1
 102 566 l 2
EndSplineSet
EndChar

StartChar: greaterorapproxeql
Encoding: 10886 10886 125
Width: 818
Flags: W
HStem: -229 61<497.016 664.293> -83 61<152.921 319.984> 19 62<497.016 664.293> 166 61<152.921 319.984> 339 43<88.0146 102> 791 42<88.0329 102>
VStem: 58 31<-228.987 -150.945 19.0138 98.0546> 728 31<-99.7209 -22.0124 148.295 226.988>
LayerCount: 2
Fore
SplineSet
74 -229 m 4
 63 -229 59 -211 58 -203 c 5
 58 -195 l 6
 58 -97 137 -22 233 -22 c 4
 368 -22 452 -168 584 -168 c 4
 652 -168 728 -122 728 -48 c 5
 729 -39 732 -22 743 -22 c 4
 754 -22 758 -39 759 -48 c 5
 759 -56 l 6
 759 -153 680 -229 584 -229 c 4
 449 -229 365 -83 233 -83 c 4
 166 -83 89 -128 89 -203 c 5
 88 -211 85 -229 74 -229 c 4
74 19 m 4
 63 19 59 38 58 46 c 5
 58 54 l 6
 58 152 137 227 233 227 c 4
 368 227 452 81 584 81 c 4
 652 81 728 127 728 201 c 5
 729 210 732 227 743 227 c 4
 754 227 758 210 759 201 c 5
 759 192 l 6
 759 95 680 19 584 19 c 4
 449 19 365 166 233 166 c 4
 166 166 89 121 89 46 c 5
 88 38 85 19 74 19 c 4
88 361 m 0
 88 369 93 378 102 382 c 2
 651 586 l 1
 102 791 l 2
 93 794 88 802 88 811 c 0
 88 822 99 833 111 833 c 0
 113 833 116 833 119 832 c 2
 716 607 l 2
 724 603 729 594 729 586 c 0
 729 577 724 569 716 566 c 2
 119 341 l 2
 116 339 113 339 111 339 c 0
 99 339 88 349 88 361 c 0
EndSplineSet
EndChar

StartChar: slteqlless
Encoding: 10901 10901 126
Width: 818
Flags: W
HStem: -158 41<719 728.816> 337 41<88.0728 99> 418 42<716 728.961> 627 41<719 728.928>
LayerCount: 2
Fore
SplineSet
99 132 m 2
 92 135 88 144 88 152 c 0
 88 161 94 168 102 172 c 2
 699 459 l 2
 701 460 705 460 708 460 c 0
 719 460 729 449 729 438 c 0
 729 428 723 421 716 418 c 2
 161 152 l 1
 719 -117 l 2
 725 -120 729 -128 729 -135 c 0
 729 -147 719 -158 708 -158 c 0
 705 -158 701 -158 699 -156 c 2
 99 132 l 2
88 359 m 0
 88 366 92 375 99 378 c 2
 699 667 l 2
 701 668 705 668 708 668 c 0
 719 668 729 657 729 646 c 0
 729 638 725 630 719 627 c 2
 119 339 l 2
 116 337 113 337 111 337 c 0
 99 337 88 347 88 359 c 0
EndSplineSet
Validated: 1
EndChar

StartChar: slteqlgreater
Encoding: 10902 10902 127
Width: 818
Flags: W
HStem: -159 43<88.0715 102> 337 43<716 728.983> 418 41<88.0728 99> 626 42<88.0391 102>
LayerCount: 2
Fore
SplineSet
88 -136 m 0
 88 -127 94 -120 102 -116 c 2
 656 151 l 1
 99 418 l 2
 92 421 88 429 88 437 c 0
 88 448 99 459 111 459 c 0
 113 459 116 459 119 458 c 2
 719 169 l 2
 725 166 729 158 729 151 c 0
 729 141 723 133 716 130 c 2
 119 -157 l 2
 116 -159 113 -159 111 -159 c 0
 99 -159 88 -148 88 -136 c 0
102 626 m 2
 94 629 88 636 88 646 c 0
 88 657 99 668 111 668 c 0
 113 668 116 668 119 667 c 2
 716 380 l 2
 723 376 729 368 729 359 c 0
 729 347 719 337 708 337 c 0
 705 337 701 337 699 339 c 2
 102 626 l 2
EndSplineSet
Validated: 1
EndChar

StartChar: notexistential
Encoding: 8708 8708 128
Width: 571
VWidth: 1000
Flags: W
HStem: 0 43<57.0066 184 237 470> 326 43<71.0066 258 312 470> 651 43<57.0066 333 386 470>
VStem: 150 42<-170.993 -124.939> 378 42<818.939 864.993> 470 43<43 326 369 651>
LayerCount: 2
Fore
SplineSet
150 -150 m 0
 150 -147 150 -148 150 -145 c 2
 184 0 l 1
 77 0 l 1
 66 2 57 10 57 22 c 0
 57 33 66 41 77 43 c 1
 193 43 l 1
 258 326 l 1
 91 326 l 1
 80 328 71 335 71 347 c 0
 71 359 80 366 91 369 c 1
 268 369 l 1
 333 651 l 1
 77 651 l 1
 66 653 57 661 57 673 c 0
 57 684 66 692 77 694 c 1
 342 694 l 1
 378 850 l 2
 380 859 390 865 399 865 c 0
 410 865 420 856 420 844 c 0
 420 841 420 842 420 839 c 2
 386 694 l 1
 494 694 l 1
 503 692 513 685 513 675 c 2
 513 20 l 1
 511 10 504 0 494 0 c 2
 228 0 l 1
 192 -156 l 2
 190 -165 180 -171 171 -171 c 0
 160 -171 150 -162 150 -150 c 0
237 43 m 1
 470 43 l 1
 470 326 l 1
 302 326 l 1
 237 43 l 1
312 369 m 1
 470 369 l 1
 470 651 l 1
 377 651 l 1
 312 369 l 1
EndSplineSet
Validated: 1
EndChar

StartChar: emptyset
Encoding: 8709 8709 129
Width: 799
VWidth: 1000
Flags: W
HStem: -1 43<297.752 499.251> 551 43<299.01 500.248>
VStem: 102 43<194.61 397.017> 653 44<196.432 398.457>
LayerCount: 2
Fore
SplineSet
79 -1 m 0
 67 -1 57 9 57 21 c 0
 57 26 59 32 63 36 c 2
 160 119 l 1
 122 170 102 233 102 297 c 0
 102 460 236 594 400 594 c 0
 446 594 491 583 530 563 c 1
 568 545 579 531 610 507 c 1
 704 588 l 2
 709 592 714 594 719 594 c 0
 731 594 741 584 741 573 c 0
 741 567 739 561 735 558 c 2
 638 474 l 1
 676 423 697 360 697 297 c 0
 697 133 563 -1 398 -1 c 0
 352 -1 307 10 268 30 c 1
 230 48 219 62 188 86 c 1
 94 5 l 2
 89 1 84 -1 79 -1 c 0
221 115 m 1
 268 68 333 42 399 42 c 0
 539 42 653 157 653 297 c 0
 653 350 636 403 605 446 c 1
 221 115 l 1
193 147 m 1
 577 478 l 1
 530 525 465 551 399 551 c 0
 259 551 145 436 145 297 c 0
 145 243 162 190 193 147 c 1
EndSplineSet
Validated: 1
EndChar

StartChar: hslash
Encoding: 8463 8463 130
Width: 556
VWidth: 1000
Flags: W
HStem: -11 29<411.224 467.973> 413 29<298.313 396.234> 470 31<70.0204 106.223> 592 31<475.747 511.98> 648 35<135 198.143>
VStem: 339 69<18.0407 129.601> 413 72<236.069 402.043> 533 32<100.861 154.986>
LayerCount: 2
Fore
SplineSet
54 19 m 0
 54 23 54 26 55 30 c 2
 171 494 l 1
 90 470 l 2
 88 470 88 470 86 470 c 0
 77 470 70 477 70 486 c 0
 70 494 75 499 82 501 c 2
 180 530 l 5
 200 608 l 1
 200 613 201 617 201 621 c 0
 201 648 149 648 127 648 c 1
 135 683 l 1
 297 694 l 1
 262 555 l 1
 492 623 l 2
 494 623 494 623 496 623 c 0
 505 623 512 616 512 607 c 0
 512 599 507 594 500 592 c 2
 253 519 l 1
 215 368 l 1
 254 413 305 442 364 442 c 0
 434 442 485 406 485 332 c 0
 485 268 444 167 421 106 c 0
 413 86 408 65 408 48 c 0
 408 34 412 18 429 18 c 0
 488 18 521 98 533 146 c 0
 534 150 538 155 543 155 c 2
 555 155 l 2
 562 155 565 147 565 142 c 1
 549 78 504 -11 428 -11 c 0
 379 -11 339 23 339 73 c 0
 339 86 341 98 346 110 c 0
 370 172 413 281 413 347 c 0
 413 380 401 413 362 413 c 0
 282 413 230 353 195 286 c 1
 129 23 l 1
 123 4 107 -11 86 -11 c 0
 68 -11 54 1 54 19 c 0
EndSplineSet
Validated: 1
EndChar

StartChar: Omegainv
Encoding: 8487 8487 131
Width: 742
VWidth: 1000
Flags: W
HStem: -22 29<294.85 446.673> 616 67<95.1725 237 504 645.828>
VStem: 46 32<519 553.575> 57 103<134.751 328.07> 581 103<134.751 327.594> 663 32<519 553.575>
LayerCount: 2
Fore
SplineSet
57 228 m 0xd8
 57 304 96 371 137 433 c 2
 168 479 l 2
 196 521 224 566 237 616 c 1
 175 616 l 2
 84 616 97 609 78 519 c 1
 46 519 l 1xe0
 80 683 l 1
 262 683 l 2
 269 683 273 676 273 670 c 0
 273 514 160 383 160 228 c 0
 160 105 244 7 371 7 c 0
 497 7 581 105 581 228 c 0xd8
 581 383 468 514 468 670 c 0
 468 676 472 683 480 683 c 2
 661 683 l 1
 695 519 l 1
 663 519 l 1xc4
 644 609 657 616 566 616 c 2
 504 616 l 1
 517 566 545 521 573 479 c 2
 605 431 l 2
 646 370 684 303 684 228 c 0
 684 67 514 -22 371 -22 c 0
 227 -22 57 67 57 228 c 0xd8
EndSplineSet
Validated: 1
EndChar

StartChar: beth
Encoding: 8502 8502 132
Width: 685
VWidth: 1000
Flags: W
HStem: -22 131<69.5 584> 592 124<105.059 581.573>
VStem: 584 43<109 585.757>
LayerCount: 2
Fore
SplineSet
11 -22 m 1
 1 -19 -8 -12 -8 0 c 0
 -8 5 -6 11 -2 15 c 2
 86 103 l 2
 89 107 94 108 99 109 c 1
 584 109 l 1
 584 563 l 2
 584 585 557 592 539 592 c 2
 141 592 l 2
 58 592 57 666 57 727 c 2
 57 744 l 1
 59 755 67 763 79 763 c 0
 107 763 95 716 145 716 c 2
 543 716 l 2
 626 716 627 641 627 580 c 2
 627 109 l 1
 673 109 l 1
 683 107 692 99 692 87 c 0
 692 82 690 76 686 72 c 2
 598 -16 l 2
 595 -19 590 -20 585 -22 c 1
 11 -22 l 1
EndSplineSet
Validated: 1
EndChar

StartChar: daleth
Encoding: 8504 8504 133
Width: 685
VWidth: 1000
Flags: W
HStem: 592 124<105.059 548>
VStem: 548 81<-25.0305 340.062> 548 44<379.432 592>
LayerCount: 2
Fore
SplineSet
564 -27 m 0xc0
 554 15 548 58 548 101 c 2xc0
 548 592 l 1
 141 592 l 2
 58 592 57 666 57 727 c 2
 57 744 l 1
 60 755 67 763 79 763 c 0
 107 763 94 716 145 716 c 2
 572 716 l 2
 607 716 642 691 642 654 c 0
 642 623 619 602 592 594 c 1xa0
 592 512 601 428 611 344 c 0
 620 260 629 176 629 91 c 0
 629 59 629 -44 585 -44 c 0
 575 -44 566 -36 564 -27 c 0xc0
EndSplineSet
Validated: 1
EndChar

StartChar: gimel
Encoding: 8503 8503 134
Width: 456
VWidth: 1000
Flags: W
HStem: -22 131<69.5 286.031> 592 124<105.059 320>
VStem: 320 81<109 340.062> 320 44<379.432 592>
LayerCount: 2
Fore
SplineSet
11 -22 m 1xe0
 1 -19 -8 -12 -8 0 c 0
 -8 6 -6 11 -2 16 c 2
 86 103 l 2
 89 106 94 109 99 109 c 2
 320 109 l 1xe0
 320 592 l 1
 141 592 l 2
 58 592 57 666 57 727 c 2
 57 744 l 1
 60 755 67 763 79 763 c 0
 107 763 94 716 145 716 c 2
 344 716 l 2
 379 716 414 691 414 654 c 0
 414 623 391 602 364 594 c 1xd0
 364 512 373 428 383 344 c 0
 392 260 401 176 401 91 c 0
 401 59 401 -44 357 -44 c 0
 331 -44 327 17 324 39 c 1
 270 -16 l 2
 267 -19 261 -22 257 -22 c 2
 11 -22 l 1xe0
EndSplineSet
Validated: 1
EndChar

StartChar: Finv
Encoding: 8498 8498 135
Width: 571
VWidth: 1000
Flags: W
HStem: 0 43<57.0066 470> 326 43<211.007 470>
VStem: 470 43<43 326 369 693.993>
LayerCount: 2
Fore
SplineSet
77 0 m 1
 66 2 57 10 57 22 c 0
 57 33 66 41 77 43 c 1
 470 43 l 1
 470 326 l 1
 230 326 l 1
 220 328 211 335 211 347 c 0
 211 359 220 366 230 369 c 1
 470 369 l 1
 470 675 l 1
 472 685 480 694 492 694 c 0
 503 694 511 685 513 675 c 1
 513 20 l 2
 513 9 503 2 494 0 c 1
 77 0 l 1
EndSplineSet
Validated: 1
EndChar

StartChar: Gmir
Encoding: 8513 8513 136
Width: 656
VWidth: 1000
Flags: W
HStem: -22 43<87.4241 359.829> 266 43<83 255.993> 662 43<135.545 360.306>
VStem: 40 43<34.0303 266> 549 43<229.429 453.842>
LayerCount: 2
Fore
SplineSet
40 46 m 2
 40 290 l 1
 42 299 49 309 60 309 c 2
 237 309 l 1
 247 307 256 299 256 288 c 0
 256 276 247 268 237 266 c 1
 83 266 l 1
 83 50 l 2
 83 21 230 21 254 21 c 0
 428 21 549 176 549 342 c 0
 549 506 428 662 256 662 c 0
 195 662 134 646 81 617 c 0
 77 615 73 614 70 614 c 0
 58 614 48 624 48 636 c 0
 48 643 52 650 59 654 c 0
 119 687 187 705 256 705 c 0
 452 705 592 530 592 342 c 0
 592 153 452 -22 256 -22 c 0
 204 -22 40 -22 40 46 c 2
EndSplineSet
Validated: 1
EndChar

StartChar: A
Encoding: 65 65 137
Width: 722
VWidth: 1000
Flags: W
HStem: 0 35<17.0204 76.5513 109 163 193.799 244.977 375.02 442.634 477 620 650.954 702.98> 197 35<207 405>
VStem: 149 35<43.5506 123.734> 455 35<48.7887 136.449>
LayerCount: 2
Fore
SplineSet
33 0 m 1
 24 2 17 8 17 18 c 0
 17 26 24 35 33 35 c 0
 61 35 85 53 95 79 c 2
 331 694 l 2
 333 700 340 704 347 704 c 0
 353 704 360 700 363 694 c 2
 622 100 l 2
 634 73 652 35 687 35 c 1
 696 33 703 27 703 18 c 0
 703 9 696 0 687 0 c 2
 391 0 l 1
 382 2 375 8 375 18 c 0
 375 26 382 35 391 35 c 0
 415 35 437 45 455 62 c 0
 455 63 455 65 455 66 c 0
 455 100 430 164 418 197 c 1
 198 197 l 1
 191 165 184 132 184 99 c 0
 184 67 190 35 229 35 c 1
 237 33 245 27 245 18 c 0
 245 9 237 0 229 0 c 2
 33 0 l 1
109 35 m 1
 163 35 l 1
 152 55 149 77 149 99 c 0
 149 108 151 116 151 125 c 1
 128 66 l 2
 123 55 117 44 109 35 c 1
477 35 m 1
 620 35 l 1
 607 50 598 68 590 86 c 2
 348 640 l 1
 311 544 l 1
 350 465 490 136 490 66 c 0
 490 53 486 44 477 35 c 1
207 232 m 1
 405 232 l 1
 371 318 334 404 296 490 c 1
 263 402 229 310 207 232 c 1
EndSplineSet
Validated: 1
EndChar

StartChar: B
Encoding: 66 66 138
Width: 666
VWidth: 1000
Flags: W
HStem: 0 35<9.02036 97.4523 131 240 270.923 388.734> 337 35<262 356.811> 650 35<9.02036 96.8651 131 240 270.923 369.972>
VStem: 105 35<42.7041 641.912> 227 35<45.8679 337 372 639.132> 418 35<428.369 593.589> 449 35<99.013 282.728> 548 35<459.299 583.082> 586 35<125.902 253.767>
LayerCount: 2
Fore
SplineSet
25 0 m 2xf980
 16 0 9 9 9 18 c 0
 9 27 16 33 25 35 c 0
 26 35 27 35 28 35 c 0
 86 35 105 35 105 94 c 2
 105 591 l 2
 105 650 84 650 25 650 c 0
 16 650 9 659 9 668 c 0
 9 677 16 683 25 685 c 1
 338 685 l 2
 459 685 583 660 583 511 c 0
 583 445 526 394 471 367 c 1
 558 343 621 279 621 186 c 0
 621 43 452 0 338 0 c 2
 25 0 l 2xf980
131 35 m 1
 240 35 l 1
 232 46 227 59 227 73 c 2
 227 612 l 2
 227 626 232 639 240 650 c 1
 131 650 l 1
 139 632 140 613 140 593 c 2
 140 92 l 2
 140 73 140 53 131 35 c 1
262 75 m 2
 262 47 294 35 318 35 c 0
 414 35 449 99 449 186 c 0xfb80
 449 283 422 337 317 337 c 2
 262 337 l 1
 262 75 l 2
439 46 m 1
 510 63 586 103 586 186 c 0
 586 278 512 328 429 341 c 1
 475 305 484 241 484 186 c 0
 484 137 474 83 439 46 c 1
262 372 m 1
 364 372 418 403 418 511 c 0xfd80
 418 573 393 650 318 650 c 0
 294 650 262 638 262 610 c 2
 262 372 l 1
412 384 m 1
 469 397 548 444 548 511 c 0
 548 603 492 636 408 646 c 1
 442 611 453 558 453 511 c 0
 453 466 445 417 412 384 c 1
EndSplineSet
Validated: 1
EndChar

StartChar: C
Encoding: 67 67 139
Width: 722
VWidth: 1000
Flags: W
HStem: -19 48<322.287 517.657> 623 35<571.378 619.411> 669 35<332.433 465.322>
VStem: 37 35<228.2 457.479> 178 35<187.92 488.563> 622 35<471.02 526.172 567 630 660.583 703.98>
LayerCount: 2
Fore
SplineSet
392 -19 m 0
 176 -19 37 129 37 343 c 0
 37 556 176 704 392 704 c 0
 430 704 469 696 504 680 c 0
 532 667 562 658 593 658 c 0
 609 658 622 671 622 688 c 0
 622 697 631 704 640 704 c 0
 648 704 657 697 657 688 c 2
 657 488 l 2
 657 478 648 471 640 471 c 0
 632 471 624 476 623 484 c 0
 602 574 484 669 392 669 c 0
 246 669 213 453 213 342 c 0
 213 215 240 29 405 29 c 0
 499 29 590 71 650 143 c 1
 655 147 658 150 664 150 c 0
 675 150 685 140 685 130 c 0
 685 126 684 122 682 119 c 0
 611 32 504 -19 392 -19 c 0
285 31 m 1
 193 99 178 237 178 343 c 0
 178 444 196 572 269 649 c 1
 134 600 72 481 72 343 c 0
 72 196 140 75 285 31 c 1
622 567 m 1
 622 630 l 1
 617 627 614 626 611 625 c 0
 605 624 600 623 594 623 c 0
 586 623 579 623 571 624 c 1
 590 607 608 588 622 567 c 1
EndSplineSet
Validated: 1
EndChar

StartChar: D
Encoding: 68 68 140
Width: 722
VWidth: 1000
Flags: W
HStem: 0 36<20.3663 94.9935 128 241 273.486 390.233> 648 36<20.3663 94.9935 128 241 274.508 396.519>
VStem: 100 36<41.0386 642.961> 228 36<47.0693 636.344> 512 36<195.223 487.683> 652 36<237.202 462.362>
LayerCount: 2
Fore
SplineSet
20 6 m 1
 18 10 16 14 16 18 c 0
 16 22 18 26 20 30 c 1
 28 35 24 33 32 36 c 1
 88 36 100 36 100 94 c 2
 100 590 l 2
 100 648 88 648 32 648 c 1
 24 651 28 649 20 654 c 1
 18 658 16 662 16 666 c 0
 16 670 18 674 20 678 c 1
 28 683 24 681 32 684 c 1
 342 684 l 2
 541 684 688 560 688 356 c 0
 688 147 554 0 342 0 c 2
 32 0 l 1
 24 3 28 1 20 6 c 1
128 36 m 1
 241 36 l 1
 233 47 228 61 228 74 c 2
 228 610 l 2
 228 623 233 637 241 648 c 1
 128 648 l 1
 135 630 136 613 136 594 c 2
 136 90 l 2
 136 71 135 54 128 36 c 1
264 78 m 2
 264 49 295 36 320 36 c 0
 488 36 512 227 512 355 c 0
 512 470 473 648 328 648 c 0
 302 648 264 638 264 606 c 2
 264 78 l 2
464 58 m 1
 594 107 652 222 652 356 c 0
 652 485 587 586 463 629 c 0
 461 629 460 630 458 630 c 1
 528 566 548 447 548 356 c 0
 548 259 535 130 464 58 c 1
EndSplineSet
Validated: 1
EndChar

StartChar: E
Encoding: 69 69 141
Width: 666
VWidth: 1000
Flags: W
HStem: 0 36<16.3663 94.4182 128 232 263 440.67 487 578> 334 36<256 346.5> 648 36<16.3663 93.9758 128 232 263 449.187>
VStem: 100 36<41.8743 641.863> 220 36<39.6387 334 370 644.361> 419 36<200.275 277.933 438.109 523.725> 556 36<494.275 566.887>
LayerCount: 2
Fore
SplineSet
487 36 m 1
 578 36 l 1
 589 123 l 1
 561 88 526 59 487 36 c 1
16 6 m 1
 14 10 12 14 12 18 c 0
 12 22 14 26 16 30 c 1
 24 35 20 33 28 36 c 1
 86 36 100 36 100 94 c 2
 100 594 l 2
 100 648 81 648 28 648 c 1
 20 651 24 649 16 654 c 1
 14 658 12 662 12 666 c 0
 12 670 14 674 16 678 c 1
 24 683 20 681 28 684 c 1
 576 684 l 1
 584 681 580 683 588 678 c 1
 591 672 590 675 592 668 c 1
 592 504 l 1
 590 497 591 500 588 494 c 1
 583 491 580 488 574 488 c 0
 568 488 565 491 560 494 c 1
 557 500 558 497 556 504 c 1
 556 608 437 648 350 648 c 2
 286 648 l 2
 260 648 256 610 256 590 c 2
 256 370 l 1
 352 370 419 411 419 514 c 1
 422 521 420 518 423 524 c 1
 428 527 432 530 437 530 c 0
 443 530 447 527 451 524 c 1
 454 518 453 521 455 514 c 1
 455 210 l 1
 453 203 454 206 451 200 c 1
 447 197 443 194 437 194 c 0
 432 194 428 197 423 200 c 1
 420 206 422 203 419 210 c 1
 419 311 340 334 256 334 c 1
 256 94 l 2
 256 74 260 36 286 36 c 2
 360 36 l 2
 418 36 472 63 515 100 c 1
 543 126 569 152 587 187 c 0
 599 211 600 238 608 254 c 1
 613 257 616 260 622 260 c 0
 628 260 631 257 636 254 c 1
 638 250 640 246 640 241 c 2
 612 16 l 1
 610 9 611 12 608 6 c 1
 600 1 604 3 596 0 c 1
 28 0 l 1
 20 3 24 1 16 6 c 1
220 354 m 1
 220 594 l 2
 220 613 224 630 232 648 c 1
 128 648 l 1
 135 630 136 613 136 594 c 2
 136 90 l 2
 136 71 135 54 128 36 c 1
 232 36 l 1
 224 54 220 71 220 90 c 2
 220 354 l 1
EndSplineSet
Validated: 1
EndChar

StartChar: F
Encoding: 70 70 142
Width: 611
VWidth: 1000
Flags: W
HStem: 0 35<14.0204 96.4057 128 234 265.592 369.98> 336 36<259 341.462> 650 35<14.0204 95.9842 128 236 266.489 443.026 493 548>
VStem: 102 35<40.1128 644.058> 224 35<42.6531 336 372 645.56> 408 35<197.02 279.594 317 399 437.448 532.977> 548 35<489.02 567.238 602 650>
LayerCount: 2
Fore
SplineSet
30 0 m 1
 21 2 14 8 14 18 c 0
 14 27 21 33 30 35 c 0
 31 35 32 35 33 35 c 0
 90 35 102 35 102 94 c 2
 102 593 l 2
 102 650 86 650 30 650 c 1
 21 652 14 658 14 668 c 0
 14 676 21 685 30 685 c 2
 567 685 l 1
 575 683 583 678 583 669 c 2
 583 506 l 2
 583 496 574 489 566 489 c 0
 557 489 548 496 548 506 c 0
 548 606 437 650 351 650 c 2
 289 650 l 2
 263 650 259 610 259 591 c 2
 259 372 l 1
 353 372 408 421 408 516 c 0
 408 525 417 533 426 533 c 0
 434 533 443 525 443 516 c 2
 443 213 l 2
 443 204 434 197 426 197 c 0
 417 197 408 204 408 213 c 0
 408 305 342 336 259 336 c 1
 259 94 l 2
 259 69 259 45 286 39 c 0
 306 35 333 35 354 35 c 1
 363 33 370 27 370 18 c 0
 370 9 363 0 354 0 c 2
 30 0 l 1
128 35 m 1
 234 35 l 1
 225 53 224 72 224 92 c 2
 224 593 l 2
 224 613 228 632 236 650 c 1
 128 650 l 1
 136 632 137 613 137 593 c 2
 137 92 l 2
 137 73 136 53 128 35 c 1
354 356 m 1
 375 347 393 334 408 317 c 1
 408 399 l 1
 394 380 375 366 354 356 c 1
493 650 m 1
 514 638 533 622 548 602 c 1
 548 650 l 1
 493 650 l 1
EndSplineSet
Validated: 1
EndChar

StartChar: G
Encoding: 71 71 143
Width: 777
VWidth: 1000
Flags: W
HStem: -19 35<322.673 492.767> 255 35<410.02 478.837 514 657 690.766 748.977> 623 35<571.569 618.411> 669 35<332.433 465.173>
VStem: 37 35<227.532 457.479> 178 35<176.777 488.342> 512 35<38.4113 224.059> 621 35<471.02 530.342 568 630 660.583 703.98> 631 35<64.4348 229.377>
LayerCount: 2
Fore
SplineSet
392 -19 m 0xfe80
 176 -19 37 129 37 343 c 0
 37 556 176 704 392 704 c 0
 430 704 469 696 503 680 c 0
 531 667 561 658 592 658 c 0
 608 658 621 671 621 688 c 0
 621 697 630 704 639 704 c 0
 647 704 656 697 656 688 c 2
 656 488 l 2xff
 656 478 647 471 639 471 c 0
 631 471 623 476 622 484 c 0
 602 574 484 669 392 669 c 0
 246 669 213 452 213 342 c 0
 213 223 232 16 392 16 c 0
 426 16 512 16 512 63 c 2
 512 178 l 2
 512 224 469 255 426 255 c 0
 417 255 410 264 410 272 c 0
 410 282 417 288 426 290 c 1
 733 290 l 2
 741 290 749 280 749 272 c 0
 749 262 741 256 733 255 c 1
 691 255 666 216 666 178 c 2
 666 61 l 2
 666 55 662 49 657 47 c 0
 575 5 485 -19 392 -19 c 0xfe80
543 38 m 1
 573 47 602 58 631 72 c 1
 631 180 l 2xfe80
 631 207 640 234 657 255 c 1
 514 255 l 1
 534 235 547 208 547 180 c 2
 547 61 l 2
 547 53 545 45 543 38 c 1
256 41 m 1
 189 117 178 245 178 343 c 0
 178 444 196 572 269 649 c 1
 134 600 72 481 72 343 c 0
 72 211 129 93 256 41 c 1
621 568 m 1xff
 621 630 l 1
 616 627 613 626 610 625 c 0
 604 624 599 623 593 623 c 0
 585 623 578 623 571 624 c 1
 589 607 607 588 621 568 c 1xff
EndSplineSet
Validated: 1
EndChar

StartChar: H
Encoding: 72 72 144
Width: 777
VWidth: 1000
Flags: W
HStem: 0 35<17.0204 99.4057 131 242 274.016 355.98 422.02 504.406 536 647 679.016 760.98> 324 46<268 510> 650 35<17.0204 98.9842 131 242 273.594 355.98 422.02 503.984 536 647 678.594 760.98>
VStem: 105 35<40.1128 644.058> 233 35<40.9741 324 370 644.911> 510 35<40.1128 324 370 644.058> 638 35<40.9741 644.911>
LayerCount: 2
Fore
SplineSet
33 0 m 1
 24 2 17 8 17 18 c 0
 17 27 24 33 33 35 c 0
 34 35 35 35 36 35 c 0
 93 35 105 35 105 94 c 2
 105 593 l 2
 105 650 89 650 33 650 c 1
 24 652 17 658 17 668 c 0
 17 676 24 685 33 685 c 2
 340 685 l 1
 349 683 356 677 356 668 c 0
 356 658 349 652 340 650 c 0
 339 650 338 650 337 650 c 0
 280 650 268 650 268 591 c 2
 268 370 l 1
 510 370 l 1
 510 593 l 2
 510 650 494 650 438 650 c 1
 429 652 422 658 422 668 c 0
 422 676 429 685 438 685 c 2
 745 685 l 1
 754 683 761 677 761 668 c 0
 761 658 754 652 745 650 c 0
 744 650 743 650 742 650 c 0
 685 650 673 650 673 591 c 2
 673 92 l 2
 673 35 689 35 745 35 c 1
 754 33 761 27 761 18 c 0
 761 9 754 0 745 0 c 2
 438 0 l 1
 429 2 422 8 422 18 c 0
 422 27 429 33 438 35 c 0
 439 35 440 35 441 35 c 0
 498 35 510 35 510 94 c 2
 510 324 l 1
 268 324 l 1
 268 92 l 2
 268 35 284 35 340 35 c 1
 349 33 356 27 356 18 c 0
 356 9 349 0 340 0 c 2
 33 0 l 1
131 35 m 1
 242 35 l 1
 234 53 233 73 233 92 c 2
 233 593 l 2
 233 613 234 632 242 650 c 1
 131 650 l 1
 139 632 140 613 140 593 c 2
 140 92 l 2
 140 73 139 53 131 35 c 1
536 35 m 1
 647 35 l 1
 639 53 638 73 638 92 c 2
 638 593 l 2
 638 613 639 632 647 650 c 1
 536 650 l 1
 544 632 545 613 545 593 c 2
 545 92 l 2
 545 73 544 53 536 35 c 1
EndSplineSet
Validated: 1
EndChar

StartChar: I
Encoding: 73 73 145
Width: 388
VWidth: 1000
Flags: W
HStem: 0 35<20.0204 105.685 139 250 283.061 368.98> 650 35<20.0204 105.939 139 250 283.315 368.98>
VStem: 113 35<42.375 642.296> 241 35<42.7041 642.625>
LayerCount: 2
Fore
SplineSet
36 0 m 1
 27 2 20 8 20 18 c 0
 20 26 27 35 36 35 c 0
 95 35 113 35 113 94 c 2
 113 593 l 2
 113 650 93 650 36 650 c 1
 27 652 20 658 20 668 c 0
 20 676 27 685 36 685 c 2
 353 685 l 1
 362 683 369 677 369 668 c 0
 369 659 362 650 353 650 c 0
 294 650 276 650 276 591 c 2
 276 92 l 2
 276 35 296 35 353 35 c 1
 362 33 369 27 369 18 c 0
 369 9 362 0 353 0 c 2
 36 0 l 1
139 35 m 1
 250 35 l 1
 241 53 241 73 241 92 c 2
 241 593 l 2
 241 613 242 632 250 650 c 1
 139 650 l 1
 148 632 148 612 148 593 c 2
 148 92 l 2
 148 72 147 53 139 35 c 1
EndSplineSet
Validated: 1
EndChar

StartChar: J
Encoding: 74 74 146
Width: 500
VWidth: 1000
Flags: W
HStem: -75 35<122.74 236.221> 71 35<45.8767 110.123> 650 35<123.02 215.668 250 362 393.594 475.98>
VStem: 6 35<-3.88672 65.6476> 115 35<0.870735 65.6476> 225 35<-20.2882 639.77> 353 35<39.2422 644.911>
LayerCount: 2
Fore
SplineSet
6 37 m 0
 6 76 40 106 78 106 c 0
 116 106 150 76 150 37 c 0
 150 -3 122 -16 122 -30 c 0
 122 -39 155 -40 163 -40 c 0
 196 -40 225 -13 225 20 c 2
 225 593 l 2
 225 650 196 650 139 650 c 1
 130 652 123 658 123 668 c 0
 123 676 130 685 139 685 c 2
 460 685 l 1
 469 683 476 677 476 668 c 0
 476 658 469 652 460 650 c 0
 459 650 458 650 457 650 c 0
 400 650 388 650 388 591 c 2
 388 111 l 2
 388 -23 288 -75 167 -75 c 0
 99 -75 6 -45 6 37 c 0
245 -31 m 1
 317 -12 353 39 353 113 c 2
 353 593 l 2
 353 613 354 632 362 650 c 1
 250 650 l 1
 259 632 260 613 260 593 c 2
 260 18 l 2
 260 0 254 -17 245 -31 c 1
87 -24 m 1
 91 5 115 10 115 37 c 0
 115 57 97 71 78 71 c 0
 59 71 41 57 41 37 c 0
 41 8 62 -13 87 -24 c 1
EndSplineSet
Validated: 1
EndChar

StartChar: K
Encoding: 75 75 147
Width: 777
VWidth: 1000
Flags: W
HStem: 0 35<24.0204 106.406 138 249 281.016 362.98 480.02 521.984 557 688 719.091 768.98> 650 35<24.0204 105.984 138 249 280.594 362.98 454.02 503.515 534 618 657.058 730.98>
VStem: 112 35<40.1128 644.058> 240 35<40.9741 284 342 644.911> 514 35<594.807 639.89> 522 35<35.4763 70.7773>
LayerCount: 2
Fore
SplineSet
40 0 m 2xf4
 31 0 24 9 24 18 c 0
 24 27 31 33 40 35 c 0
 41 35 42 35 43 35 c 0
 100 35 112 35 112 94 c 2
 112 593 l 2
 112 650 96 650 40 650 c 0
 31 650 24 659 24 668 c 0
 24 677 31 683 40 685 c 1
 347 685 l 2
 356 685 363 676 363 668 c 0
 363 658 356 652 347 650 c 0
 346 650 345 650 344 650 c 0
 287 650 275 650 275 591 c 2
 275 342 l 1
 492 551 l 2
 505 564 514 582 514 601 c 0xf8
 514 626 497 650 470 650 c 0
 461 650 454 659 454 668 c 0
 454 677 461 683 470 685 c 1
 715 685 l 2
 724 685 731 676 731 668 c 0
 731 658 724 652 715 650 c 1
 649 650 569 567 523 523 c 2
 413 417 l 1
 674 104 l 2
 692 82 725 35 753 35 c 0
 762 35 769 26 769 18 c 0
 769 8 762 2 753 0 c 1
 496 0 l 2
 487 0 480 9 480 18 c 0
 480 27 487 33 496 35 c 0
 500 35 522 36 522 41 c 0
 522 52 502 74 494 83 c 2
 303 311 l 1
 275 284 l 1
 275 92 l 2
 275 35 291 35 347 35 c 0
 356 35 363 26 363 18 c 0
 363 8 356 2 347 0 c 1
 40 0 l 2xf4
138 35 m 1
 249 35 l 1
 241 53 240 73 240 92 c 2
 240 593 l 2
 240 613 241 632 249 650 c 1
 138 650 l 1
 146 632 147 613 147 593 c 2
 147 92 l 2
 147 73 146 53 138 35 c 1
522 104 m 2xf4
 537 86 557 65 557 41 c 0
 557 35 l 1
 688 35 l 1
 674 50 658 68 646 83 c 2
 388 393 l 1
 329 336 l 1
 522 104 l 2xf4
548 594 m 1
 570 614 593 633 618 650 c 1
 534 650 l 1
 544 635 549 618 549 601 c 0xf8
 549 599 548 596 548 594 c 1
EndSplineSet
Validated: 1
EndChar

StartChar: L
Encoding: 76 76 148
Width: 666
VWidth: 1000
Flags: W
HStem: 0 35<14.0204 96.4057 128 238 268.489 446.79 497 578> 650 35<14.0204 95.9842 128 234 265.461 343.98>
VStem: 102 35<40.1128 644.058> 226 35<39.4399 645.746>
LayerCount: 2
Fore
SplineSet
30 0 m 2
 21 0 14 9 14 18 c 0
 14 27 21 33 30 35 c 0
 31 35 32 35 33 35 c 0
 90 35 102 35 102 94 c 2
 102 593 l 2
 102 650 86 650 30 650 c 0
 21 650 14 659 14 668 c 0
 14 677 21 683 30 685 c 1
 328 685 l 2
 337 685 344 676 344 668 c 0
 344 658 337 652 328 650 c 0
 327 650 326 650 325 650 c 0
 269 650 261 649 261 591 c 2
 261 94 l 2
 261 75 265 35 291 35 c 2
 360 35 l 2
 457 35 589 107 605 211 c 0
 606 219 614 224 622 224 c 0
 631 224 639 215 639 206 c 1
 611 13 l 2
 609 5 602 1 595 0 c 1
 30 0 l 2
128 35 m 1
 238 35 l 1
 230 53 226 72 226 92 c 2
 226 593 l 2
 226 612 226 632 234 650 c 1
 128 650 l 1
 136 632 137 613 137 593 c 2
 137 92 l 2
 137 73 136 53 128 35 c 1
497 35 m 1
 578 35 l 1
 589 104 l 1
 563 76 531 53 497 35 c 1
EndSplineSet
Validated: 1
EndChar

StartChar: M
Encoding: 77 77 149
Width: 944
VWidth: 1000
Flags: W
HStem: 0 35<17.0204 83.7302 167.312 238.98 591.02 657.73 690 821 853.312 924.98> 650 35<20.0204 102.968 156 243 713 820 852.27 918.98>
VStem: 104 42<53.3911 606> 678 35<55.2835 607> 797 35<56.6188 629.716>
LayerCount: 2
Fore
SplineSet
33 0 m 2
 24 0 17 9 17 18 c 0
 17 27 24 33 33 35 c 1
 67 35 104 56 104 94 c 2
 104 640 l 1
 82 648 59 650 36 650 c 0
 27 650 20 659 20 668 c 0
 20 677 27 683 36 685 c 1
 257 685 l 2
 263 685 269 680 271 675 c 2
 466 210 l 1
 661 675 l 2
 663 681 669 684 675 685 c 1
 903 685 l 2
 912 685 919 676 919 668 c 0
 919 658 912 652 903 650 c 1
 869 650 832 629 832 591 c 2
 832 94 l 2
 832 54 874 35 909 35 c 0
 918 35 925 26 925 18 c 0
 925 8 918 2 909 0 c 1
 607 0 l 2
 598 0 591 9 591 18 c 0
 591 27 598 33 607 35 c 1
 641 35 678 56 678 94 c 2
 678 607 l 1
 428 11 l 2
 425 4 419 0 412 0 c 0
 405 0 399 4 396 11 c 2
 148 603 l 1
 146 606 l 1
 146 94 l 2
 146 54 188 35 223 35 c 0
 232 35 239 26 239 18 c 0
 239 8 232 2 223 0 c 1
 33 0 l 2
690 35 m 1
 821 35 l 1
 806 50 797 71 797 92 c 2
 797 593 l 2
 797 614 805 635 820 650 c 1
 713 650 l 1
 713 92 l 2
 713 71 705 50 690 35 c 1
412 63 m 1
 457 170 l 1
 450 171 l 1
 447 173 l 2
 444 175 442 177 440 181 c 2
 243 650 l 1
 156 650 l 1
 166 640 174 630 180 617 c 2
 412 63 l 1
EndSplineSet
Validated: 1
EndChar

StartChar: N
Encoding: 78 78 150
Width: 722
VWidth: 1000
Flags: W
HStem: 0 35<25.0204 101.391 166.483 246.98> 650 35<37.0204 99.358 133 252 489.02 569.517 632.5 701.98>
VStem: 112 42<45.1602 567> 582 42<51 195 263 640.206>
LayerCount: 2
Fore
SplineSet
41 0 m 2
 32 0 25 9 25 18 c 0
 25 27 32 33 41 35 c 1
 105 35 112 52 112 112 c 2
 112 612 l 2
 112 615 114 617 114 619 c 1
 98 637 77 650 53 650 c 0
 44 650 37 659 37 668 c 0
 37 677 44 683 53 685 c 1
 262 685 l 2
 267 685 271 681 274 678 c 2
 582 263 l 1
 582 573 l 2
 582 637 569 650 505 650 c 0
 496 650 489 659 489 668 c 0
 489 677 496 683 505 685 c 1
 686 685 l 2
 695 685 702 676 702 668 c 0
 702 658 695 652 686 650 c 1
 624 650 624 626 624 573 c 2
 624 -3 l 2
 624 -12 615 -19 607 -19 c 0
 600 -19 597 -16 593 -12 c 2
 154 567 l 1
 154 112 l 2
 154 48 167 35 231 35 c 0
 240 35 247 26 247 18 c 0
 247 8 240 2 231 0 c 1
 41 0 l 2
589 51 m 1
 589 195 l 1
 252 650 l 1
 133 650 l 1
 133 650 135 648 136 646 c 0
 141 641 146 636 151 630 c 2
 589 51 l 1
EndSplineSet
Validated: 1
EndChar

StartChar: O
Encoding: 79 79 151
Width: 777
VWidth: 1000
Flags: W
HStem: -19 35<319.617 458.383> 669 35<319.617 458.383>
VStem: 33 35<227.362 458.069> 174 35<180.073 505.814> 569 35<179.134 505.592> 710 35<227.362 458.069>
LayerCount: 2
Fore
SplineSet
389 -19 m 0
 173 -19 33 128 33 343 c 0
 33 557 173 704 389 704 c 0
 605 704 745 557 745 343 c 0
 745 128 605 -19 389 -19 c 0
389 16 m 0
 549 16 569 222 569 342 c 0
 569 462 549 669 389 669 c 0
 229 669 209 463 209 344 c 0
 209 343 l 2
 209 223 229 16 389 16 c 0
253 42 m 1
 185 117 174 245 174 343 c 0
 174 440 185 568 253 643 c 1
 126 592 68 474 68 343 c 0
 68 211 126 93 253 42 c 1
525 42 m 1
 652 93 710 211 710 343 c 0
 710 474 652 592 525 643 c 1
 593 568 604 440 604 343 c 0
 604 245 593 117 525 42 c 1
EndSplineSet
Validated: 1
EndChar

StartChar: P
Encoding: 80 80 152
Width: 611
VWidth: 1000
Flags: W
HStem: 0 35<16.0204 94.5393 126 236 268.268 350.98> 308 35<262 383.479> 650 35<16.0204 94.0289 126 240 271.14 384.529>
VStem: 99 35<39.2539 644.887> 227 35<41.7969 308 343 639.132> 427 35<391.316 608.019> 564 35<431.176 564.873>
LayerCount: 2
Fore
SplineSet
32 0 m 2
 23 0 16 9 16 18 c 0
 16 27 23 33 32 35 c 0
 33 35 34 35 35 35 c 0
 91 35 99 36 99 94 c 2
 99 593 l 2
 99 650 87 650 32 650 c 0
 23 650 16 659 16 668 c 0
 16 677 23 683 32 685 c 1
 338 685 l 2
 461 685 599 645 599 496 c 0
 599 357 453 307 336 307 c 0
 324 307 311 307 299 308 c 0
 287 308 275 308 262 308 c 1
 262 92 l 2
 262 35 279 35 335 35 c 0
 344 35 351 26 351 18 c 0
 351 8 344 2 335 0 c 1
 32 0 l 2
126 35 m 1
 236 35 l 1
 228 53 227 72 227 92 c 2
 227 612 l 2
 227 626 232 639 240 650 c 1
 126 650 l 1
 134 632 134 612 134 593 c 2
 134 92 l 2
 134 73 134 53 126 35 c 1
262 343 m 1
 317 343 l 2
 415 343 427 414 427 496 c 0
 427 582 422 650 318 650 c 0
 295 650 262 638 262 610 c 2
 262 343 l 1
426 352 m 1
 499 370 564 415 564 496 c 0
 564 580 508 624 431 641 c 1
 460 601 462 544 462 496 c 0
 462 448 458 392 426 352 c 1
EndSplineSet
Validated: 1
EndChar

StartChar: Q
Encoding: 81 81 153
Width: 777
VWidth: 1000
Flags: W
HStem: -179 35<454.977 580.892> -19 35<323.914 445.342> 669 35<319.617 458.383>
VStem: 33 35<225.234 458.069> 174 35<180.073 505.814> 569 35<179.134 505.592> 710 35<226.052 458.069>
LayerCount: 2
Fore
SplineSet
279 -4 m 1
 115 41 33 178 33 343 c 0
 33 557 173 704 389 704 c 0
 605 704 745 557 745 343 c 0
 745 169 653 29 478 -9 c 1
 509 -75 577 -117 650 -117 c 0
 671 -117 703 -108 715 -108 c 0
 724 -108 732 -116 732 -126 c 0
 732 -161 576 -179 545 -179 c 0
 430 -179 324 -109 279 -4 c 1
323 -14 m 1
 367 -94 453 -144 545 -144 c 0
 557 -144 570 -143 582 -142 c 1
 520 -123 468 -75 443 -16 c 1
 425 -18 407 -19 389 -19 c 0
 367 -19 345 -17 323 -14 c 1
389 16 m 0
 549 16 569 222 569 342 c 0
 569 462 549 669 389 669 c 0
 229 669 209 463 209 344 c 0
 209 343 l 2
 209 223 229 16 389 16 c 0
253 42 m 1
 185 117 174 245 174 343 c 0
 174 440 185 568 253 643 c 1
 126 592 68 474 68 343 c 0
 68 211 126 93 253 42 c 1
525 42 m 1
 652 93 710 211 710 343 c 0
 710 474 652 592 525 643 c 1
 593 568 604 440 604 343 c 0
 604 245 593 117 525 42 c 1
EndSplineSet
Validated: 1
EndChar

StartChar: R
Encoding: 82 82 154
Width: 722
VWidth: 1000
Flags: W
HStem: 0 35<16.0204 99.1324 131 242 274.268 356.98 525 622 655.876 702.98> 314 35<268 304 345 406.437> 650 35<16.0204 98.7318 131 246 277.175 401.521>
VStem: 105 35<40.9421 643.203> 233 35<41.7969 314 349 639.132> 457 35<398.804 595.691> 594 35<430.079 562.297>
LayerCount: 2
Fore
SplineSet
32 0 m 2
 23 0 16 9 16 18 c 0
 16 27 23 33 32 35 c 0
 33 35 34 35 35 35 c 0
 92 35 105 35 105 94 c 2
 105 593 l 2
 105 650 88 650 32 650 c 0
 23 650 16 659 16 668 c 0
 16 677 23 683 32 685 c 1
 363 685 l 2
 477 685 629 638 629 499 c 0
 629 387 553 343 453 325 c 1
 484 277 634 35 687 35 c 0
 696 35 703 26 703 18 c 0
 703 8 696 2 687 0 c 1
 514 0 l 2
 509 0 505 4 502 7 c 2
 304 314 l 1
 292 314 280 314 268 314 c 1
 268 92 l 2
 268 35 285 35 341 35 c 0
 350 35 357 26 357 18 c 0
 357 8 350 2 341 0 c 1
 32 0 l 2
131 35 m 1
 242 35 l 1
 234 53 233 72 233 92 c 2
 233 612 l 2
 233 626 238 639 246 650 c 1
 131 650 l 1
 139 632 140 613 140 593 c 2
 140 92 l 2
 140 72 139 53 131 35 c 1
525 35 m 1
 622 35 l 1
 546 109 474 229 415 320 c 1
 393 318 370 316 345 315 c 1
 525 35 l 1
268 349 m 1
 401 349 457 351 457 499 c 0
 457 597 431 650 325 650 c 0
 301 650 268 639 268 610 c 2
 268 349 l 1
460 362 m 1
 539 378 594 412 594 499 c 0
 594 581 524 623 453 640 c 1
 486 602 492 547 492 499 c 0
 492 454 491 399 460 362 c 1
EndSplineSet
Validated: 1
EndChar

StartChar: S
Encoding: 83 83 155
Width: 555
VWidth: 1000
Flags: W
HStem: -12 35<195.828 348.448> 16 35<72.682 119> 641 35<403 446.343> 669 35<193.964 326.116>
VStem: 29 35<441.077 582.408> 37 35<41 107 147.453 239.991> 113 35<521.793 624.602> 394 35<66.7357 195.196> 447 35<486.02 548.537 591 651> 496 35<124.348 264.37>
LayerCount: 2
Fore
SplineSet
37 5 m 2x87c0
 37 207 l 2
 37 209 37 212 37 215 c 0
 37 227 40 240 55 240 c 0
 65 240 72 231 72 222 c 2
 72 214 l 2x87c0
 72 127 172 23 260 23 c 0
 342 23 394 46 394 136 c 0
 394 225 291 272 221 301 c 0
 135 336 29 394 29 500 c 0
 29 642 126 704 259 704 c 0x9bc0
 287 704 314 699 340 689 c 0
 360 681 381 676 403 676 c 0x2bc0
 438 676 452 704 465 704 c 0
 473 704 482 697 482 688 c 2
 482 503 l 2
 482 493 473 486 465 486 c 0
 458 486 449 491 448 499 c 0
 436 580 342 669 259 669 c 0
 196 669 148 631 148 565 c 0
 148 488 286 442 345 419 c 0
 441 382 531 301 531 192 c 0
 531 45 384 -12 259 -12 c 0x9bc0
 232 -12 204 -7 178 3 c 0
 159 11 138 16 116 16 c 0x4bc0
 81 16 67 -12 55 -12 c 0
 46 -12 37 -5 37 5 c 2x87c0
72 41 m 1
 86 47 101 51 116 51 c 0
 119 51 l 1x47c0
 101 68 85 87 72 107 c 1
 72 41 l 1
233 334 m 0
 318 299 429 243 429 136 c 0
 429 109 425 82 413 58 c 1
 463 86 496 134 496 192 c 0
 496 286 415 354 333 386 c 0
 256 416 113 465 113 565 c 0
 113 592 120 618 134 641 c 1
 83 612 64 556 64 500 c 0x2bc0
 64 412 163 363 233 334 c 0
447 591 m 1
 447 651 l 1
 433 645 418 641 403 641 c 1
 419 626 434 609 447 591 c 1
EndSplineSet
Validated: 1
EndChar

StartChar: T
Encoding: 84 84 156
Width: 666
VWidth: 1000
Flags: W
HStem: 0 35<155.02 243.592 278 389 423.07 511.98> 650 35<68 129 175.992 252 287 380 415 491.22 538 600>
VStem: 33 35<497 559.562 597 650> 252 35<43.5725 649> 380 35<43.5462 649> 600 35<480.02 559.562 597 650>
LayerCount: 2
Fore
SplineSet
155 18 m 0
 155 27 162 33 171 35 c 1
 230 35 252 35 252 94 c 2
 252 649 l 1
 168 649 68 589 68 497 c 1
 68 497 68 497 64 487 c 1
 60 483 56 480 50 480 c 0
 41 480 33 487 33 497 c 2
 33 669 l 2
 33 678 40 683 49 685 c 1
 619 685 l 2
 627 685 635 676 635 669 c 2
 635 497 l 2
 635 487 626 480 617 480 c 0
 608 480 600 487 600 497 c 0
 600 589 499 649 415 649 c 1
 415 92 l 2
 415 35 439 35 496 35 c 0
 505 35 512 26 512 18 c 0
 512 8 505 2 496 0 c 1
 171 0 l 2
 162 0 155 9 155 18 c 0
278 35 m 1
 389 35 l 1
 381 53 380 72 380 92 c 2
 380 650 l 1
 287 650 l 1
 287 92 l 2
 287 73 287 53 278 35 c 1
538 650 m 1
 562 636 583 618 600 597 c 1
 600 650 l 1
 538 650 l 1
68 597 m 1
 84 618 105 636 129 650 c 1
 68 650 l 1
 68 597 l 1
EndSplineSet
Validated: 1
EndChar

StartChar: U
Encoding: 85 85 157
Width: 722
VWidth: 1000
Flags: W
HStem: -19 42<275.679 475.812> 650 35<16.0204 94.0289 126 232 265.315 350.98 490.02 544.757 577 621 653.243 707.98>
VStem: 99 35<130.359 644.887> 223 35<97.3361 642.625> 578 42<132.629 608.32>
LayerCount: 2
Fore
SplineSet
99 223 m 2
 99 593 l 2
 99 650 87 650 32 650 c 0
 23 650 16 659 16 668 c 0
 16 677 23 683 32 685 c 1
 335 685 l 2
 344 685 351 676 351 668 c 0
 351 658 344 652 335 650 c 1
 276 650 258 650 258 591 c 2
 258 225 l 2
 258 130 269 23 389 23 c 0
 531 23 578 127 578 253 c 2
 578 517 l 2
 578 563 567 650 506 650 c 0
 497 650 490 659 490 668 c 0
 490 677 497 683 506 685 c 1
 692 685 l 2
 701 685 708 676 708 668 c 0
 708 658 701 652 692 650 c 1
 631 650 620 563 620 517 c 2
 620 251 l 2
 620 85 531 -19 361 -19 c 0
 205 -19 99 59 99 223 c 2
282 24 m 1
 229 74 223 155 223 223 c 2
 223 593 l 2
 223 612 223 632 232 650 c 1
 126 650 l 1
 134 632 134 612 134 593 c 2
 134 225 l 2
 134 123 178 48 282 24 c 1
599 609 m 1
 604 624 611 638 621 650 c 1
 577 650 l 1
 587 638 594 624 599 609 c 1
EndSplineSet
Validated: 1
EndChar

StartChar: V
Encoding: 86 86 158
Width: 722
VWidth: 1000
Flags: W
HStem: 650 35<0.0231934 52.121 84 228 261.843 328.98 493.02 542.625 573 627 659.76 719.98>
VStem: 214 35<548.975 635.603> 550 35<525.582 643.49>
LayerCount: 2
Fore
SplineSet
352 -9 m 2
 82 585 l 2
 69 612 51 650 16 650 c 1
 8 652 0 658 0 668 c 0
 0 676 8 685 16 685 c 2
 313 685 l 1
 322 683 329 677 329 668 c 0
 329 659 322 650 313 650 c 0
 289 650 267 639 250 623 c 0
 250 622 250 621 249 620 c 1
 249 554 385 262 420 185 c 1
 463 286 550 486 550 593 c 0
 550 623 544 650 509 650 c 1
 500 652 493 658 493 668 c 0
 493 676 500 685 509 685 c 2
 704 685 l 1
 713 683 720 677 720 668 c 0
 720 659 713 650 704 650 c 0
 674 650 651 630 639 604 c 1
 384 -9 l 2
 382 -15 375 -19 368 -19 c 0
 361 -19 355 -15 352 -9 c 2
368 42 m 1
 405 133 l 1
 365 212 214 551 214 620 c 0
 214 633 219 641 228 650 c 1
 84 650 l 1
 97 635 106 617 114 599 c 2
 368 42 l 1
583 559 m 1
 607 618 l 1
 613 630 619 641 627 650 c 1
 573 650 l 1
 583 633 585 613 585 593 c 0
 585 582 584 570 583 559 c 1
EndSplineSet
Validated: 1
EndChar

StartChar: W
Encoding: 87 87 159
Width: 1000
VWidth: 1000
Flags: W
HStem: 650 35<8.02036 52.2186 82 203 234.682 286.98 383.02 432.738 464 597 628.453 690.98 784.02 836.143 867 917 947.724 991.98>
VStem: 196 35<542.982 643.279> 587 35<540.408 639.861> 847 35<563 639.715>
LayerCount: 2
Fore
SplineSet
283 -6 m 2
 72 588 l 2
 64 610 53 650 24 650 c 1
 15 652 8 658 8 668 c 0
 8 676 15 685 24 685 c 2
 271 685 l 1
 280 683 287 677 287 668 c 0
 287 659 280 650 271 650 c 0
 255 650 242 641 231 629 c 0
 231 628 231 627 231 626 c 0
 231 553 335 274 364 192 c 1
 494 492 l 1
 456 592 l 2
 446 617 430 650 399 650 c 1
 390 652 383 658 383 668 c 0
 383 676 390 685 399 685 c 2
 675 685 l 1
 684 683 691 677 691 668 c 0
 691 659 684 650 675 650 c 0
 662 650 622 638 622 622 c 0
 622 551 723 292 752 216 c 1
 787 314 847 477 847 580 c 0
 847 614 841 650 800 650 c 1
 791 652 784 658 784 668 c 0
 784 676 791 685 800 685 c 2
 976 685 l 1
 985 683 992 677 992 668 c 0
 992 659 985 650 976 650 c 0
 953 650 942 625 935 607 c 2
 717 -6 l 2
 714 -13 708 -19 700 -19 c 0
 692 -19 686 -13 683 -6 c 2
 513 443 l 1
 316 -9 l 2
 313 -15 307 -19 300 -19 c 0
 292 -19 286 -13 283 -6 c 2
302 46 m 1
 344 143 l 1
 311 238 196 540 196 626 c 0
 196 631 196 637 198 641 c 0
 199 644 203 650 203 650 c 1
 82 650 l 1
 93 634 100 615 106 597 c 2
 302 46 l 1
699 49 m 1
 738 157 l 2
 738 158 736 159 736 161 c 0
 701 251 587 537 587 622 c 0
 587 633 589 642 597 650 c 1
 464 650 l 1
 475 636 483 620 489 604 c 2
 699 49 l 1
882 563 m 1
 901 616 l 2
 905 628 910 639 917 650 c 1
 867 650 l 1
 880 629 882 604 882 580 c 0
 882 574 882 568 882 563 c 1
EndSplineSet
Validated: 1
EndChar

StartChar: X
Encoding: 88 88 160
Width: 722
VWidth: 1000
Flags: W
HStem: 0 35<18.0232 75.0407 111 177 208.032 256.98 371.023 459.057 494 626 664.285 704.98> 650 35<22.0204 72.6199 109 238 273.8 345.98 426.02 471.884 503 569 609.108 692.977>
VStem: 163 35<44.954 85> 480 35<603 643.096>
LayerCount: 2
Fore
SplineSet
34 0 m 2
 26 0 18 9 18 18 c 0
 18 27 26 33 34 35 c 1
 80 35 153 126 182 159 c 2
 308 302 l 1
 304 308 301 314 297 320 c 0
 224 429 110 599 73 637 c 0
 65 645 50 650 38 650 c 0
 29 650 22 659 22 668 c 0
 22 677 29 683 38 685 c 1
 330 685 l 2
 339 685 346 676 346 668 c 0
 346 658 339 652 330 650 c 1
 311 650 290 649 273 638 c 1
 286 594 357 490 385 449 c 1
 460 548 l 2
 472 564 480 582 480 602 c 0
 480 626 468 650 442 650 c 0
 433 650 426 659 426 668 c 0
 426 677 433 683 442 685 c 1
 677 685 l 2
 685 685 693 676 693 668 c 0
 693 658 685 652 677 650 c 1
 598 650 541 584 497 527 c 2
 409 412 l 1
 418 398 428 384 437 370 c 0
 512 257 631 80 664 44 c 1
 670 39 681 35 689 35 c 0
 698 35 705 26 705 18 c 0
 705 8 698 2 689 0 c 1
 387 0 l 2
 379 0 371 9 371 18 c 0
 371 27 379 33 387 35 c 1
 412 35 440 35 460 49 c 1
 448 96 362 221 332 266 c 1
 220 138 l 2
 207 123 198 105 198 85 c 0
 198 60 214 35 241 35 c 0
 250 35 257 26 257 18 c 0
 257 8 250 2 241 0 c 1
 34 0 l 2
111 35 m 1
 177 35 l 1
 168 50 163 67 163 85 c 1
 147 68 129 50 111 35 c 1
494 35 m 1
 626 35 l 1
 570 105 237 590 237 643 c 0
 237 645 238 650 238 650 c 1
 109 650 l 1
 166 582 496 102 496 46 c 0
 496 44 496 41 495 39 c 0
 495 38 494 35 494 35 c 1
515 603 m 1
 531 620 549 636 569 650 c 1
 503 650 l 1
 511 636 515 619 515 603 c 1
EndSplineSet
Validated: 1
EndChar

StartChar: Y
Encoding: 89 89 161
Width: 722
VWidth: 1000
Flags: W
HStem: 0 35<187.02 272.188 303 420 450.808 535.98> 650 35<19.0204 70.9967 102 220 254.001 306.98 483.02 542.745 575 626 657.619 702.98>
VStem: 219 35<604.357 645.999> 280 35<43.251 263> 408 35<42.6826 292>
LayerCount: 2
Fore
SplineSet
187 18 m 0
 187 27 194 33 203 35 c 0
 204 35 205 35 206 35 c 0
 275 35 280 43 280 112 c 2
 280 263 l 1
 101 583 l 2
 92 598 81 618 71 633 c 0
 60 649 55 650 35 650 c 0
 26 650 19 659 19 668 c 0
 19 677 26 683 35 685 c 1
 291 685 l 2
 300 685 307 676 307 668 c 0
 307 658 300 652 291 650 c 0
 290 650 289 650 288 650 c 0
 280 650 271 650 263 648 c 0
 261 648 259 647 257 646 c 0
 256 646 254 645 254 645 c 1
 254 630 266 613 273 601 c 2
 422 335 l 1
 553 546 l 2
 560 557 564 571 564 584 c 0
 564 620 535 650 499 650 c 0
 490 650 483 659 483 668 c 0
 483 677 490 683 499 685 c 1
 687 685 l 2
 696 685 703 676 703 668 c 0
 703 658 696 652 687 650 c 1
 655 650 599 554 583 528 c 2
 443 303 l 1
 443 110 l 2
 443 39 452 35 520 35 c 0
 529 35 536 26 536 18 c 0
 536 8 529 2 520 0 c 1
 203 0 l 2
 194 0 187 9 187 18 c 0
303 35 m 1
 420 35 l 1
 408 58 408 85 408 110 c 2
 408 289 l 2
 408 290 406 291 406 292 c 2
 243 583 l 2
 233 601 219 622 219 643 c 0
 219 645 220 650 220 650 c 1
 102 650 l 1
 112 635 123 616 131 601 c 2
 313 276 l 2
 314 274 315 271 315 268 c 2
 315 110 l 2
 315 85 315 58 303 35 c 1
595 611 m 1
 605 626 615 639 626 650 c 1
 575 650 l 1
 584 639 591 625 595 611 c 1
EndSplineSet
Validated: 1
EndChar

StartChar: Z
Encoding: 90 90 162
Width: 666
VWidth: 1000
Flags: W
HStem: 0 35<77 179 220 457.124 504 575> 650 35<113 169 221.023 413 454 556>
VStem: 62 35<489.026 553.925>
LayerCount: 2
Fore
SplineSet
44 0 m 2
 35 0 28 9 28 18 c 0
 28 21 29 24 31 27 c 2
 413 650 l 1
 335 650 l 2
 238 650 112 616 97 502 c 0
 95 494 86 489 80 489 c 0
 70 489 62 498 62 508 c 1
 80 669 l 2
 81 678 87 683 96 685 c 1
 589 685 l 2
 598 685 605 676 605 668 c 0
 605 664 604 661 603 659 c 2
 220 35 l 1
 365 35 l 2
 479 35 583 110 601 227 c 0
 602 236 609 243 619 243 c 0
 628 243 636 234 636 225 c 1
 608 17 l 2
 607 7 601 2 592 0 c 1
 44 0 l 2
77 35 m 1
 179 35 l 1
 556 650 l 1
 454 650 l 1
 77 35 l 1
504 35 m 1
 575 35 l 1
 584 103 l 1
 563 75 535 52 504 35 c 1
108 604 m 1
 126 623 146 638 169 650 c 1
 113 650 l 1
 108 604 l 1
EndSplineSet
Validated: 1
EndChar

StartChar: subsetornotdbleql
Encoding: 10955 10955 163
Width: 799
VWidth: 1000
Flags: W
HStem: -163 43<86.0066 267 360 711.993> 40 43<86.0066 438 531 711.993> 280 43<279.471 711.993> 780 43<279.471 711.993>
VStem: 86 43<457.928 645.55>
LayerCount: 2
Fore
SplineSet
178 -276 m 0
 178 -272 179 -267 182 -264 c 2
 267 -163 l 1
 106 -163 l 1
 95 -161 86 -153 86 -142 c 0
 86 -130 95 -122 106 -120 c 1
 303 -120 l 1
 438 40 l 1
 106 40 l 1
 95 42 86 50 86 61 c 0
 86 73 95 81 106 83 c 1
 475 83 l 1
 583 212 l 2
 587 216 593 218 599 218 c 0
 610 218 620 208 620 197 c 0
 620 192 619 187 616 184 c 2
 531 83 l 1
 693 83 l 1
 703 81 712 73 712 61 c 0
 712 50 703 42 693 40 c 1
 495 40 l 1
 360 -120 l 1
 693 -120 l 1
 703 -122 712 -130 712 -142 c 0
 712 -153 703 -161 693 -163 c 1
 323 -163 l 1
 215 -291 l 2
 211 -296 205 -298 200 -298 c 0
 188 -298 178 -288 178 -276 c 0
86 552 m 0
 86 721 230 823 397 823 c 2
 693 823 l 1
 703 821 712 813 712 802 c 0
 712 790 703 782 693 780 c 1
 401 780 l 2
 256 780 129 700 129 552 c 0
 129 403 256 323 401 323 c 2
 693 323 l 1
 703 321 712 313 712 302 c 0
 712 290 703 282 693 280 c 1
 397 280 l 2
 230 280 86 382 86 552 c 0
EndSplineSet
EndChar

StartChar: supersetornotdbleql
Encoding: 10956 10956 164
Width: 799
VWidth: 1000
Flags: W
HStem: -163 43<86.0066 267 360 711.993> 40 43<86.0066 438 531 711.993> 280 43<86.0066 518.529> 780 43<86.0066 518.529>
VStem: 669 43<457.928 645.55>
LayerCount: 2
Fore
SplineSet
178 -276 m 0
 178 -271 180 -266 184 -261 c 2
 267 -163 l 1
 106 -163 l 1
 95 -161 86 -153 86 -142 c 0
 86 -130 95 -122 106 -120 c 1
 303 -120 l 1
 438 40 l 1
 106 40 l 1
 95 42 86 50 86 61 c 0
 86 73 95 81 106 83 c 1
 475 83 l 1
 584 212 l 2
 587 216 593 218 599 218 c 0
 610 218 620 208 620 197 c 0
 620 191 618 186 614 182 c 2
 531 83 l 1
 693 83 l 1
 703 81 712 73 712 61 c 0
 712 50 703 42 693 40 c 1
 495 40 l 1
 360 -120 l 1
 693 -120 l 1
 703 -122 712 -130 712 -142 c 0
 712 -153 703 -161 693 -163 c 1
 323 -163 l 1
 215 -292 l 2
 211 -296 205 -298 200 -298 c 0
 188 -298 178 -288 178 -276 c 0
106 280 m 1
 95 282 86 290 86 302 c 0
 86 313 95 321 106 323 c 1
 397 323 l 2
 542 323 669 403 669 552 c 0
 669 700 542 780 397 780 c 2
 106 780 l 1
 95 782 86 790 86 802 c 0
 86 813 95 821 106 823 c 1
 401 823 l 2
 568 823 712 721 712 552 c 0
 712 382 568 280 401 280 c 2
 106 280 l 1
EndSplineSet
EndChar

StartChar: precneqq
Encoding: 10933 10933 165
Width: 799
VWidth: 1000
Flags: W
HStem: -192 43<86.0066 255 354 711.993> 11 43<86.0066 444 543 711.993> 451 43<86.0066 313.963>
VStem: 669 43<171.008 263.157 682.549 773.992>
LayerCount: 2
Fore
SplineSet
183 -277 m 0
 183 -272 185 -266 189 -262 c 2
 255 -192 l 1
 106 -192 l 1
 95 -190 86 -182 86 -171 c 0
 86 -159 95 -151 106 -149 c 1
 295 -149 l 1
 444 11 l 1
 106 11 l 1
 95 13 86 21 86 33 c 0
 86 44 95 52 106 54 c 1
 484 54 l 1
 578 155 l 2
 582 159 588 161 593 161 c 0
 605 161 615 151 615 139 c 0
 615 134 613 128 609 124 c 2
 543 54 l 1
 693 54 l 1
 703 52 712 44 712 33 c 0
 712 21 703 13 693 11 c 1
 503 11 l 1
 354 -149 l 1
 693 -149 l 1
 703 -151 712 -159 712 -171 c 0
 712 -182 703 -190 693 -192 c 1
 314 -192 l 1
 220 -293 l 2
 216 -297 210 -299 205 -299 c 0
 193 -299 183 -289 183 -277 c 0
106 451 m 1
 95 453 86 461 86 473 c 0
 86 484 95 492 106 494 c 1
 292 494 644 510 669 755 c 0
 671 765 679 774 691 774 c 0
 704 774 712 763 712 751 c 1
 694 573 536 502 380 473 c 1
 536 443 694 372 712 195 c 1
 712 182 704 171 691 171 c 0
 679 171 671 180 669 191 c 0
 644 435 292 451 106 451 c 1
EndSplineSet
Validated: 1
EndChar

StartChar: succneqq
Encoding: 10934 10934 166
Width: 799
VWidth: 1000
Flags: W
HStem: -192 43<86.0066 255 354 711.993> 11 43<86.0066 444 543 711.993> 451 43<484.362 711.993>
VStem: 86 43<171.008 263.157 682.697 773.992>
LayerCount: 2
Fore
SplineSet
183 -277 m 0
 183 -272 185 -266 189 -262 c 2
 255 -192 l 1
 106 -192 l 1
 95 -190 86 -182 86 -171 c 0
 86 -159 95 -151 106 -149 c 1
 295 -149 l 1
 444 11 l 1
 106 11 l 1
 95 13 86 21 86 33 c 0
 86 44 95 52 106 54 c 1
 484 54 l 1
 578 154 l 2
 582 158 588 161 593 161 c 0
 605 161 615 151 615 139 c 0
 615 134 613 128 609 124 c 2
 543 54 l 1
 693 54 l 1
 703 52 712 44 712 33 c 0
 712 21 703 13 693 11 c 1
 503 11 l 1
 354 -149 l 1
 693 -149 l 1
 703 -151 712 -159 712 -171 c 0
 712 -182 703 -190 693 -192 c 1
 314 -192 l 1
 220 -292 l 2
 216 -296 210 -299 205 -299 c 0
 193 -299 183 -289 183 -277 c 0
108 171 m 0
 94 171 86 182 86 195 c 1
 104 372 262 443 418 473 c 1
 263 502 104 575 86 751 c 1
 86 763 94 774 108 774 c 0
 119 774 127 765 129 755 c 0
 154 510 506 494 693 494 c 1
 703 492 712 484 712 473 c 0
 712 461 703 453 693 451 c 1
 506 451 154 435 129 191 c 0
 127 180 119 171 108 171 c 0
EndSplineSet
Validated: 1
EndChar

StartChar: precnapprox
Encoding: 10937 10937 167
Width: 799
VWidth: 1000
Flags: W
HStem: -252 61<482.187 651.46> -109 60<146.54 315.585> -9 61<482.415 651.46> 134 61<146.54 315.974> 522 43<86.0066 309.129>
VStem: 57 30<-251.987 -174.875 -8.98692 68.1903> 255 41<-295.985 -283> 502 41<226 238.985> 669 43<273.008 357.507 730.13 813.992> 711 30<-125.791 -49.0124 117.81 194.987>
LayerCount: 2
Fore
SplineSet
72 -252 m 0xff40
 61 -252 58 -234 57 -226 c 1
 57 -218 l 2
 57 -122 134 -49 228 -49 c 0
 271 -49 310 -64 347 -85 c 1
 415 51 l 1
 359 88 299 134 228 134 c 0
 163 134 87 90 87 17 c 1
 86 9 83 -9 72 -9 c 0
 61 -9 58 9 57 17 c 1
 57 25 l 2
 57 121 134 195 228 195 c 0
 309 195 374 140 438 99 c 1
 502 226 l 2
 506 234 512 239 522 239 c 0
 533 239 543 230 543 218 c 0
 543 215 543 212 542 210 c 2
 476 77 l 1
 476 77 477 76 478 76 c 0
 507 62 538 52 570 52 c 0
 635 52 711 96 711 169 c 1
 712 177 715 195 726 195 c 0
 737 195 740 177 741 169 c 1
 741 161 l 2
 741 65 664 -9 570 -9 c 0
 527 -9 488 7 451 28 c 1
 383 -108 l 1
 440 -145 499 -191 570 -191 c 0
 635 -191 711 -147 711 -75 c 1
 712 -66 715 -49 726 -49 c 0
 737 -49 740 -66 741 -75 c 1
 741 -83 l 2
 741 -178 664 -252 570 -252 c 0
 489 -252 424 -197 360 -156 c 1
 296 -283 l 2
 292 -291 286 -296 276 -296 c 0
 265 -296 255 -287 255 -275 c 0
 255 -272 255 -269 256 -267 c 2
 322 -134 l 1
 322 -134 321 -133 320 -133 c 0
 291 -119 260 -109 228 -109 c 0
 163 -109 87 -153 87 -226 c 1
 86 -234 83 -252 72 -252 c 0xff40
106 522 m 1
 95 524 86 532 86 544 c 0
 86 555 95 563 106 565 c 1
 282 565 642 565 669 795 c 0
 671 805 679 814 691 814 c 0
 704 814 712 803 712 791 c 1
 694 634 562 570 423 544 c 1
 562 517 694 453 712 297 c 1
 712 284 704 273 691 273 c 0
 679 273 671 282 669 293 c 0xff80
 642 522 282 522 106 522 c 1
EndSplineSet
EndChar

StartChar: succnapprox
Encoding: 10938 10938 168
Width: 799
VWidth: 1000
Flags: W
HStem: -252 61<482.187 651.46> -109 60<146.54 315.585> -9 61<482.415 651.46> 134 61<146.54 315.974> 522 43<489.196 711.993>
VStem: 57 30<-251.987 -174.875 -8.98692 68.1903> 86 43<273.008 357.768 730.13 813.992> 255 41<-295.985 -283> 502 41<226 238.985> 711 30<-125.791 -49.0124 117.81 194.987>
LayerCount: 2
Fore
SplineSet
72 -252 m 0xfdc0
 61 -252 58 -234 57 -226 c 1
 57 -218 l 2
 57 -122 134 -49 228 -49 c 0
 271 -49 310 -64 347 -85 c 1
 415 51 l 1
 359 88 299 134 228 134 c 0
 163 134 87 90 87 17 c 1
 86 9 83 -9 72 -9 c 0
 61 -9 58 9 57 17 c 1
 57 25 l 2
 57 121 134 195 228 195 c 0
 309 195 374 140 438 99 c 1
 502 226 l 2
 506 234 512 239 522 239 c 0
 533 239 543 230 543 218 c 0
 543 215 543 212 542 210 c 2
 476 77 l 1
 476 77 477 76 478 76 c 0
 507 62 538 52 570 52 c 0
 635 52 711 96 711 169 c 1
 712 177 715 195 726 195 c 0
 737 195 740 177 741 169 c 1
 741 161 l 2
 741 65 664 -9 570 -9 c 0
 527 -9 488 7 451 28 c 1
 383 -108 l 1
 440 -145 499 -191 570 -191 c 0
 635 -191 711 -147 711 -75 c 1
 712 -66 715 -49 726 -49 c 0
 737 -49 740 -66 741 -75 c 1
 741 -83 l 2
 741 -178 664 -252 570 -252 c 0
 489 -252 424 -197 360 -156 c 1
 296 -283 l 2
 292 -291 286 -296 276 -296 c 0
 265 -296 255 -287 255 -275 c 0
 255 -272 255 -269 256 -267 c 2
 322 -134 l 1
 322 -134 321 -133 320 -133 c 0
 291 -119 260 -109 228 -109 c 0
 163 -109 87 -153 87 -226 c 1
 86 -234 83 -252 72 -252 c 0xfdc0
108 273 m 0
 94 273 86 284 86 297 c 1
 104 454 236 516 375 544 c 1
 236 570 104 634 86 791 c 1
 86 803 94 814 108 814 c 0
 119 814 127 805 129 795 c 0
 156 565 516 565 693 565 c 1
 703 563 712 555 712 544 c 0
 712 532 703 524 693 522 c 1
 516 522 156 522 129 293 c 0xfbc0
 127 282 119 273 108 273 c 0
EndSplineSet
EndChar

StartChar: lessnotdbleql
Encoding: 8808 8808 169
Width: 799
VWidth: 1000
Flags: W
HStem: -192 43<86.0066 255 354 711.993> 11 43<86.0066 444 543 711.993> 171 40<702 711.885> 733 41<699 711.983>
LayerCount: 2
Fore
SplineSet
183 -277 m 0
 183 -272 185 -266 189 -262 c 2
 255 -192 l 1
 106 -192 l 1
 95 -190 86 -182 86 -171 c 0
 86 -159 95 -151 106 -149 c 1
 295 -149 l 1
 444 11 l 1
 106 11 l 1
 95 13 86 21 86 33 c 0
 86 44 95 52 106 54 c 1
 484 54 l 1
 578 155 l 2
 582 159 588 161 593 161 c 0
 605 161 615 151 615 139 c 0
 615 134 613 128 609 124 c 2
 543 54 l 1
 693 54 l 1
 703 52 712 44 712 33 c 0
 712 21 703 13 693 11 c 1
 503 11 l 1
 354 -149 l 1
 693 -149 l 1
 703 -151 712 -159 712 -171 c 0
 712 -182 703 -190 693 -192 c 1
 314 -192 l 1
 220 -293 l 2
 216 -297 210 -299 205 -299 c 0
 193 -299 183 -289 183 -277 c 0
97 454 m 2
 90 457 86 465 86 473 c 0
 86 482 92 489 100 493 c 2
 683 773 l 2
 685 774 688 774 691 774 c 0
 702 774 712 764 712 753 c 0
 712 743 706 736 699 733 c 2
 157 473 l 1
 702 211 l 2
 708 208 712 200 712 193 c 0
 712 181 702 171 691 171 c 0
 688 171 685 171 683 173 c 2
 97 454 l 2
EndSplineSet
Validated: 1
EndChar

StartChar: greaternotdbleql
Encoding: 8809 8809 170
Width: 799
VWidth: 1000
Flags: W
HStem: -192 43<86.0066 255 354 711.993> 11 43<86.0066 444 543 711.993> 171 42<86.0391 100> 734 40<86.0466 97>
LayerCount: 2
Fore
SplineSet
183 -277 m 0
 183 -272 185 -266 189 -262 c 2
 255 -192 l 1
 106 -192 l 1
 95 -190 86 -182 86 -171 c 0
 86 -159 95 -151 106 -149 c 1
 295 -149 l 1
 444 11 l 1
 106 11 l 1
 95 13 86 21 86 33 c 0
 86 44 95 52 106 54 c 1
 484 54 l 1
 578 154 l 2
 582 158 588 161 593 161 c 0
 605 161 615 151 615 139 c 0
 615 134 613 128 609 124 c 2
 543 54 l 1
 693 54 l 1
 703 52 712 44 712 33 c 0
 712 21 703 13 693 11 c 1
 503 11 l 1
 354 -149 l 1
 693 -149 l 1
 703 -151 712 -159 712 -171 c 0
 712 -182 703 -190 693 -192 c 1
 314 -192 l 1
 220 -292 l 2
 216 -296 210 -299 205 -299 c 0
 193 -299 183 -289 183 -277 c 0
86 193 m 0
 86 202 92 209 100 213 c 2
 641 473 l 1
 97 734 l 2
 90 737 86 745 86 753 c 0
 86 764 96 774 108 774 c 0
 110 774 113 774 116 773 c 2
 702 491 l 2
 708 488 712 480 712 473 c 0
 712 463 706 456 699 453 c 2
 116 173 l 2
 113 171 110 171 108 171 c 0
 96 171 86 181 86 193 c 0
EndSplineSet
Validated: 1
EndChar

StartChar: notprecede
Encoding: 8832 8832 171
Width: 799
VWidth: 1000
Flags: W
HStem: 228 43<86.0066 317.095> 531 20G<685 697.5>
VStem: 150 40<-221.954 -212> 608 40<712 721.954> 669 43<-51.992 39.7603 454.841 550.992>
LayerCount: 2
Fore
SplineSet
150 -201 m 0
 150 -198 150 -195 151 -193 c 2
 355 210 l 1
 275 224 189 228 106 228 c 1
 95 230 86 238 86 250 c 0
 86 261 95 269 106 271 c 1
 203 271 303 276 399 297 c 1
 608 712 l 2
 612 718 620 722 627 722 c 0
 638 722 648 712 648 701 c 0
 648 698 648 695 647 693 c 2
 454 312 l 1
 563 345 657 410 669 531 c 0
 671 542 679 551 691 551 c 0
 704 551 712 540 712 527 c 1
 704 453 669 389 611 343 c 0
 591 326 569 313 545 301 c 0
 524 291 502 282 479 275 c 1
 464 269 448 265 431 260 c 0
 422 258 428 260 419 241 c 1
 562 207 695 133 712 -29 c 1
 712 -41 704 -52 691 -52 c 0
 679 -52 671 -44 669 -33 c 0
 654 111 525 174 399 202 c 1
 190 -212 l 2
 186 -218 178 -222 171 -222 c 0
 160 -222 150 -212 150 -201 c 0
EndSplineSet
Validated: 1
EndChar

StartChar: notfollow
Encoding: 8833 8833 172
Width: 799
VWidth: 1000
Flags: W
HStem: 228 43<480.645 711.993> 531 20G<101 113.5>
VStem: 86 43<-51.992 43.1715 458.332 550.992> 150 40<-221.954 -212> 608 40<712 721.954>
LayerCount: 2
Fore
SplineSet
150 -201 m 0
 150 -198 150 -195 151 -193 c 2
 343 187 l 1
 235 153 141 88 129 -33 c 0
 127 -44 119 -52 108 -52 c 0
 94 -52 86 -41 86 -29 c 1
 94 45 130 110 188 156 c 0
 208 172 230 186 254 198 c 0
 275 208 297 217 320 225 c 0
 336 230 352 234 368 239 c 0
 376 241 369 239 379 258 c 1
 235 291 102 366 86 527 c 1
 86 540 94 551 108 551 c 0
 119 551 127 542 129 531 c 0
 144 387 272 325 399 297 c 1
 608 712 l 2
 612 718 620 722 627 722 c 0
 638 722 648 712 648 701 c 0
 648 698 648 695 647 693 c 2
 443 289 l 1
 522 275 609 271 693 271 c 1
 703 269 712 261 712 250 c 0
 712 238 703 230 693 228 c 1
 594 228 495 223 399 202 c 1
 190 -212 l 2
 186 -218 178 -222 171 -222 c 0
 160 -222 150 -212 150 -201 c 0
EndSplineSet
Validated: 1
EndChar

StartChar: followsim
Encoding: 8831 8831 173
Width: 818
Flags: W
HStem: -247 62<503.218 657.052> -69 62<160.382 313.782> 435 44<495.451 728.971>
VStem: 58 31<-246.986 -155.948> 88 44<148.035 243.136 671.556 765.965> 728 31<-97.6809 -7.01308>
LayerCount: 2
Fore
SplineSet
74 -247 m 0xf4
 63 -247 59 -228 58 -220 c 1
 58 -212 l 2
 58 -112 125 -7 233 -7 c 0
 376 -7 446 -185 584 -185 c 0
 666 -185 728 -114 728 -34 c 1
 729 -25 732 -7 743 -7 c 0
 754 -7 758 -25 759 -34 c 1
 759 -42 l 2
 759 -141 693 -247 584 -247 c 0
 441 -247 371 -69 233 -69 c 0
 152 -69 89 -140 89 -220 c 1
 88 -228 85 -247 74 -247 c 0xf4
708 435 m 1
 518 435 158 420 132 169 c 0
 130 158 121 148 109 148 c 0
 96 148 88 160 88 173 c 1
 106 354 268 427 427 458 c 1
 268 488 106 560 88 742 c 1
 88 754 96 766 109 766 c 0
 121 766 130 756 132 746 c 0xec
 158 494 517 479 708 479 c 1
 719 477 729 469 729 458 c 0
 729 446 719 437 708 435 c 1
EndSplineSet
Validated: 1
EndChar

StartChar: precedenotsim
Encoding: 8936 8936 174
Width: 799
VWidth: 1000
Flags: W
HStem: -151 60<489.767 642.748> 23 60<155.685 308.191> 485 43<86.0066 314.164>
VStem: 57 30<-150.987 -62.4653> 669 43<235.008 319.913 694.835 777.992> 711 30<-5.47681 82.9876>
LayerCount: 2
Fore
SplineSet
72 -151 m 0xf4
 61 -151 58 -133 57 -125 c 1
 57 -117 l 2
 57 -19 123 83 228 83 c 0
 294 83 347 43 394 3 c 1
 503 200 l 2
 507 206 514 210 522 210 c 0
 533 210 543 201 543 189 c 0
 543 185 542 181 540 178 c 2
 428 -26 l 1
 469 -59 515 -91 570 -91 c 0
 650 -91 711 -21 711 57 c 1
 712 66 715 83 726 83 c 0
 737 83 740 66 741 57 c 1
 741 49 l 2
 741 -48 676 -151 570 -151 c 0
 504 -151 451 -110 403 -70 c 1
 295 -267 l 2
 291 -273 284 -277 276 -277 c 0
 265 -277 255 -268 255 -256 c 0
 255 -252 256 -248 258 -245 c 2
 370 -42 l 1
 329 -9 283 23 228 23 c 0
 149 23 87 -47 87 -125 c 1
 86 -133 83 -151 72 -151 c 0xf4
106 485 m 1
 95 487 86 495 86 507 c 0
 86 518 95 526 106 528 c 1
 293 528 645 542 669 759 c 0
 670 769 679 778 691 778 c 0
 704 778 712 767 712 755 c 1
 700 598 536 536 381 507 c 1
 536 477 696 417 712 259 c 1
 712 246 704 235 691 235 c 0
 679 235 670 244 669 255 c 0xf8
 645 475 292 485 106 485 c 1
EndSplineSet
EndChar

StartChar: follownotsim
Encoding: 8937 8937 175
Width: 799
VWidth: 1000
Flags: W
HStem: -151 60<489.767 642.748> 23 60<155.685 308.191> 489 43<484.161 711.993>
VStem: 57 30<-150.987 -62.4653> 86 43<239.008 323.652 698.852 781.992> 711 30<-5.47681 82.9876>
LayerCount: 2
Fore
SplineSet
72 -151 m 0xf4
 61 -151 58 -133 57 -125 c 1
 57 -117 l 2
 57 -19 123 83 228 83 c 0
 294 83 347 43 394 3 c 1
 503 200 l 2
 507 206 514 210 522 210 c 0
 533 210 543 201 543 189 c 0
 543 185 542 181 540 178 c 2
 428 -26 l 1
 469 -59 515 -91 570 -91 c 0
 650 -91 711 -21 711 57 c 1
 712 66 715 83 726 83 c 0
 737 83 740 66 741 57 c 1
 741 49 l 2
 741 -48 676 -151 570 -151 c 0
 504 -151 451 -110 403 -70 c 1
 295 -267 l 2
 291 -273 284 -277 276 -277 c 0
 265 -277 255 -268 255 -256 c 0
 255 -252 256 -248 258 -245 c 2
 370 -42 l 1
 329 -9 283 23 228 23 c 0
 149 23 87 -47 87 -125 c 1
 86 -133 83 -151 72 -151 c 0xf4
108 239 m 0
 94 239 86 250 86 263 c 1
 103 414 262 481 417 511 c 1
 262 540 101 604 86 759 c 1
 86 771 94 782 108 782 c 0
 119 782 128 773 129 763 c 0
 153 546 506 532 693 532 c 1
 703 530 712 522 712 511 c 0
 712 499 703 491 693 489 c 1
 505 489 151 478 129 259 c 0xec
 128 248 119 239 108 239 c 0
EndSplineSet
EndChar

StartChar: lessnotsim
Encoding: 8934 8934 176
Width: 799
VWidth: 1000
Flags: W
HStem: -151 60<489.767 642.748> 23 60<155.685 308.191> 235 40<702 711.885> 737 41<699 711.983>
VStem: 57 30<-150.987 -62.4653> 711 30<-5.47681 82.9876>
LayerCount: 2
Fore
SplineSet
72 -151 m 4
 61 -151 58 -133 57 -125 c 5
 57 -117 l 6
 57 -19 123 83 228 83 c 4
 294 83 347 43 394 3 c 5
 503 200 l 6
 507 206 514 210 522 210 c 4
 533 210 543 201 543 189 c 4
 543 185 542 181 540 178 c 6
 428 -26 l 5
 469 -59 515 -91 570 -91 c 4
 650 -91 711 -21 711 57 c 5
 712 66 715 83 726 83 c 4
 737 83 740 66 741 57 c 5
 741 49 l 6
 741 -48 676 -151 570 -151 c 4
 504 -151 451 -110 403 -70 c 5
 295 -267 l 6
 291 -273 284 -277 276 -277 c 4
 265 -277 255 -268 255 -256 c 4
 255 -252 256 -248 258 -245 c 6
 370 -42 l 5
 329 -9 283 23 228 23 c 4
 149 23 87 -47 87 -125 c 5
 86 -133 83 -151 72 -151 c 4
97 488 m 2
 90 491 86 499 86 507 c 0
 86 516 92 523 100 527 c 2
 683 777 l 2
 685 778 688 778 691 778 c 0
 702 778 712 768 712 757 c 0
 712 747 706 740 699 737 c 2
 157 507 l 1
 702 275 l 2
 708 272 712 264 712 257 c 0
 712 245 702 235 691 235 c 0
 688 235 685 235 683 237 c 2
 97 488 l 2
EndSplineSet
EndChar

StartChar: greaternotsim
Encoding: 8935 8935 177
Width: 799
VWidth: 1000
Flags: W
HStem: -151 60<489.767 642.748> 23 60<155.685 308.191> 239 42<86.0391 100> 742 40<86.0466 97>
VStem: 57 30<-150.987 -62.4653> 711 30<-5.47681 82.9876>
LayerCount: 2
Fore
SplineSet
72 -151 m 0
 61 -151 58 -133 57 -125 c 1
 57 -117 l 2
 57 -19 123 83 228 83 c 0
 294 83 347 43 394 3 c 1
 503 200 l 2
 507 206 514 210 522 210 c 0
 533 210 543 201 543 189 c 0
 543 185 542 181 540 178 c 2
 428 -26 l 1
 469 -59 515 -91 570 -91 c 0
 650 -91 711 -21 711 57 c 1
 712 66 715 83 726 83 c 0
 737 83 740 66 741 57 c 1
 741 49 l 2
 741 -48 676 -151 570 -151 c 0
 504 -151 451 -110 403 -70 c 1
 295 -267 l 2
 291 -273 284 -277 276 -277 c 0
 265 -277 255 -268 255 -256 c 0
 255 -252 256 -248 258 -245 c 2
 370 -42 l 1
 329 -9 283 23 228 23 c 0
 149 23 87 -47 87 -125 c 1
 86 -133 83 -151 72 -151 c 0
86 261 m 0
 86 270 92 277 100 281 c 2
 641 511 l 1
 97 742 l 2
 90 745 86 753 86 761 c 0
 86 772 96 782 108 782 c 0
 110 782 113 782 116 781 c 2
 702 529 l 2
 708 526 712 518 712 511 c 0
 712 501 706 494 699 491 c 2
 116 241 l 2
 113 239 110 239 108 239 c 0
 96 239 86 249 86 261 c 0
EndSplineSet
EndChar

StartChar: notlesseql
Encoding: 8816 8816 178
Width: 799
VWidth: 1000
Flags: W
HStem: -154 43<86.0066 209 273 711.993> 49 40<702 711.971> 610 42<699 711.961>
VStem: 150 41<-322.985 -310> 607 41<810 822.985>
LayerCount: 2
Fore
SplineSet
150 -302 m 0
 150 -299 150 -296 151 -294 c 2
 209 -154 l 1
 106 -154 l 1
 95 -152 86 -145 86 -133 c 0
 86 -121 95 -113 106 -111 c 1
 227 -111 l 1
 358 206 l 1
 97 332 l 2
 90 335 86 343 86 350 c 0
 86 359 92 366 100 370 c 2
 506 565 l 1
 607 810 l 2
 610 818 618 823 627 823 c 0
 638 823 648 813 648 802 c 0
 648 799 648 796 647 794 c 2
 564 593 l 1
 683 650 l 2
 685 651 688 652 691 652 c 0
 702 652 712 642 712 630 c 0
 712 621 706 614 699 610 c 2
 540 534 l 1
 413 227 l 1
 702 89 l 2
 708 86 712 77 712 70 c 0
 712 58 702 49 691 49 c 0
 688 49 685 49 683 50 c 2
 397 188 l 1
 273 -111 l 1
 693 -111 l 1
 703 -114 712 -121 712 -133 c 0
 712 -145 703 -152 693 -154 c 1
 255 -154 l 1
 191 -310 l 2
 188 -318 180 -323 171 -323 c 0
 160 -323 150 -313 150 -302 c 0
157 350 m 1
 374 246 l 1
 481 506 l 1
 157 350 l 1
EndSplineSet
Validated: 1
EndChar

StartChar: notgreatereql
Encoding: 8817 8817 179
Width: 799
VWidth: 1000
Flags: W
HStem: -154 43<86.0066 209 273 711.993> 49 40<86.0291 97> 610 42<86.0391 100>
VStem: 150 41<-322.985 -310> 607 41<810 822.985>
LayerCount: 2
Fore
SplineSet
150 -302 m 0
 150 -299 150 -296 151 -294 c 2
 209 -154 l 1
 106 -154 l 1
 95 -152 86 -145 86 -133 c 0
 86 -121 95 -114 106 -111 c 1
 227 -111 l 1
 337 157 l 1
 116 50 l 2
 113 49 110 49 108 49 c 0
 96 49 86 58 86 70 c 0
 86 77 90 86 97 89 c 2
 362 216 l 1
 454 440 l 1
 100 610 l 2
 92 614 86 621 86 630 c 0
 86 642 96 652 108 652 c 0
 110 652 113 651 116 650 c 2
 471 480 l 1
 607 810 l 2
 610 818 618 823 627 823 c 0
 638 823 648 813 648 802 c 0
 648 799 648 796 647 794 c 2
 509 461 l 1
 699 370 l 2
 706 366 712 359 712 350 c 0
 712 343 708 335 702 332 c 2
 395 185 l 1
 273 -111 l 1
 693 -111 l 1
 703 -113 712 -121 712 -133 c 0
 712 -145 703 -152 693 -154 c 1
 255 -154 l 1
 191 -310 l 2
 188 -318 180 -323 171 -323 c 0
 160 -323 150 -313 150 -302 c 0
420 244 m 1
 641 350 l 1
 493 421 l 1
 420 244 l 1
EndSplineSet
Validated: 1
EndChar

StartChar: notless
Encoding: 8814 8814 180
Width: 799
VWidth: 1000
Flags: W
HStem: -52 41<699 711.983> 511 40<702 711.954>
VStem: 150 40<-221.974 -212> 608 40<712 721.974>
LayerCount: 2
Fore
SplineSet
150 -201 m 0
 150 -198 150 -195 151 -193 c 2
 313 127 l 1
 100 230 l 2
 92 233 86 240 86 250 c 0
 86 257 90 265 97 268 c 2
 476 450 l 1
 608 712 l 2
 612 718 620 722 627 722 c 0
 638 722 648 713 648 701 c 0
 648 698 648 695 647 693 c 2
 540 481 l 1
 683 550 l 2
 685 551 688 551 691 551 c 0
 702 551 712 541 712 530 c 0
 712 522 708 514 702 511 c 2
 508 418 l 1
 371 147 l 1
 699 -11 l 2
 706 -14 712 -21 712 -31 c 0
 712 -42 702 -52 691 -52 c 0
 688 -52 685 -52 683 -51 c 2
 352 108 l 1
 190 -212 l 2
 186 -218 178 -222 171 -222 c 0
 160 -222 150 -213 150 -201 c 0
157 250 m 1
 332 165 l 1
 444 387 l 1
 157 250 l 1
EndSplineSet
Validated: 1
EndChar

StartChar: notgreater
Encoding: 8815 8815 181
Width: 799
VWidth: 1000
Flags: W
HStem: -52 41<86.0175 100> 511 40<86.0466 97>
VStem: 150 40<-221.974 -212> 608 40<712 721.974>
LayerCount: 2
Fore
SplineSet
150 -201 m 0
 150 -197 151 -193 153 -190 c 2
 258 18 l 1
 116 -51 l 2
 113 -52 110 -52 108 -52 c 0
 96 -52 86 -42 86 -31 c 0
 86 -21 92 -14 100 -11 c 2
 289 81 l 1
 427 352 l 1
 97 511 l 2
 90 514 86 522 86 530 c 0
 86 541 96 551 108 551 c 0
 110 551 113 551 116 550 c 2
 446 391 l 1
 608 712 l 2
 612 718 620 722 627 722 c 0
 638 722 648 713 648 701 c 0
 648 697 647 693 645 690 c 2
 485 372 l 1
 702 268 l 2
 708 265 712 257 712 250 c 0
 712 240 706 233 699 230 c 2
 321 48 l 1
 190 -212 l 2
 186 -218 178 -222 171 -222 c 0
 160 -222 150 -213 150 -201 c 0
353 111 m 1
 641 250 l 1
 465 334 l 1
 353 111 l 1
EndSplineSet
Validated: 1
EndChar

StartChar: difference
Encoding: 8783 8783 182
Width: 818
Flags: W
HStem: 130 44<58.0073 758.993> 338 44<58.029 261.482 555.543 758.971> 469 44<345.28 472.445>
LayerCount: 2
Fore
SplineSet
79 130 m 1
 68 132 58 140 58 152 c 0
 58 164 68 171 79 174 c 1
 739 174 l 1
 749 171 759 164 759 152 c 0
 759 140 749 132 739 130 c 1
 79 130 l 1
79 338 m 1
 68 340 58 347 58 359 c 0
 58 371 68 379 79 382 c 1
 257 382 l 1
 268 456 333 513 409 513 c 0
 485 513 549 456 560 382 c 1
 739 382 l 1
 749 379 759 371 759 359 c 0
 759 347 749 340 739 338 c 1
 538 338 l 2
 527 338 520 348 518 357 c 1
 518 417 470 469 409 469 c 0
 348 469 299 417 299 357 c 0
 299 346 289 340 280 338 c 1
 79 338 l 1
EndSplineSet
Validated: 1
EndChar

StartChar: approx
Encoding: 8776 8776 183
Width: 799
VWidth: 1000
Flags: W
HStem: 48 80<475.59 655.044> 171 80<141.401 322.41> 291 80<475.59 655.044> 414 80<141.401 322.41>
VStem: 57 34<48.0182 121.262 291.018 364.262> 707 34<178.482 250.982 421.482 493.982>
LayerCount: 2
Fore
SplineSet
74 48 m 0
 61 48 57 72 57 82 c 2
 57 95 l 2
 57 192 138 251 228 251 c 0
 356 251 444 128 570 128 c 0
 618 128 707 158 707 218 c 0
 707 226 712 251 724 251 c 0
 737 251 741 227 741 218 c 2
 741 205 l 2
 741 107 661 48 570 48 c 0
 442 48 354 171 228 171 c 0
 180 171 91 141 91 82 c 0
 91 73 86 48 74 48 c 0
74 291 m 0
 61 291 57 315 57 325 c 2
 57 338 l 2
 57 435 138 494 228 494 c 0
 356 494 444 371 570 371 c 0
 618 371 707 401 707 461 c 0
 707 469 712 494 724 494 c 0
 737 494 741 470 741 461 c 2
 741 448 l 2
 741 350 661 291 570 291 c 0
 442 291 354 414 228 414 c 0
 180 414 91 384 91 325 c 0
 91 316 86 291 74 291 c 0
EndSplineSet
Validated: 1
EndChar

StartChar: simeqq
Encoding: 8773 8773 184
Width: 799
VWidth: 1000
Flags: W
HStem: -5 43<57.0066 740.993> 198 43<57.0066 740.993> 393 60<484.127 650.073> 533 63<154.23 318.267>
VStem: 57 30<393.013 465.685> 711 30<518.875 595.987>
LayerCount: 2
Fore
SplineSet
487 412 m 1
 403 455 323 533 241 533 c 5
 176 533 87 491 87 419 c 1
 86 411 83 393 72 393 c 0
 61 393 58 411 57 419 c 1
 57 427 l 2
 57 522 134 596 228 596 c 0
 334 596 406 506 498 468 c 1
 534 454 560 453 570 453 c 0
 635 453 711 498 711 570 c 1
 712 578 715 596 726 596 c 0
 737 596 740 578 741 570 c 1
 741 562 l 2
 741 466 664 393 570 393 c 0
 549 393 504 403 487 412 c 1
77 241 m 9
 722 241 l 17
 732 239 741 231 741 220 c 0
 741 208 732 200 722 198 c 1
 77 198 l 1
 66 201 57 208 57 220 c 0
 57 231 66 239 77 241 c 9
77 38 m 1
 722 38 l 1
 732 36 741 28 741 17 c 0
 741 5 732 -3 722 -5 c 1
 230 -5 l 1
 77 -5 l 1
 66 -2 57 5 57 17 c 0
 57 28 66 36 77 38 c 1
EndSplineSet
Validated: 1
EndChar

StartChar: notsimdbleql
Encoding: 8775 8775 185
Width: 799
VWidth: 1000
Flags: W
HStem: -5 43<57.0066 230 303 740.993> 198 43<57.0066 345 419 740.993> 393 60<540.328 650.073> 536 60<147.927 314.37> 653 20G<623 632.5>
VStem: 57 30<393.013 469.791> 711 30<518.875 595.987>
LayerCount: 2
Fore
SplineSet
150 -151 m 0
 150 -147 151 -143 153 -140 c 2
 230 -5 l 1
 77 -5 l 1
 66 -2 57 5 57 17 c 0
 57 28 66 36 77 38 c 1
 254 38 l 1
 345 198 l 1
 77 198 l 1
 66 201 57 208 57 220 c 0
 57 231 66 239 77 241 c 1
 369 241 l 1
 470 419 l 1
 392 458 322 536 228 536 c 0
 163 536 87 491 87 419 c 1
 86 411 83 393 72 393 c 0
 61 393 58 411 57 419 c 1
 57 427 l 2
 57 522 134 596 228 596 c 0
 334 596 406 506 498 468 c 1
 608 662 l 2
 612 669 619 673 627 673 c 0
 638 673 648 663 648 651 c 0
 648 647 647 643 645 640 c 2
 540 455 l 1
 550 454 560 453 570 453 c 0
 635 453 711 498 711 570 c 1
 712 578 715 596 726 596 c 0
 737 596 740 578 741 570 c 1
 741 562 l 2
 741 466 664 393 570 393 c 0
 549 393 529 396 510 402 c 1
 419 241 l 1
 722 241 l 1
 732 239 741 231 741 220 c 0
 741 208 732 200 722 198 c 1
 394 198 l 1
 303 38 l 1
 722 38 l 1
 732 36 741 28 741 17 c 0
 741 5 732 -3 722 -5 c 1
 279 -5 l 1
 190 -162 l 2
 186 -169 179 -173 171 -173 c 0
 160 -173 150 -163 150 -151 c 0
EndSplineSet
Validated: 1
EndChar

StartChar: lessnotapprox
Encoding: 10889 10889 186
Width: 799
VWidth: 1000
Flags: W
HStem: -229 61<486.205 655.293> -83 61<143.921 313.042> 19 62<484.914 655.293> 166 61<143.921 313.608> 333 42<699 711.967> 773 41<699 711.985>
VStem: 49 31<-228.987 -150.945 19.0138 98.0546> 267 49<-289.998 -273> 491 41<282 295.983> 719 31<-99.7209 -22.0124 148.295 226.988>
LayerCount: 2
Fore
SplineSet
100 554 m 2
 91 557 86 565 86 574 c 0
 86 582 91 590 100 594 c 2
 683 813 l 2
 685 814 688 814 691 814 c 0
 702 814 712 804 712 793 c 0
 712 784 707 776 699 773 c 2
 162 574 l 1
 699 375 l 2
 707 371 712 363 712 355 c 0
 712 343 702 333 691 333 c 0
 688 333 685 333 683 335 c 1
 100 554 l 2
65 19 m 4
 54 19 50 38 49 46 c 5
 49 54 l 6
 49 152 128 227 224 227 c 4
 304 227 366 177 430 135 c 5
 491 282 l 6
 494 290 502 296 511 296 c 4
 522 296 532 286 532 274 c 4
 532 271 532 269 531 266 c 6
 469 111 l 5
 502 93 536 81 575 81 c 4
 643 81 719 127 719 201 c 5
 720 210 723 227 734 227 c 4
 745 227 749 210 750 201 c 5
 750 192 l 6
 750 95 671 19 575 19 c 4
 528 19 487 37 448 60 c 5
 390 -88 l 5
 448 -127 505 -168 575 -168 c 4
 643 -168 719 -122 719 -48 c 5
 720 -39 723 -22 734 -22 c 4
 745 -22 749 -39 750 -48 c 5
 750 -56 l 6
 750 -153 671 -229 575 -229 c 4
 496 -229 434 -179 370 -137 c 5
 316 -273 l 6
 313 -281 297 -291 288 -291 c 4
 277 -291 267 -281 267 -269 c 4
 267 -266 267 -264 268 -261 c 6
 329 -113 l 5
 296 -96 262 -83 224 -83 c 4
 157 -83 80 -128 80 -203 c 5
 79 -211 76 -229 65 -229 c 4
 54 -229 50 -211 49 -203 c 5
 49 -195 l 6
 49 -97 128 -22 224 -22 c 4
 271 -22 311 -39 349 -62 c 5
 410 85 l 5
 352 124 295 166 224 166 c 4
 157 166 80 121 80 46 c 5
 79 38 76 19 65 19 c 4
EndSplineSet
EndChar

StartChar: greaternotapprox
Encoding: 10890 10890 187
Width: 799
VWidth: 1000
Flags: W
HStem: -229 61<486.205 655.293> -83 61<143.921 313.042> 19 62<484.914 655.293> 166 61<143.921 313.608> 333 42<86.0329 100> 773 41<86.0146 100>
VStem: 49 31<-228.987 -150.945 19.0138 98.0546> 267 49<-289.998 -273> 491 41<282 295.983> 719 31<-99.7209 -22.0124 148.295 226.988>
LayerCount: 2
Fore
SplineSet
65 19 m 0
 54 19 50 38 49 46 c 1
 49 54 l 2
 49 152 128 227 224 227 c 0
 304 227 366 177 430 135 c 1
 491 282 l 2
 494 290 502 296 511 296 c 0
 522 296 532 286 532 274 c 0
 532 271 532 269 531 266 c 2
 469 111 l 1
 502 93 536 81 575 81 c 0
 643 81 719 127 719 201 c 1
 720 210 723 227 734 227 c 0
 745 227 749 210 750 201 c 1
 750 192 l 2
 750 95 671 19 575 19 c 0
 528 19 487 37 448 60 c 1
 390 -88 l 1
 448 -127 505 -168 575 -168 c 0
 643 -168 719 -122 719 -48 c 1
 720 -39 723 -22 734 -22 c 0
 745 -22 749 -39 750 -48 c 1
 750 -56 l 2
 750 -153 671 -229 575 -229 c 0
 496 -229 434 -179 370 -137 c 1
 316 -273 l 2
 313 -281 297 -291 288 -291 c 0
 277 -291 267 -281 267 -269 c 0
 267 -266 267 -264 268 -261 c 2
 329 -113 l 1
 296 -96 262 -83 224 -83 c 0
 157 -83 80 -128 80 -203 c 1
 79 -211 76 -229 65 -229 c 0
 54 -229 50 -211 49 -203 c 1
 49 -195 l 2
 49 -97 128 -22 224 -22 c 0
 271 -22 311 -39 349 -62 c 1
 410 85 l 1
 352 124 295 166 224 166 c 0
 157 166 80 121 80 46 c 1
 79 38 76 19 65 19 c 0
86 355 m 0
 86 363 91 371 100 375 c 2
 636 574 l 1
 100 773 l 2
 91 776 86 784 86 793 c 0
 86 804 96 814 108 814 c 0
 110 814 113 814 116 813 c 2
 699 594 l 2
 707 590 712 582 712 574 c 0
 712 565 707 557 699 554 c 2
 116 335 l 2
 113 333 110 333 108 333 c 0
 96 333 86 343 86 355 c 0
EndSplineSet
EndChar

StartChar: lessnoteql
Encoding: 10887 10887 188
Width: 799
VWidth: 1000
Flags: W
HStem: -154 43<86.0066 347 451 711.993> -30 20G<498 506.5> 49 40<702 711.885> 611 41<699 711.983>
LayerCount: 2
Fore
SplineSet
106 -154 m 1
 95 -152 86 -144 86 -133 c 0
 86 -121 95 -113 106 -111 c 1
 390 -111 l 1
 486 -16 l 2
 489 -12 495 -10 501 -10 c 0
 512 -10 522 -19 522 -31 c 0
 522 -36 520 -42 516 -46 c 2
 451 -111 l 1
 693 -111 l 1
 703 -113 712 -121 712 -133 c 0
 712 -144 703 -152 693 -154 c 1
 408 -154 l 1
 313 -250 l 2
 309 -253 303 -256 298 -256 c 0
 286 -256 276 -246 276 -234 c 0
 276 -229 278 -223 282 -219 c 2
 347 -154 l 1
 106 -154 l 1
97 332 m 2
 90 335 86 343 86 351 c 0
 86 360 92 367 100 371 c 2
 683 651 l 2
 685 652 688 652 691 652 c 0
 702 652 712 642 712 631 c 0
 712 621 706 614 699 611 c 2
 157 351 l 1
 702 89 l 2
 708 86 712 78 712 71 c 0
 712 59 702 49 691 49 c 0
 688 49 685 49 683 51 c 2
 97 332 l 2
EndSplineSet
Validated: 1
EndChar

StartChar: greaternoteql
Encoding: 10888 10888 189
Width: 799
VWidth: 1000
Flags: W
HStem: -154 43<86.0066 347 451 711.993> -30 20G<498 506.5> 49 42<86.0391 100> 612 40<86.0466 97>
LayerCount: 2
Fore
SplineSet
106 -154 m 1
 95 -152 86 -144 86 -133 c 0
 86 -121 95 -113 106 -111 c 1
 390 -111 l 1
 486 -16 l 2
 489 -12 495 -10 501 -10 c 0
 512 -10 522 -19 522 -31 c 0
 522 -37 520 -42 516 -47 c 2
 451 -111 l 1
 693 -111 l 1
 703 -113 712 -121 712 -133 c 0
 712 -144 703 -152 693 -154 c 1
 408 -154 l 1
 313 -250 l 2
 309 -253 303 -256 298 -256 c 0
 286 -256 276 -246 276 -234 c 0
 276 -228 278 -223 283 -219 c 2
 347 -154 l 1
 106 -154 l 1
86 71 m 0
 86 80 92 87 100 91 c 2
 641 351 l 1
 97 612 l 2
 90 615 86 623 86 631 c 0
 86 642 96 652 108 652 c 0
 110 652 113 652 116 651 c 2
 702 369 l 2
 708 366 712 358 712 351 c 0
 712 341 706 334 699 331 c 2
 116 51 l 2
 113 49 110 49 108 49 c 0
 96 49 86 59 86 71 c 0
EndSplineSet
Validated: 1
EndChar

StartChar: precapprox
Encoding: 10935 10935 190
Width: 799
VWidth: 1000
Flags: W
HStem: -252 60<482.51 650.073> -109 60<147.927 315.49> -9 60<482.51 650.073> 134 60<147.927 315.49> 522 43<86.0066 309.129>
VStem: 57 30<-251.987 -175.209 -8.98692 67.791> 669 43<273.008 357.507 730.13 813.992> 711 30<-125.791 -49.0131 117.209 193.987>
LayerCount: 2
Fore
SplineSet
72 -252 m 0xfd
 61 -252 58 -234 57 -226 c 1
 57 -218 l 2
 57 -123 134 -49 228 -49 c 0
 360 -49 441 -192 570 -192 c 0
 635 -192 711 -147 711 -75 c 1
 712 -67 715 -49 726 -49 c 0
 737 -49 740 -67 741 -75 c 1
 741 -83 l 2
 741 -178 664 -252 570 -252 c 0
 438 -252 357 -109 228 -109 c 0
 163 -109 87 -154 87 -226 c 1
 86 -234 83 -252 72 -252 c 0xfd
72 -9 m 0
 61 -9 58 9 57 17 c 1
 57 25 l 2
 57 120 134 194 228 194 c 0
 360 194 441 51 570 51 c 0
 635 51 711 96 711 168 c 1
 712 176 715 194 726 194 c 0
 737 194 740 176 741 168 c 1
 741 160 l 2
 741 65 664 -9 570 -9 c 0
 438 -9 357 134 228 134 c 0
 163 134 87 89 87 17 c 1
 86 9 83 -9 72 -9 c 0
106 522 m 1
 95 524 86 532 86 544 c 0
 86 555 95 563 106 565 c 1
 282 565 642 565 669 795 c 0
 671 805 679 814 691 814 c 0
 704 814 712 803 712 791 c 1
 694 634 562 570 423 544 c 1
 562 517 694 453 712 297 c 1
 712 284 704 273 691 273 c 0
 679 273 671 282 669 293 c 0xfe
 642 522 282 522 106 522 c 1
EndSplineSet
EndChar

StartChar: succapprox
Encoding: 10936 10936 191
Width: 799
VWidth: 1000
Flags: W
HStem: -252 60<482.51 650.073> -109 60<147.927 315.49> -9 60<482.51 650.073> 134 60<147.927 315.49> 522 43<489.196 711.993>
VStem: 57 30<-251.987 -175.209 -8.98692 67.791> 86 43<273.008 357.768 730.13 813.992> 711 30<-125.791 -49.0131 117.209 193.987>
LayerCount: 2
Fore
SplineSet
72 -252 m 4xfd
 61 -252 58 -234 57 -226 c 5
 57 -218 l 6
 57 -123 134 -49 228 -49 c 4
 360 -49 441 -192 570 -192 c 4
 635 -192 711 -147 711 -75 c 5
 712 -67 715 -49 726 -49 c 4
 737 -49 740 -67 741 -75 c 5
 741 -83 l 6
 741 -178 664 -252 570 -252 c 4
 438 -252 357 -109 228 -109 c 4
 163 -109 87 -154 87 -226 c 5
 86 -234 83 -252 72 -252 c 4xfd
72 -9 m 4
 61 -9 58 9 57 17 c 5
 57 25 l 6
 57 120 134 194 228 194 c 4
 360 194 441 51 570 51 c 4
 635 51 711 96 711 168 c 5
 712 176 715 194 726 194 c 4
 737 194 740 176 741 168 c 5
 741 160 l 6
 741 65 664 -9 570 -9 c 4
 438 -9 357 134 228 134 c 4
 163 134 87 89 87 17 c 5
 86 9 83 -9 72 -9 c 4
108 273 m 0
 94 273 86 284 86 297 c 1
 104 454 236 516 375 544 c 1
 236 570 104 634 86 791 c 1
 86 803 94 814 108 814 c 0
 119 814 127 805 129 795 c 0
 156 565 516 565 693 565 c 1
 703 563 712 555 712 544 c 0
 712 532 703 524 693 522 c 1
 516 522 156 522 129 293 c 0xfb
 127 282 119 273 108 273 c 0
EndSplineSet
EndChar

StartChar: notsubseteql
Encoding: 8840 8840 192
Width: 799
VWidth: 1000
Flags: W
HStem: -154 43<108.006 209 273 711.993> 49 43<358 711.993> 65 40<272.297 299> 609 43<299.095 524 588 711.993>
VStem: 86 43<252.858 448.241> 150 41<-322.985 -310> 607 41<810 822.985>
LayerCount: 2
Fore
SplineSet
150 -302 m 0xde
 150 -299 150 -296 151 -294 c 2
 209 -154 l 1
 127 -154 l 1
 116 -152 108 -144 108 -133 c 0
 108 -121 116 -113 127 -111 c 1
 227 -111 l 1
 299 65 l 1xbe
 176 104 86 220 86 351 c 0
 86 520 230 652 397 652 c 2
 542 652 l 1
 607 810 l 2
 610 818 618 823 627 823 c 0
 638 823 648 813 648 802 c 0
 648 799 648 796 647 794 c 2
 588 652 l 1
 693 652 l 1
 703 650 712 642 712 631 c 0
 712 619 703 611 693 609 c 1
 571 609 l 1
 358 95 l 1
 372 93 387 92 401 92 c 2
 693 92 l 1
 703 90 712 82 712 71 c 0
 712 59 703 51 693 49 c 1
 397 49 l 2
 378 49 359 51 341 54 c 1
 273 -111 l 1
 693 -111 l 1
 703 -113 712 -121 712 -133 c 0
 712 -144 703 -152 693 -154 c 1
 256 -154 l 1
 191 -310 l 2
 188 -318 180 -323 171 -323 c 0
 160 -323 150 -313 150 -302 c 0xde
316 105 m 1
 524 609 l 1
 401 609 l 2
 256 609 129 499 129 351 c 0
 129 237 208 138 316 105 c 1
EndSplineSet
Validated: 1
EndChar

StartChar: notsuperseteql
Encoding: 8841 8841 193
Width: 799
VWidth: 1000
Flags: W
HStem: -154 43<86.0066 209 273 690.993> 49 43<86.0066 293 357 498.905> 609 43<86.0066 507.012>
VStem: 150 41<-322.985 -310> 607 41<810 822.985> 669 43<253.237 449.962>
LayerCount: 2
Fore
SplineSet
150 -302 m 0
 150 -299 150 -296 151 -294 c 2
 209 -154 l 1
 106 -154 l 1
 95 -152 86 -144 86 -133 c 0
 86 -121 95 -113 106 -111 c 1
 227 -111 l 1
 293 49 l 1
 106 49 l 1
 95 51 86 59 86 71 c 0
 86 82 95 90 106 92 c 1
 310 92 l 1
 514 585 l 1
 477 601 437 609 397 609 c 2
 106 609 l 1
 95 611 86 619 86 631 c 0
 86 642 95 650 106 652 c 1
 401 652 l 2
 445 652 490 642 530 624 c 1
 607 810 l 2
 610 818 618 823 627 823 c 0
 638 823 648 813 648 802 c 0
 648 799 648 796 647 794 c 2
 569 604 l 1
 656 550 712 454 712 351 c 0
 712 181 568 49 401 49 c 2
 339 49 l 1
 273 -111 l 1
 671 -111 l 1
 682 -113 691 -121 691 -133 c 0
 691 -144 682 -152 671 -154 c 1
 256 -154 l 1
 191 -310 l 2
 188 -318 180 -323 171 -323 c 0
 160 -323 150 -313 150 -302 c 0
357 92 m 1
 397 92 l 2
 542 92 669 202 669 351 c 0
 669 437 623 517 552 564 c 1
 357 92 l 1
EndSplineSet
Validated: 1
EndChar

StartChar: subsetnoteq
Encoding: 8842 8842 194
Width: 799
VWidth: 1000
Flags: W
HStem: -154 43<108.006 343 455 711.993> -30 20G<508.5 517> 49 43<299.095 711.993> 609 43<299.095 711.993>
VStem: 86 43<253.237 448.241>
LayerCount: 2
Fore
SplineSet
127 -154 m 1
 116 -152 108 -144 108 -133 c 0
 108 -121 116 -113 127 -111 c 1
 391 -111 l 1
 496 -16 l 2
 500 -12 506 -10 511 -10 c 0
 523 -10 533 -19 533 -31 c 0
 533 -37 530 -43 526 -47 c 2
 455 -111 l 1
 693 -111 l 1
 703 -113 712 -121 712 -133 c 0
 712 -144 703 -152 693 -154 c 1
 407 -154 l 1
 302 -250 l 2
 298 -253 292 -256 287 -256 c 0
 275 -256 265 -246 265 -234 c 0
 265 -228 268 -222 272 -219 c 2
 343 -154 l 1
 127 -154 l 1
86 351 m 0
 86 520 230 652 397 652 c 2
 693 652 l 1
 703 650 712 642 712 631 c 0
 712 619 703 611 693 609 c 1
 401 609 l 2
 256 609 129 499 129 351 c 0
 129 202 256 92 401 92 c 2
 693 92 l 1
 703 90 712 82 712 71 c 0
 712 59 703 51 693 49 c 1
 397 49 l 2
 230 49 86 181 86 351 c 0
EndSplineSet
Validated: 1
EndChar

StartChar: supersetnoteq
Encoding: 8843 8843 195
Width: 799
VWidth: 1000
Flags: W
HStem: -154 43<86.0066 351 447 690.993> -30 20G<487.5 496> 49 43<86.0066 498.905> 609 43<86.0066 498.905>
VStem: 669 43<253.237 448.241>
LayerCount: 2
Fore
SplineSet
106 -154 m 1
 95 -152 86 -144 86 -133 c 0
 86 -121 95 -113 106 -111 c 1
 389 -111 l 1
 475 -16 l 2
 478 -12 485 -10 490 -10 c 0
 502 -10 511 -19 511 -31 c 0
 511 -37 509 -42 505 -46 c 2
 447 -111 l 1
 671 -111 l 1
 682 -113 691 -121 691 -133 c 0
 691 -144 682 -152 671 -154 c 1
 409 -154 l 1
 323 -250 l 2
 320 -254 313 -256 308 -256 c 0
 296 -256 287 -246 287 -234 c 0
 287 -228 289 -223 293 -219 c 2
 351 -154 l 1
 106 -154 l 1
106 49 m 1
 95 51 86 59 86 71 c 0
 86 82 95 90 106 92 c 1
 397 92 l 2
 542 92 669 202 669 351 c 0
 669 499 542 609 397 609 c 2
 106 609 l 1
 95 611 86 619 86 631 c 0
 86 642 95 650 106 652 c 1
 401 652 l 2
 568 652 712 520 712 351 c 0
 712 181 568 49 401 49 c 2
 106 49 l 1
EndSplineSet
Validated: 1
EndChar

StartChar: notturnstile
Encoding: 8876 8876 196
Width: 628
VWidth: 1000
Flags: W
HStem: 0 21G<-41.5 -33 73 84.5> 326 43<100 208 305 569.993>
VStem: 57 43<0.00656509 92 205 326 369 693.993>
LayerCount: 2
Fore
SplineSet
-57 22 m 0
 -57 27 -55 32 -51 37 c 2
 57 157 l 1
 57 675 l 1
 59 685 67 694 79 694 c 0
 90 694 98 685 100 675 c 1
 100 369 l 1
 247 369 l 1
 533 688 l 2
 537 692 543 694 548 694 c 0
 560 694 570 684 570 673 c 0
 570 667 568 662 564 658 c 2
 305 369 l 1
 551 369 l 1
 561 366 570 359 570 347 c 0
 570 335 561 328 551 326 c 1
 266 326 l 1
 100 140 l 1
 100 20 l 1
 98 9 90 0 79 0 c 0
 67 0 59 9 57 20 c 1
 57 92 l 1
 -21 6 l 2
 -24 2 -30 0 -36 0 c 0
 -47 0 -57 10 -57 22 c 0
100 205 m 1
 208 326 l 1
 100 326 l 1
 100 205 l 1
EndSplineSet
Validated: 1
EndChar

StartChar: notforces
Encoding: 8878 8878 197
Width: 742
VWidth: 1000
Flags: W
HStem: 0 21G<-41.5 -33 73 84.5 276 287.5> 326 43<369 683.993>
VStem: 57 43<0.00656509 78 177 693.993> 260 43<0.00656509 268 369 693.993>
LayerCount: 2
Fore
SplineSet
-57 22 m 0
 -57 27 -55 33 -51 37 c 2
 57 137 l 1
 57 675 l 1
 59 685 67 694 79 694 c 0
 90 694 98 685 100 675 c 1
 100 177 l 1
 260 327 l 1
 260 675 l 1
 262 685 270 694 282 694 c 0
 293 694 301 685 303 675 c 1
 303 369 l 1
 647 688 l 2
 651 692 657 694 662 694 c 0
 674 694 684 684 684 673 c 0
 684 667 682 661 678 658 c 2
 369 369 l 1
 665 369 l 1
 675 367 684 359 684 348 c 0
 684 336 675 328 665 326 c 1
 323 326 l 1
 303 308 l 1
 303 20 l 1
 301 9 293 0 282 0 c 0
 270 0 262 9 260 20 c 1
 260 268 l 1
 100 118 l 1
 100 20 l 1
 98 9 90 0 79 0 c 0
 67 0 59 9 57 20 c 1
 57 78 l 1
 -21 6 l 2
 -25 2 -30 0 -36 0 c 0
 -47 0 -57 10 -57 22 c 0
EndSplineSet
Validated: 1
EndChar

StartChar: notsatisfies
Encoding: 8877 8877 198
Width: 628
VWidth: 1000
Flags: W
HStem: 0 21G<-41.5 -33 73 84.5> 225 43<100 118 214 569.993> 428 43<100 300 397 569.993>
VStem: 57 43<0.00656509 92 205 225 268 428 471 693.993>
LayerCount: 2
Fore
SplineSet
-57 22 m 0
 -57 27 -55 32 -51 37 c 2
 57 157 l 1
 57 675 l 1
 59 685 67 694 79 694 c 0
 90 694 98 685 100 675 c 1
 100 471 l 1
 339 471 l 1
 533 688 l 2
 537 692 543 694 548 694 c 0
 560 694 570 684 570 673 c 0
 570 667 568 662 564 658 c 2
 397 471 l 1
 551 471 l 1
 561 469 570 461 570 450 c 0
 570 438 561 430 551 428 c 1
 358 428 l 1
 214 268 l 1
 551 268 l 1
 561 266 570 258 570 247 c 0
 570 235 561 227 551 225 c 1
 176 225 l 1
 100 140 l 1
 100 20 l 1
 98 9 90 0 79 0 c 0
 67 0 59 9 57 20 c 1
 57 92 l 1
 -20 7 l 2
 -24 2 -30 0 -36 0 c 0
 -47 0 -57 10 -57 22 c 0
100 205 m 1
 118 225 l 1
 100 225 l 1
 100 205 l 1
100 268 m 1
 157 268 l 1
 300 428 l 1
 100 428 l 1
 100 268 l 1
EndSplineSet
Validated: 1
EndChar

StartChar: notforcesextra
Encoding: 8879 8879 199
Width: 742
VWidth: 1000
Flags: W
HStem: 0 21G<-41.5 -33 73 84.5 276 287.5> 225 43<303 683.993> 428 43<303 368 477 683.993>
VStem: 57 43<0.00656509 78 177 693.993> 260 43<0.00656509 225 367 428 471 693.993>
LayerCount: 2
Fore
SplineSet
-57 22 m 0
 -57 27 -55 33 -51 37 c 2
 57 137 l 1
 57 675 l 1
 59 685 67 694 79 694 c 0
 90 694 98 685 100 675 c 1
 100 177 l 1
 260 327 l 1
 260 675 l 1
 262 685 270 694 282 694 c 0
 293 694 301 685 303 675 c 1
 303 471 l 1
 414 471 l 1
 647 688 l 2
 651 692 657 694 662 694 c 0
 674 694 684 684 684 673 c 0
 684 667 682 661 678 658 c 2
 477 471 l 1
 665 471 l 1
 675 468 684 461 684 449 c 0
 684 437 675 430 665 428 c 1
 431 428 l 1
 303 308 l 1
 303 268 l 1
 665 268 l 1
 675 265 684 258 684 246 c 0
 684 234 675 227 665 225 c 1
 303 225 l 1
 303 20 l 1
 301 9 293 0 282 0 c 0
 270 0 262 9 260 20 c 1
 260 268 l 1
 100 118 l 1
 100 20 l 1
 98 9 90 0 79 0 c 0
 67 0 59 9 57 20 c 1
 57 78 l 1
 -21 6 l 2
 -25 2 -30 0 -36 0 c 0
 -47 0 -57 10 -57 22 c 0
303 367 m 1
 368 428 l 1
 303 428 l 1
 303 367 l 1
EndSplineSet
Validated: 1
EndChar

StartChar: nottrianglelefteq
Encoding: 8940 8940 200
Width: 799
VWidth: 1000
Flags: W
HStem: -154 43<87.0058 230 291 711.993>
VStem: 178 42<-322.967 -310> 579 41<810 822.985> 669 43<104 596>
LayerCount: 2
Fore
SplineSet
178 -302 m 0
 178 -299 178 -297 179 -295 c 2
 230 -154 l 1
 106 -154 l 1
 95 -152 87 -145 87 -133 c 0
 87 -121 95 -114 106 -111 c 1
 245 -111 l 1
 360 205 l 1
 100 330 l 2
 92 334 87 341 87 350 c 0
 87 357 90 366 97 369 c 2
 487 556 l 1
 579 810 l 2
 581 818 590 823 599 823 c 0
 610 823 620 813 620 802 c 0
 620 799 620 797 619 795 c 2
 542 583 l 1
 683 650 l 2
 685 651 688 652 691 652 c 0
 702 652 710 643 712 632 c 1
 712 68 l 1
 710 57 702 49 691 49 c 0
 688 49 685 49 683 50 c 2
 399 187 l 1
 291 -111 l 1
 693 -111 l 1
 703 -113 712 -121 712 -133 c 0
 712 -145 703 -152 693 -154 c 1
 276 -154 l 1
 220 -310 l 2
 217 -318 208 -323 200 -323 c 0
 188 -323 178 -313 178 -302 c 0
414 227 m 1
 669 104 l 1
 669 596 l 1
 521 525 l 1
 414 227 l 1
158 350 m 1
 375 246 l 1
 466 498 l 1
 158 350 l 1
EndSplineSet
Validated: 1
EndChar

StartChar: nottriangleleft
Encoding: 8938 8938 201
Width: 799
VWidth: 1000
Flags: W
HStem: 531 20G<689.5 696.5>
VStem: 178 42<-221.967 -209> 579 41<709 721.985> 669 43<3 495>
LayerCount: 2
Fore
SplineSet
178 -201 m 0
 178 -198 178 -195 180 -193 c 1
 320 124 l 1
 100 229 l 2
 92 233 87 240 87 249 c 0
 87 256 90 265 97 268 c 2
 461 443 l 1
 579 709 l 2
 582 717 590 722 599 722 c 0
 610 722 620 712 620 701 c 0
 620 698 620 695 619 693 c 2
 521 471 l 1
 683 549 l 2
 685 550 688 551 691 551 c 0
 702 551 710 542 712 531 c 1
 712 -33 l 1
 710 -44 702 -52 691 -52 c 0
 688 -52 685 -52 683 -51 c 2
 358 105 l 1
 220 -209 l 2
 216 -217 208 -222 200 -222 c 0
 188 -222 178 -212 178 -201 c 0
376 144 m 1
 669 3 l 1
 669 495 l 1
 494 411 l 1
 376 144 l 1
158 249 m 1
 337 163 l 1
 434 382 l 1
 158 249 l 1
EndSplineSet
Validated: 1
EndChar

StartChar: nottriangleright
Encoding: 8939 8939 202
Width: 799
VWidth: 1000
Flags: W
HStem: 531 20G<102 109>
VStem: 86 43<3 495> 178 42<-221.967 -209> 579 41<709 721.985>
LayerCount: 2
Fore
SplineSet
178 -201 m 0
 178 -198 178 -195 180 -193 c 1
 276 26 l 1
 116 -51 l 2
 113 -52 110 -52 108 -52 c 0
 96 -52 88 -44 86 -33 c 1
 86 531 l 1
 88 542 96 551 108 551 c 0
 110 551 113 550 116 549 c 2
 439 394 l 1
 579 709 l 2
 582 717 590 722 599 722 c 0
 610 722 620 712 620 701 c 0
 620 698 620 695 619 693 c 2
 478 375 l 1
 699 269 l 2
 707 265 713 258 713 249 c 0
 713 242 709 234 702 231 c 2
 336 55 l 1
 220 -209 l 2
 216 -217 208 -222 200 -222 c 0
 188 -222 178 -212 178 -201 c 0
129 3 m 1
 303 87 l 1
 422 355 l 1
 129 495 l 1
 129 3 l 1
363 116 m 1
 641 249 l 1
 461 336 l 1
 363 116 l 1
EndSplineSet
Validated: 1
EndChar

StartChar: nottrianglerighteq
Encoding: 8941 8941 203
Width: 799
VWidth: 1000
Flags: W
HStem: -154 43<86.0066 230 291 712.993>
VStem: 86 43<104 596> 178 42<-322.967 -310> 579 41<810 822.985>
LayerCount: 2
Fore
SplineSet
178 -302 m 0
 178 -299 178 -297 179 -295 c 2
 230 -154 l 1
 106 -154 l 1
 95 -152 86 -145 86 -133 c 0
 86 -121 95 -114 106 -111 c 1
 245 -111 l 1
 343 160 l 1
 116 50 l 2
 113 49 110 49 108 49 c 0
 96 49 88 57 86 68 c 1
 86 632 l 1
 88 643 96 652 108 652 c 0
 110 652 113 651 116 650 c 2
 461 484 l 1
 579 810 l 2
 581 818 590 823 599 823 c 0
 610 823 620 813 620 802 c 0
 620 799 620 797 619 795 c 2
 500 466 l 1
 699 370 l 2
 707 366 713 359 713 350 c 0
 713 343 709 335 702 332 c 2
 399 186 l 1
 291 -111 l 1
 693 -111 l 1
 704 -113 713 -121 713 -133 c 0
 713 -145 704 -152 693 -154 c 1
 276 -154 l 1
 220 -310 l 2
 217 -318 208 -323 200 -323 c 0
 188 -323 178 -313 178 -302 c 0
129 104 m 1
 364 217 l 1
 446 444 l 1
 129 596 l 1
 129 104 l 1
420 244 m 1
 641 350 l 1
 485 425 l 1
 420 244 l 1
EndSplineSet
Validated: 1
EndChar

StartChar: notdblleftarrow
Encoding: 8653 8653 204
Width: 1027
VWidth: 1000
Flags: W
HStem: 127 43<321 533 598 969.993> 330 43<320 619 684 969.993> 519 20G<718.5 729>
VStem: 473 41<-39.9825 -26> 703 41<526 538.985>
LayerCount: 2
Fore
SplineSet
57 250 m 1
 196 289 315 388 378 518 c 1
 421 518 l 1
 395 464 361 415 320 373 c 1
 638 373 l 1
 703 526 l 2
 706 534 714 539 723 539 c 0
 735 539 744 529 744 518 c 0
 744 515 744 512 743 510 c 2
 684 373 l 1
 951 373 l 1
 961 370 970 363 970 351 c 0
 970 339 961 332 951 330 c 1
 666 330 l 1
 598 170 l 1
 951 170 l 1
 961 167 970 160 970 148 c 0
 970 136 961 129 951 127 c 1
 580 127 l 1
 514 -26 l 2
 511 -34 503 -40 494 -40 c 0
 483 -40 473 -30 473 -18 c 0
 473 -15 473 -13 474 -10 c 2
 533 127 l 1
 321 127 l 1
 361 84 395 35 421 -19 c 1
 378 -19 l 1
 315 112 196 211 57 250 c 1
154 250 m 1
 198 228 239 201 276 170 c 1
 551 170 l 1
 619 330 l 1
 275 330 l 1
 238 298 198 271 154 250 c 1
EndSplineSet
Validated: 1
EndChar

StartChar: notdblbotharrow
Encoding: 8654 8654 205
Width: 1027
VWidth: 1000
Flags: W
HStem: 127 43<256 451 510 771> 330 43<256 516 575 771> 519 20G<595 605>
VStem: 406 42<-38.9672 -3.61829> 579 42<503.618 538.967>
LayerCount: 2
Fore
SplineSet
299 -19 m 1
 250 101 154 199 35 250 c 1
 154 300 250 398 299 518 c 1
 342 518 l 1
 321 465 291 416 256 373 c 1
 530 373 l 1
 579 526 l 2
 582 534 591 539 599 539 c 0
 611 539 621 529 621 518 c 0
 621 514 621 516 620 511 c 2
 575 373 l 1
 771 373 l 1
 736 416 706 465 685 518 c 1
 728 518 l 1
 777 398 873 300 992 250 c 1
 873 199 777 101 728 -19 c 1
 685 -19 l 1
 706 34 735 83 771 127 c 1
 497 127 l 1
 448 -26 l 2
 445 -34 436 -39 428 -39 c 0
 416 -39 406 -29 406 -18 c 0
 406 -14 406 -16 407 -11 c 2
 451 127 l 1
 256 127 l 1
 292 83 321 34 342 -19 c 1
 299 -19 l 1
118 250 m 1
 154 227 188 200 218 170 c 1
 465 170 l 1
 516 330 l 1
 217 330 l 1
 188 299 154 273 118 250 c 1
510 170 m 1
 809 170 l 1
 839 200 873 227 909 250 c 1
 873 273 839 299 810 330 c 1
 562 330 l 1
 510 170 l 1
EndSplineSet
Validated: 1
EndChar

StartChar: notdblrightarrow
Encoding: 8655 8655 206
Width: 1027
VWidth: 1000
Flags: W
HStem: 127 43<57.0066 342 408 706> 330 43<57.0066 429 494 707> 519 20G<528.5 538.5>
VStem: 283 41<-39.9825 -26> 513 41<526 538.985>
LayerCount: 2
Fore
SplineSet
77 127 m 1
 66 129 57 136 57 148 c 0
 57 160 66 167 77 170 c 1
 361 170 l 1
 429 330 l 1
 77 330 l 1
 66 332 57 339 57 351 c 0
 57 363 66 370 77 373 c 1
 447 373 l 1
 513 526 l 2
 516 534 524 539 533 539 c 0
 544 539 554 529 554 518 c 0
 554 515 554 512 553 510 c 2
 494 373 l 1
 707 373 l 1
 666 415 632 464 606 518 c 1
 649 518 l 1
 712 388 831 289 970 250 c 1
 831 211 712 112 649 -19 c 1
 606 -19 l 1
 632 35 666 84 706 127 c 1
 389 127 l 1
 324 -26 l 2
 321 -34 313 -40 304 -40 c 0
 292 -40 283 -30 283 -18 c 0
 283 -15 283 -13 284 -10 c 2
 342 127 l 1
 77 127 l 1
408 170 m 1
 751 170 l 1
 788 201 829 228 873 250 c 1
 829 271 789 298 752 330 c 1
 476 330 l 1
 408 170 l 1
EndSplineSet
Validated: 1
EndChar

StartChar: k
Encoding: 107 107 207
Width: 555
VWidth: 1000
Flags: W
HStem: 0 35<20.0204 58.0882 89 179 210.489 248.977 294.02 336.804 372 466 498.206 537.98> 428 35<304.02 340.655 372 417 453.711 517.98> 650 35<20.0204 58.0882 89 168>
VStem: 66 35<39.3413 645.659> 168 35<39.3413 195 245 650> 337 35<35.2437 72.5899 397.067 427.99>
LayerCount: 2
Fore
SplineSet
36 0 m 1
 27 2 20 8 20 18 c 0
 20 26 27 35 36 35 c 0
 61 35 66 74 66 94 c 2
 66 591 l 2
 66 611 61 650 36 650 c 1
 27 652 20 658 20 668 c 0
 20 676 27 685 36 685 c 2
 187 685 l 1
 195 683 203 678 203 669 c 2
 203 245 l 1
 316 347 l 2
 331 361 342 379 342 400 c 0
 342 414 336 428 320 428 c 1
 311 430 304 436 304 446 c 0
 304 454 311 463 320 463 c 2
 502 463 l 1
 511 461 518 455 518 446 c 0
 518 437 511 428 502 428 c 0
 456 428 374 350 340 319 c 2
 308 290 l 1
 456 104 l 2
 467 89 506 35 522 35 c 1
 531 33 538 27 538 18 c 0
 538 9 531 0 522 0 c 2
 310 0 l 1
 301 2 294 8 294 18 c 0
 294 26 301 35 310 35 c 0
 317 35 333 35 337 41 c 1
 337 53 319 73 312 83 c 2
 214 205 l 1
 203 195 l 1
 203 94 l 2
 203 74 207 35 233 35 c 1
 241 33 249 27 249 18 c 0
 249 9 241 0 233 0 c 2
 36 0 l 1
89 35 m 1
 179 35 l 1
 171 52 168 73 168 92 c 2
 168 650 l 1
 89 650 l 1
 97 633 101 612 101 593 c 2
 101 92 l 2
 101 72 97 53 89 35 c 1
340 104 m 1
 353 86 372 65 372 41 c 0
 372 35 l 1
 466 35 l 1
 453 50 439 69 428 83 c 2
 282 266 l 1
 240 229 l 1
 340 104 l 1
377 397 m 1
 390 408 404 419 417 428 c 1
 372 428 l 1
 372 426 l 1
 374 422 375 418 376 413 c 0
 376 409 377 405 377 400 c 0
 377 397 l 1
EndSplineSet
Validated: 1
EndChar

StartChar: eth
Encoding: 240 240 208
Width: 571
VWidth: 1000
Flags: W
HStem: -22 32<216.647 344.774> 431 29<214.673 338.562> 517 112<59.2424 116.172> 607 112<453 510.758> 687 29<78.6756 196.469>
VStem: 43 92<118.97 322.634> 59 60<560 628.703> 432 95<176.442 338.737 350 458.917> 451 60<607.297 677>
LayerCount: 2
Fore
SplineSet
43 220 m 0xd5
 43 351 140 460 274 460 c 0
 346 460 405 413 435 350 c 1
 435 453 399 551 316 615 c 1
 113 522 l 2
 106 518 97 517 89 517 c 0
 80 517 64 518 59 527 c 1
 59 619 l 1
 64 628 80 629 89 629 c 0
 98 629 114 628 119 619 c 1
 119 560 l 1
 285 636 l 1
 226 671 157 687 88 687 c 0
 84 687 78 692 78 696 c 2
 78 707 l 2
 78 713 85 716 90 716 c 0xea
 173 716 256 696 329 656 c 1
 457 715 l 2
 464 718 473 719 481 719 c 0
 490 719 506 718 511 709 c 1
 511 617 l 1
 506 608 490 607 481 607 c 0
 472 607 456 608 451 617 c 1
 451 677 l 1xd280
 362 636 l 1
 458 572 527 466 527 347 c 0
 527 190 481 -22 285 -22 c 0
 149 -22 43 83 43 220 c 0xd5
163 75 m 1
 194 31 231 10 285 10 c 0
 391 10 432 126 432 215 c 0
 432 217 431 219 431 222 c 0
 431 229 432 237 432 245 c 0
 432 333 377 431 279 431 c 0
 154 431 135 320 135 222 c 0
 135 220 135 219 135 218 c 0xc5
 135 168 135 117 163 75 c 1
EndSplineSet
Validated: 1
EndChar

StartChar: eqsim
Encoding: 8770 8770 209
Width: 799
VWidth: 1000
Flags: W
HStem: 27 60<491.117 642.315> 200 60<155.685 306.883> 430 43<57.0066 740.993>
VStem: 57 30<27.0131 115.342> 711 30<171.658 259.987>
LayerCount: 2
Fore
SplineSet
72 27 m 0
 61 27 58 45 57 53 c 1
 57 61 l 2
 57 158 123 260 228 260 c 0
 368 260 435 87 570 87 c 0
 649 87 711 156 711 234 c 1
 712 242 715 260 726 260 c 0
 737 260 740 242 741 234 c 1
 741 226 l 2
 741 129 675 27 570 27 c 0
 430 27 363 200 228 200 c 0
 149 200 87 131 87 53 c 1
 86 45 83 27 72 27 c 0
77 430 m 1
 66 432 57 440 57 452 c 0
 57 463 66 471 77 473 c 1
 722 473 l 1
 732 471 741 463 741 452 c 0
 741 440 732 432 722 430 c 1
 77 430 l 1
EndSplineSet
Validated: 1
EndChar

StartChar: multicloseleft
Encoding: 8905 8905 210
Width: 799
VWidth: 1000
Flags: W
HStem: 0 21G<167 175.5 623 631.5>
VStem: 151 43<74 425>
LayerCount: 2
Fore
SplineSet
151 20 m 1
 151 480 l 1
 153 490 161 499 173 499 c 0
 178 499 184 497 188 493 c 2
 399 280 l 1
 610 493 l 2
 614 497 620 499 626 499 c 0
 637 499 647 489 647 478 c 0
 647 472 645 466 641 463 c 2
 429 250 l 1
 641 37 l 2
 645 33 647 27 647 22 c 0
 647 10 637 0 626 0 c 0
 620 0 614 2 611 6 c 2
 399 219 l 1
 188 7 l 2
 184 2 178 0 173 0 c 0
 161 0 153 9 151 20 c 1
194 74 m 1
 369 250 l 1
 194 425 l 1
 194 74 l 1
EndSplineSet
Validated: 1
EndChar

StartChar: multicloseright
Encoding: 8906 8906 211
Width: 799
VWidth: 1000
Flags: W
HStem: 0 21G<167 175.5 623 631.5>
VStem: 604 43<74 425>
LayerCount: 2
Fore
SplineSet
151 22 m 0
 151 27 153 33 157 37 c 2
 369 250 l 1
 157 463 l 2
 153 466 151 472 151 478 c 0
 151 489 161 499 173 499 c 0
 178 499 184 497 188 493 c 2
 399 280 l 1
 610 493 l 2
 614 497 620 499 626 499 c 0
 637 499 645 490 647 480 c 1
 647 20 l 1
 645 9 637 0 626 0 c 0
 620 0 614 2 611 6 c 2
 399 219 l 1
 188 7 l 2
 184 2 178 0 173 0 c 0
 161 0 151 10 151 22 c 0
604 74 m 1
 604 425 l 1
 429 250 l 1
 604 74 l 1
EndSplineSet
Validated: 1
EndChar

StartChar: notparallel
Encoding: 8742 8742 212
Width: 513
VWidth: 1000
Flags: W
VStem: 134 43<-250.993 100 202 749.993> 337 43<-250.993 298 400 749.993>
LayerCount: 2
Fore
SplineSet
134 -232 m 1
 134 100 l 1
 15 -16 l 2
 11 -19 5 -22 0 -22 c 0
 -12 -22 -22 -12 -22 0 c 0
 -22 5 -19 11 -16 15 c 2
 134 160 l 1
 134 731 l 1
 136 741 143 750 155 750 c 0
 167 750 174 741 177 731 c 1
 177 202 l 1
 337 358 l 1
 337 731 l 1
 339 741 346 750 358 750 c 0
 370 750 377 741 380 731 c 1
 380 400 l 1
 498 516 l 2
 502 519 508 522 513 522 c 0
 525 522 535 512 535 500 c 0
 535 495 532 489 529 485 c 2
 380 340 l 1
 380 -232 l 1
 377 -242 370 -251 358 -251 c 0
 346 -251 339 -242 337 -232 c 1
 337 298 l 1
 177 142 l 1
 177 -232 l 1
 174 -242 167 -251 155 -251 c 0
 143 -251 136 -242 134 -232 c 1
EndSplineSet
Validated: 1
EndChar

StartChar: notbar
Encoding: 8740 8740 213
Width: 285
VWidth: 1000
Flags: W
VStem: 121 43<-249.993 328 423 749.993>
LayerCount: 2
Fore
SplineSet
121 -231 m 1
 121 328 l 1
 15 235 l 2
 11 231 6 229 0 229 c 0
 -12 229 -22 238 -22 250 c 0
 -22 255 -20 261 -16 265 c 2
 121 385 l 1
 121 731 l 1
 123 741 131 750 143 750 c 0
 154 750 162 741 164 731 c 1
 164 423 l 1
 269 516 l 2
 273 519 278 522 284 522 c 0
 296 522 306 512 306 500 c 0
 306 495 304 489 300 485 c 2
 164 366 l 1
 164 -231 l 1
 162 -241 154 -250 143 -250 c 0
 131 -250 123 -241 121 -231 c 1
EndSplineSet
Validated: 1
EndChar

StartChar: integerdivide
Encoding: 8726 8726 214
Width: 799
VWidth: 1000
Flags: W
LayerCount: 2
Fore
SplineSet
102 392 m 2
 96 396 93 403 93 410 c 0
 93 421 102 431 114 431 c 0
 118 431 122 430 125 428 c 2
 696 17 l 2
 702 13 705 6 705 -1 c 0
 705 -12 696 -22 684 -22 c 0
 680 -22 676 -21 673 -19 c 2
 102 392 l 2
EndSplineSet
Validated: 1
EndChar

StartChar: archleftdown
Encoding: 8630 8630 215
Width: 1027
VWidth: 1000
Flags: W
HStem: 0 21G<181 217.5> 432 43<465.146 694.764>
VStem: 178 43<85 194.104> 948 43<-21.9913 134.93>
LayerCount: 2
Fore
SplineSet
28 149 m 1
 28 184 l 1
 85 163 136 128 178 85 c 1
 178 307 369 475 585 475 c 0
 835 475 991 233 991 2 c 0
 991 -10 983 -22 970 -22 c 0
 958 -22 951 -13 948 -2 c 1
 948 207 814 432 585 432 c 0
 392 432 221 282 221 85 c 1
 263 128 314 163 371 184 c 1
 371 149 l 1
 298 122 236 68 199 0 c 1
 163 68 101 122 28 149 c 1
EndSplineSet
Validated: 1
EndChar

StartChar: archrightdown
Encoding: 8631 8631 216
Width: 1027
VWidth: 1000
Flags: W
HStem: 0 21G<809.5 846> 432 43<332.236 561.854>
VStem: 36 43<-21.9913 134.93> 806 43<85 194.104>
LayerCount: 2
Fore
SplineSet
57 -22 m 0
 44 -22 36 -10 36 2 c 0
 36 233 192 475 442 475 c 0
 658 475 849 307 849 85 c 1
 891 128 942 163 999 184 c 1
 999 149 l 1
 926 122 864 68 828 0 c 1
 791 68 729 122 656 149 c 1
 656 184 l 1
 714 163 764 128 806 85 c 1
 806 282 635 432 442 432 c 0
 213 432 79 207 79 -2 c 1
 76 -13 69 -22 57 -22 c 0
EndSplineSet
Validated: 1
EndChar

StartChar: Digamma
Encoding: 988 988 217
Width: 799
VWidth: 1000
Flags: W
HStem: 250 22<254 492.741> 593 22<334 740.741>
LayerCount: 2
Fore
SplineSet
57 -82 m 1
 229 604 l 1
 234 615 273 615 283 615 c 2
 687 615 l 2
 697 615 736 615 741 604 c 1
 736 593 697 593 687 593 c 2
 334 593 l 1
 254 272 l 1
 439 272 l 2
 449 272 488 272 493 261 c 1
 488 250 449 250 439 250 c 2
 248 250 l 1
 165 -82 l 1
 160 -93 121 -93 111 -93 c 0
 101 -93 62 -93 57 -82 c 1
EndSplineSet
Validated: 1
EndChar

StartChar: backepsilon
Encoding: 1014 1014 218
Width: 401
VWidth: 1000
Flags: W
HStem: 0 35<40.1258 184.317> 172 35<83.1258 280> 413 29<128.979 244.287>
VStem: 300 81<209.527 343.296>
LayerCount: 2
Fore
SplineSet
56 0 m 2
 47 0 40 8 40 16 c 0
 40 25 49 35 59 35 c 2
 116 35 l 2
 201 35 257 95 280 172 c 1
 99 172 l 2
 90 172 83 179 83 188 c 0
 83 197 92 207 102 207 c 2
 289 207 l 1
 296 234 300 260 300 286 c 0
 300 354 262 413 188 413 c 0
 137 413 72 369 69 369 c 0
 59 369 57 380 55 387 c 1
 55 417 162 442 190 442 c 0
 301 442 381 361 381 250 c 0
 381 107 252 0 115 0 c 2
 56 0 l 2
EndSplineSet
Validated: 1
EndChar

StartChar: subseteqq
Encoding: 10949 10949 219
Width: 818
Flags: W
HStem: -241 44<88.0073 728.993> -33 44<88.0073 728.993> 175 44<306.691 728.974> 749 44<306.691 728.993>
VStem: 88 44<383.847 583.754>
LayerCount: 2
Fore
SplineSet
109 -241 m 1
 98 -239 88 -230 88 -219 c 0
 88 -207 98 -199 109 -197 c 1
 710 -197 l 1
 720 -199 729 -207 729 -219 c 0
 729 -230 720 -239 710 -241 c 1
 109 -241 l 1
109 -33 m 1
 98 -31 88 -22 88 -11 c 0
 88 1 98 9 109 11 c 1
 710 11 l 1
 720 9 729 1 729 -11 c 0
 729 -22 720 -31 710 -33 c 1
 109 -33 l 1
88 484 m 0
 88 657 236 793 407 793 c 2
 710 793 l 1
 720 791 729 782 729 771 c 0
 729 759 720 751 710 749 c 1
 411 749 l 2
 263 749 132 636 132 484 c 0
 132 331 263 219 411 219 c 2
 710 219 l 1
 720 217 729 209 729 198 c 0
 729 186 720 177 710 175 c 1
 407 175 l 2
 236 175 88 310 88 484 c 0
EndSplineSet
Validated: 1
EndChar

StartChar: superseteqq
Encoding: 10950 10950 220
Width: 818
Flags: W
HStem: -241 44<88.0073 728.993> -33 44<88.0073 728.993> 175 44<88.029 511.202> 749 44<88.0073 511.202>
VStem: 685 44<383.847 583.754>
LayerCount: 2
Fore
SplineSet
109 -241 m 1
 98 -239 88 -230 88 -219 c 0
 88 -207 98 -199 109 -197 c 5
 710 -197 l 1
 720 -199 729 -207 729 -219 c 0
 729 -230 720 -239 710 -241 c 1
 109 -241 l 1
109 -33 m 1
 98 -31 88 -22 88 -11 c 0
 88 1 98 9 109 11 c 1
 710 11 l 1
 720 9 729 1 729 -11 c 0
 729 -22 720 -31 710 -33 c 1
 109 -33 l 1
109 175 m 1
 98 177 88 186 88 198 c 0
 88 209 98 217 109 219 c 1
 407 219 l 2
 555 219 685 331 685 484 c 0
 685 636 555 749 407 749 c 2
 109 749 l 1
 98 751 88 759 88 771 c 0
 88 782 98 791 109 793 c 1
 411 793 l 2
 582 793 729 657 729 484 c 0
 729 310 582 175 411 175 c 2
 109 175 l 1
EndSplineSet
Validated: 1
EndChar

StartChar: subset
Encoding: 8834 8834 221
Width: 799
VWidth: 1000
Flags: W
HStem: -51 43<293.577 711.985> 509 43<293.953 711.985>
VStem: 86 43<150.794 350.301>
LayerCount: 2
Fore
SplineSet
677 509 m 2
 401 509 l 2
 248 509 129 394 129 250 c 0
 129 110 246 -8 401 -8 c 2
 677 -8 l 2
 693 -8 712 -8 712 -30 c 0
 712 -51 691 -51 677 -51 c 2
 397 -51 l 2
 234 -51 86 76 86 251 c 0
 86 422 232 552 397 552 c 2
 677 552 l 2
 693 552 712 552 712 530 c 0
 712 509 691 509 677 509 c 2
EndSplineSet
Validated: 1
EndChar

StartChar: superset
Encoding: 8835 8835 222
Width: 799
VWidth: 1000
Flags: W
HStem: -51 43<86.0153 504.047> 509 43<86.0153 504.423>
VStem: 669 43<150.699 350.206>
LayerCount: 2
Fore
SplineSet
397 509 m 2
 121 509 l 2
 105 509 86 509 86 531 c 0
 86 552 107 552 121 552 c 2
 401 552 l 2
 564 552 712 425 712 250 c 0
 712 79 566 -51 401 -51 c 2
 121 -51 l 2
 105 -51 86 -51 86 -29 c 0
 86 -8 107 -8 121 -8 c 2
 397 -8 l 2
 550 -8 669 107 669 251 c 0
 669 391 552 509 397 509 c 2
EndSplineSet
Validated: 1
EndChar

StartChar: preceq
Encoding: 10927 10927 223
Width: 799
VWidth: 1000
Flags: W
HStem: -154 43<86.0153 711.985> 329 43<86.0153 344.712>
VStem: 668 44<49.0406 149.233 555.023 651.954>
LayerCount: 2
Fore
SplineSet
121 372 m 2
 135 372 l 2
 224 372 354 382 450 411 c 0
 645 470 661 580 669 633 c 0
 671 645 681 652 691 652 c 0
 699 652 712 646 712 629 c 0
 712 628 709 578 682 527 c 0
 624 417 495 373 381 350 c 1
 510 327 635 274 688 163 c 0
 707 121 712 78 712 72 c 0
 712 55 699 49 691 49 c 0
 673 49 670 63 668 78 c 0
 655 160 612 238 454 289 c 0
 365 317 232 329 135 329 c 2
 121 329 l 2
 105 329 86 329 86 351 c 0
 86 372 107 372 121 372 c 2
677 -154 m 2
 121 -154 l 2
 105 -154 86 -154 86 -132 c 0
 86 -111 107 -111 121 -111 c 2
 677 -111 l 2
 693 -111 712 -111 712 -133 c 0
 712 -154 691 -154 677 -154 c 2
EndSplineSet
Validated: 1
EndChar

StartChar: succeq
Encoding: 10928 10928 224
Width: 799
VWidth: 1000
Flags: W
HStem: -154 43<86.0153 711.985> 329 43<453.288 711.985>
VStem: 86 44<49.0406 146.688 551.767 651.959>
LayerCount: 2
Fore
SplineSet
677 329 m 2
 663 329 l 2
 574 329 444 319 348 290 c 0
 182 240 142 153 130 78 c 0
 128 63 126 49 107 49 c 0
 99 49 86 55 86 72 c 0
 86 73 89 123 116 174 c 0
 174 284 303 328 414 350 c 1
 414 351 l 1
 288 374 163 427 110 538 c 0
 91 580 86 623 86 629 c 0
 86 646 99 652 107 652 c 0
 125 652 128 638 130 623 c 0
 143 541 186 463 344 412 c 0
 433 384 566 372 663 372 c 2
 677 372 l 2
 693 372 712 372 712 350 c 0
 712 329 691 329 677 329 c 2
121 -111 m 2
 677 -111 l 2
 693 -111 712 -111 712 -133 c 0
 712 -154 691 -154 677 -154 c 2
 121 -154 l 2
 105 -154 86 -154 86 -132 c 0
 86 -111 107 -111 121 -111 c 2
EndSplineSet
Validated: 1
EndChar

StartChar: precede
Encoding: 8826 8826 225
Width: 799
VWidth: 1000
Flags: W
HStem: 228 43<86.0153 344.712> 531 20G<686 695>
VStem: 668 44<-51.9891 48.2326 454.023 550.954>
LayerCount: 2
Fore
SplineSet
121 271 m 2
 135 271 l 2
 224 271 354 281 450 310 c 0
 645 369 661 479 669 532 c 0
 671 544 681 551 691 551 c 0
 699 551 712 545 712 528 c 0
 712 527 709 477 682 426 c 0
 624 316 495 272 381 249 c 1
 510 226 635 173 688 62 c 0
 707 20 712 -23 712 -29 c 0
 712 -44 702 -52 690 -52 c 0
 672 -52 670 -37 668 -23 c 0
 655 59 612 138 454 188 c 0
 365 216 232 228 135 228 c 2
 121 228 l 2
 105 228 86 228 86 250 c 0
 86 271 107 271 121 271 c 2
EndSplineSet
Validated: 1
EndChar

StartChar: follow
Encoding: 8827 8827 226
Width: 799
VWidth: 1000
Flags: W
HStem: 228 43<453.288 711.985> 531 20G<103 116>
VStem: 86 43<-51.9937 44.5859 454.672 550.99>
LayerCount: 2
Fore
SplineSet
677 228 m 2
 663 228 l 2
 574 228 444 218 348 189 c 0
 152 130 136 18 129 -31 c 0
 126 -50 113 -52 108 -52 c 0
 96 -52 86 -44 86 -29 c 0
 86 -28 89 22 116 73 c 0
 174 183 303 227 414 249 c 1
 414 250 l 1
 288 273 163 326 110 437 c 0
 91 479 86 522 86 528 c 0
 86 545 99 551 107 551 c 0
 125 551 128 537 130 522 c 0
 143 440 186 362 344 311 c 0
 433 283 566 271 663 271 c 2
 677 271 l 2
 693 271 712 271 712 249 c 0
 712 228 691 228 677 228 c 2
EndSplineSet
Validated: 1
EndChar

StartChar: Uparrow
Encoding: 8657 8657 227
Width: 628
VWidth: 1000
Flags: W
HStem: 327 21G<34.5 46 581 592.5>
VStem: 190 43<-193.984 426> 394 43<-193.984 426>
LayerCount: 2
Fore
SplineSet
437 426 m 1
 437 -157 l 2
 437 -172 437 -194 415 -194 c 0
 394 -194 394 -174 394 -161 c 2
 394 472 l 1
 376 493 343 535 313 601 c 1
 288 543 257 501 233 472 c 1
 233 -161 l 2
 233 -175 233 -194 212 -194 c 0
 190 -194 190 -172 190 -157 c 2
 190 426 l 1
 136 372 51 327 41 327 c 0
 28 327 28 340 28 349 c 0
 28 365 30 366 43 373 c 0
 217 461 276 601 295 664 c 1
 303 687 303 689 305 690 c 0
 307 692 309 694 314 694 c 0
 323 694 325 686 327 679 c 0
 379 509 488 421 574 378 c 0
 598 365 599 364 599 349 c 0
 599 340 599 327 586 327 c 0
 576 327 491 373 437 426 c 1
EndSplineSet
Validated: 1
EndChar

StartChar: Downarrow
Encoding: 8659 8659 228
Width: 628
VWidth: 1000
Flags: W
VStem: 190 43<74 693.984> 394 43<74 693.984>
LayerCount: 2
Fore
SplineSet
437 657 m 2
 437 74 l 1
 491 128 576 173 586 173 c 0
 599 173 599 160 599 151 c 0
 599 135 597 134 584 127 c 0
 410 39 351 -101 332 -164 c 1
 324 -187 324 -189 322 -190 c 0
 320 -192 318 -194 313 -194 c 0
 304 -194 302 -186 300 -179 c 0
 248 -9 139 79 53 122 c 0
 29 135 28 136 28 151 c 0
 28 160 28 173 41 173 c 0
 51 173 136 127 190 74 c 1
 190 657 l 2
 190 672 190 694 212 694 c 0
 233 694 233 675 233 661 c 2
 233 28 l 1
 251 7 284 -35 314 -101 c 1
 339 -43 370 -1 394 28 c 1
 394 661 l 2
 394 674 394 694 415 694 c 0
 437 694 437 672 437 657 c 2
EndSplineSet
Validated: 1
EndChar

StartChar: dblleftarrow
Encoding: 8647 8647 229
Width: 1051
Flags: W
HStem: 62 44<148 992.974> 404 45<148 992.993>
LayerCount: 2
Fore
SplineSet
216 -86 m 1
 186 -11 130 50 58 85 c 1
 130 120 186 181 216 256 c 1
 186 330 130 391 58 426 c 1
 130 461 186 522 216 597 c 1
 252 597 l 1
 229 540 193 489 148 449 c 1
 972 449 l 2
 984 449 993 438 993 426 c 0
 993 414 984 404 972 404 c 2
 148 404 l 1
 193 363 229 312 252 256 c 1
 229 199 193 147 148 106 c 1
 972 106 l 2
 984 106 993 97 993 85 c 0
 993 73 984 62 972 62 c 2
 148 62 l 1
 193 22 229 -29 252 -86 c 1
 216 -86 l 1
EndSplineSet
Validated: 1
EndChar

StartChar: dblrightarrow
Encoding: 8649 8649 230
Width: 1051
Flags: W
HStem: 62 44<58.0291 903> 404 45<58.0073 903>
LayerCount: 2
Fore
SplineSet
81 62 m 2
 68 62 58 73 58 85 c 0
 58 97 68 106 81 106 c 2
 903 106 l 1
 858 147 823 199 800 256 c 1
 823 312 858 363 903 404 c 1
 81 404 l 2
 68 404 58 414 58 426 c 0
 58 438 68 449 81 449 c 2
 903 449 l 1
 858 489 823 540 800 597 c 1
 836 597 l 1
 866 522 921 461 993 426 c 1
 921 391 866 330 836 256 c 1
 866 181 921 120 993 85 c 1
 921 50 866 -11 836 -86 c 1
 800 -86 l 1
 823 -29 858 22 903 62 c 1
 81 62 l 2
EndSplineSet
Validated: 1
EndChar

StartChar: Leftarrow
Encoding: 8656 8656 231
Width: 1027
VWidth: 1000
Flags: W
HStem: 127 43<335 969.984> 331 43<335 969.984>
LayerCount: 2
Fore
SplineSet
933 127 m 2
 335 127 l 1
 392 69 433 -9 433 -17 c 0
 433 -30 421 -30 412 -30 c 0
 397 -30 396 -29 386 -12 c 0
 302 143 182 207 68 238 c 0
 66 239 57 241 57 251 c 0
 57 260 67 263 68 263 c 0
 102 272 193 297 275 370 c 0
 311 403 348 442 386 512 c 0
 396 530 397 531 412 531 c 0
 421 531 433 531 433 518 c 0
 433 510 392 432 335 374 c 1
 933 374 l 2
 948 374 970 374 970 352 c 0
 970 331 951 331 937 331 c 2
 306 331 l 2
 290 331 288 331 279 323 c 0
 234 289 188 264 154 250 c 1
 213 227 260 192 279 177 c 0
 288 170 290 170 306 170 c 2
 937 170 l 2
 951 170 970 170 970 149 c 0
 970 127 948 127 933 127 c 2
EndSplineSet
Validated: 1
EndChar

StartChar: uparrow
Encoding: 8593 8593 232
Width: 513
VWidth: 1000
Flags: W
VStem: 235 43<-193.985 608>
LayerCount: 2
Fore
SplineSet
278 608 m 1
 278 -159 l 2
 278 -175 278 -194 256 -194 c 0
 235 -194 235 -174 235 -159 c 2
 235 608 l 1
 218 587 168 526 86 499 c 1
 73 500 73 512 73 515 c 0
 73 526 77 528 87 532 c 0
 147 557 203 599 241 679 c 0
 246 688 249 694 257 694 c 0
 264 694 266 689 272 677 c 0
 319 577 401 542 430 530 c 0
 438 527 440 523 440 515 c 0
 440 512 440 500 427 499 c 1
 352 524 304 576 278 608 c 1
EndSplineSet
Validated: 1
EndChar

StartChar: downarrow
Encoding: 8595 8595 233
Width: 513
VWidth: 1000
Flags: W
HStem: -19 20G<79.5 123.5 386 433.5>
VStem: 235 43<-108 693.985>
LayerCount: 2
Fore
SplineSet
278 659 m 2
 278 -108 l 1
 295 -87 345 -26 427 1 c 1
 440 0 440 -12 440 -15 c 0
 440 -26 436 -28 426 -32 c 0
 381 -51 314 -89 272 -178 c 0
 267 -188 265 -194 257 -194 c 0
 249 -194 247 -189 241 -177 c 0
 193 -76 113 -43 83 -30 c 0
 75 -27 73 -23 73 -15 c 0
 73 -12 73 0 86 1 c 1
 161 -24 209 -76 235 -108 c 1
 235 659 l 2
 235 675 235 694 257 694 c 0
 278 694 278 674 278 659 c 2
EndSplineSet
Validated: 1
EndChar

